<mxfile host="Electron" agent="Mozilla/5.0 (X11; Linux x86_64) AppleWebKit/537.36 (KHTML, like Gecko) draw.io/24.7.5 Chrome/126.0.6478.183 Electron/31.3.0 Safari/537.36" version="24.7.5">
  <diagram name="Page-1" id="Zw43xxGdJvj7cztIYX8s">
    <mxGraphModel dx="2206" dy="1297" grid="1" gridSize="10" guides="1" tooltips="1" connect="1" arrows="1" fold="1" page="1" pageScale="1" pageWidth="850" pageHeight="1100" math="0" shadow="0">
      <root>
        <mxCell id="0" />
        <mxCell id="1" parent="0" />
        <mxCell id="8FmYkZ53vLVez4h843Hq-2" value="Violation rule 28: 201 (“Created”) must be used to indicate successful resource creation" style="shape=table;startSize=30;container=1;collapsible=0;childLayout=tableLayout;strokeColor=default;fontSize=24;" parent="1" vertex="1">
          <mxGeometry x="340" y="380" width="1600" height="828" as="geometry" />
        </mxCell>
        <mxCell id="8FmYkZ53vLVez4h843Hq-3" value="" style="shape=tableRow;horizontal=0;startSize=0;swimlaneHead=0;swimlaneBody=0;strokeColor=inherit;top=0;left=0;bottom=0;right=0;collapsible=0;dropTarget=0;fillColor=none;points=[[0,0.5],[1,0.5]];portConstraint=eastwest;fontSize=16;" parent="8FmYkZ53vLVez4h843Hq-2" vertex="1">
          <mxGeometry y="30" width="1600" height="30" as="geometry" />
        </mxCell>
        <mxCell id="8FmYkZ53vLVez4h843Hq-4" value="&lt;font style=&quot;font-size: 24px;&quot;&gt;API&lt;/font&gt;" style="shape=partialRectangle;html=1;whiteSpace=wrap;connectable=0;strokeColor=inherit;overflow=hidden;fillColor=none;top=0;left=0;bottom=0;right=0;pointerEvents=1;fontSize=16;" parent="8FmYkZ53vLVez4h843Hq-3" vertex="1">
          <mxGeometry width="200" height="30" as="geometry">
            <mxRectangle width="200" height="30" as="alternateBounds" />
          </mxGeometry>
        </mxCell>
        <mxCell id="8FmYkZ53vLVez4h843Hq-5" value="&lt;font style=&quot;font-size: 24px;&quot;&gt;G. Vertex aI&lt;/font&gt;" style="shape=partialRectangle;html=1;whiteSpace=wrap;connectable=0;strokeColor=inherit;overflow=hidden;fillColor=none;top=0;left=0;bottom=0;right=0;pointerEvents=1;fontSize=16;" parent="8FmYkZ53vLVez4h843Hq-3" vertex="1">
          <mxGeometry x="200" width="1400" height="30" as="geometry">
            <mxRectangle width="1400" height="30" as="alternateBounds" />
          </mxGeometry>
        </mxCell>
        <mxCell id="8FmYkZ53vLVez4h843Hq-18" style="shape=tableRow;horizontal=0;startSize=0;swimlaneHead=0;swimlaneBody=0;strokeColor=inherit;top=0;left=0;bottom=0;right=0;collapsible=0;dropTarget=0;fillColor=none;points=[[0,0.5],[1,0.5]];portConstraint=eastwest;fontSize=16;" parent="8FmYkZ53vLVez4h843Hq-2" vertex="1">
          <mxGeometry y="60" width="1600" height="60" as="geometry" />
        </mxCell>
        <mxCell id="8FmYkZ53vLVez4h843Hq-19" value="&lt;font style=&quot;font-size: 24px;&quot;&gt;Expected status code&lt;/font&gt;" style="shape=partialRectangle;html=1;whiteSpace=wrap;connectable=0;strokeColor=inherit;overflow=hidden;fillColor=none;top=0;left=0;bottom=0;right=0;pointerEvents=1;fontSize=16;" parent="8FmYkZ53vLVez4h843Hq-18" vertex="1">
          <mxGeometry width="200" height="60" as="geometry">
            <mxRectangle width="200" height="60" as="alternateBounds" />
          </mxGeometry>
        </mxCell>
        <mxCell id="8FmYkZ53vLVez4h843Hq-20" value="&lt;font style=&quot;font-size: 24px;&quot;&gt;201&lt;/font&gt;" style="shape=partialRectangle;html=1;whiteSpace=wrap;connectable=0;strokeColor=inherit;overflow=hidden;fillColor=none;top=0;left=0;bottom=0;right=0;pointerEvents=1;fontSize=16;" parent="8FmYkZ53vLVez4h843Hq-18" vertex="1">
          <mxGeometry x="200" width="1400" height="60" as="geometry">
            <mxRectangle width="1400" height="60" as="alternateBounds" />
          </mxGeometry>
        </mxCell>
        <mxCell id="8FmYkZ53vLVez4h843Hq-15" style="shape=tableRow;horizontal=0;startSize=0;swimlaneHead=0;swimlaneBody=0;strokeColor=inherit;top=0;left=0;bottom=0;right=0;collapsible=0;dropTarget=0;fillColor=none;points=[[0,0.5],[1,0.5]];portConstraint=eastwest;fontSize=16;" parent="8FmYkZ53vLVez4h843Hq-2" vertex="1">
          <mxGeometry y="120" width="1600" height="60" as="geometry" />
        </mxCell>
        <mxCell id="8FmYkZ53vLVez4h843Hq-16" value="&lt;font style=&quot;font-size: 24px;&quot;&gt;Received status code&lt;/font&gt;" style="shape=partialRectangle;html=1;whiteSpace=wrap;connectable=0;strokeColor=inherit;overflow=hidden;fillColor=none;top=0;left=0;bottom=0;right=0;pointerEvents=1;fontSize=16;" parent="8FmYkZ53vLVez4h843Hq-15" vertex="1">
          <mxGeometry width="200" height="60" as="geometry">
            <mxRectangle width="200" height="60" as="alternateBounds" />
          </mxGeometry>
        </mxCell>
        <mxCell id="8FmYkZ53vLVez4h843Hq-17" value="&lt;font style=&quot;font-size: 24px;&quot;&gt;200&lt;/font&gt;" style="shape=partialRectangle;html=1;whiteSpace=wrap;connectable=0;strokeColor=inherit;overflow=hidden;fillColor=none;top=0;left=0;bottom=0;right=0;pointerEvents=1;fontSize=16;" parent="8FmYkZ53vLVez4h843Hq-15" vertex="1">
          <mxGeometry x="200" width="1400" height="60" as="geometry">
            <mxRectangle width="1400" height="60" as="alternateBounds" />
          </mxGeometry>
        </mxCell>
        <mxCell id="8FmYkZ53vLVez4h843Hq-7" value="" style="shape=tableRow;horizontal=0;startSize=0;swimlaneHead=0;swimlaneBody=0;strokeColor=inherit;top=0;left=0;bottom=0;right=0;collapsible=0;dropTarget=0;fillColor=none;points=[[0,0.5],[1,0.5]];portConstraint=eastwest;fontSize=16;" parent="8FmYkZ53vLVez4h843Hq-2" vertex="1">
          <mxGeometry y="180" width="1600" height="648" as="geometry" />
        </mxCell>
        <mxCell id="8FmYkZ53vLVez4h843Hq-8" value="&lt;font style=&quot;font-size: 24px;&quot;&gt;Postman request example&lt;/font&gt;" style="shape=partialRectangle;html=1;whiteSpace=wrap;connectable=0;strokeColor=inherit;overflow=hidden;fillColor=none;top=0;left=0;bottom=0;right=0;pointerEvents=1;fontSize=16;" parent="8FmYkZ53vLVez4h843Hq-7" vertex="1">
          <mxGeometry width="200" height="648" as="geometry">
            <mxRectangle width="200" height="648" as="alternateBounds" />
          </mxGeometry>
        </mxCell>
        <mxCell id="8FmYkZ53vLVez4h843Hq-9" value="" style="shape=partialRectangle;html=1;whiteSpace=wrap;connectable=0;strokeColor=inherit;overflow=hidden;fillColor=none;top=0;left=0;bottom=0;right=0;pointerEvents=1;fontSize=16;" parent="8FmYkZ53vLVez4h843Hq-7" vertex="1">
          <mxGeometry x="200" width="1400" height="648" as="geometry">
            <mxRectangle width="1400" height="648" as="alternateBounds" />
          </mxGeometry>
        </mxCell>
        <mxCell id="4hr0RQT1hv6GVlqSemt6-2" value="" style="shape=image;verticalLabelPosition=bottom;labelBackgroundColor=default;verticalAlign=top;aspect=fixed;imageAspect=0;image=data:image/png,iVBORw0KGgoAAAANSUhEUgAABWkAAAJ9CAYAAABHDfDcAAAABHNCSVQICAgIfAhkiAAAABl0RVh0U29mdHdhcmUAZ25vbWUtc2NyZWVuc2hvdO8Dvz4AAAAqdEVYdENyZWF0aW9uIFRpbWUAem8gMDQgYXVnIDIwMjQgMTM6MTI6MDkgQ0VTVOa8fYMAACAASURBVHic7N1xUJRXvv/5twnp1hmb6NLORojZfZwykNQvzY277UyEq7PtXJQ4TltXCueqVIbFKlnqrmJVGNwS2N8PsX4ypErkl2KxSopJifmtFG6JmYh6f3YZF9iMvZix4yrEGrv2GjB3bSqGdiZ2yyT7RzfQQCMNQduMn1eVldA8z3nOc55zTp/ny3nOM8cwjG8RERERERERERERkcfi+eef56uvvhr5+Zk45kVERERERERERETkqacgrYiIiIiIiIiIiEgcKUgrIiIiIiIiIiIiEkcK0oqIiIiIiIiIiIjEkYK0IiIiIiIiIiIiInGkIK2IiIiIiIiIiIhIHCXEstEPf/hDfvjDH/Lss88yZ86cR50n+Rvx4MEDnnvuuXhnQ0RERERERERE5JH45ptvePDgAX/+85+5f//+jNOZMkj7ox/9iG+//Za//OUvfPPNNzM+kDx9FixYwN27d+OdDRERERERERERkUdizpw5PPPMMzz//PM888wz/OUvf5lROg9d7uAHP/gB33zzDX/+858VoBURERERERERERGJ8O233/LXv/4Vv9+PxWLBbDbPKJ0pg7TBYHBGCYuIiIiIiIiIiIg8Lf7yl78wf/78Ge370CBtQkICQ0NDM0pYRERERERERERE5GnxzTffzPj9TA8N0j7zzEN/LSIiIiIiIiIiIiKElj6YaTxVUVgRERERERERERGROFKQVkRERERERERERCSOFKQVERERERERERERiSMFaUVERERERERERETiSEFaERERERERERERkThSkFZEREREREREREQkjhSkFREREREREREREYkjBWlFRERERERERERE4khBWhEREREREREREZE4UpBWREREREREREREJI4UpBURERERERERERGJIwVpRUREREREREREROJIQVoRERERERERERGROFKQVp5IFmcD3ReqyDDFOyexMGHLLWWb3TLm06SMbRQ7bXwvTuFxM9koP9vNsW3Jo59ZUsmtaqXr6lVOFafOzmHs5ZztukDNOsuU245kY9bqXjKO8ibOdnVztauJ3OSp93iqRKsDj+OwM6gTT5pp9y1Ttq3ofdjsM9jW1EXXsQJmp4XPAsNBQfE6jCk3NOGo6aK7wTlJuSeT23Bh9NzG1e/Z6VdM2MvP0n1sG9+91Ux1PjEyCmjtPkWpDSaUweNmyqD87FWuXm0id3xVTnZQfKiVC93dXO2+wKmGUtYZkWduIqPmAlevXh33b/jchjdLxTncr3d3cfZYFbm28QczkZxRTMPZbq52H2Jd+DCmdYfompB++N+xbSRNcXox1aHptPU49cHRxLtf1njtIWY0Xpv6O8XkqKGruwGnCl1ERGSMRxKkNdnKOTt+ANrdxdljNWyzTxyGJtlzKW9o5WxXN93d3XSdbeVQqZMJ414s2HLLaWg9S1d3OM3WQ5SuSw0PrEw4G7qjD4BH/jWxbaqRsHw/JG2jqfsCVRnjbrSqLtAdww3PrDFlklfkIM0UiPjQQmZeEQ4jQPBx5eORS6X4VPesBVAjJdkLaGh9n+I0P/2Ds5dusM+Nq/M8Hd7A1BvPWPRyMdmLKN2cjKc6n035e2nvf4RZkJg9njrxKE2vb4mpbUXtwx4FH73nXbhcHmavOXy3Pt9wFFCUbuW7n7kfb0cHne4efN85re+reJaBCVvRbjamwISLabJT2lDDxsQODuRvYVPhAVzmbPY3lGIfGT6YSbFa8LXvZdOGDWwY+VdIfc/wNkms23+YijUBWsry2ZRfRovPTmldFc7h+JXJwFn1Pq112Zh9Y0sh2FlN/pYtbBnzby/nfeDzevF/xxJ4str6Q0QZu8W3X9Z4bTriV8/iML4fFvV+Q0RE5NFIeKSpD/bQ0enFjwmLkY49PZs9DQbWLVuo7Q0NhZLX1dC0P5sUMwz29eDtN2E10liTt5/MDDsl+WW4BgBM2IqbaNqehjnQxxV3B35zMjb7GvLesZOWuJX8lj68He20+82h41ttOOwpmH1XOO/uDw++evD+7YzC5AlgSs/Ahodqd0TFsmTgsPlxN3rjl7HvDRNp6xzQvpOc+iAFHzRgn62k+89QXXJmtlKbniQL1kAP59s99KrPeXLEs07Mhmn1LbG1rah92CPhx91chvsRHyV2Sdgz0/B2lM1C0PhJO7d4iGMZGLnszrXScfw86RsTx/zKlJlLdoqHI/m1nBkA6KV3p5m0C7vJzazG7QoCyRhJ4Ovw0OudpG2l5rHdAe07S2jsDIVUe0v8JH/QREGejbZqD1gzyDZ6qN5SjSu9jgtpEfv7++n1jK1pSc4i7JYr1Dd2fscA4ZPW1qcpnv2yxmvT8D2vZyIiIt8Dj3a5A18HB0tKKCnZRWHOJkrafWBOY+N2e2jma5KTiopsUsw+Og5sYe3aHHJyfsnPfraFg24f5qUbqahYF/qLqSmTvNw0zNzkaP4GthYWUpj/S9buOEkfidi35WIjiKe5jJKSEkpKSth7vCc0oaKnZeSzkpJGOr/rdIW/AT/60Y/YunUrc+fOnXSbuXPnsnXrVn70ox89xpxFMpOSXUXrhW6uXu2m61QDxRmhv5+b1h2i66M92M1WNh6+zNWuQ6wzGRS3XubwRivm9D18dPUqrcWpDD/W2XUol3Wlo48pnmoqx5ka+VdxC/ZtNRw720X31at0XzjFoQI7wxO6bcXH6Oo6RsG4iQlpDjuWng4ix6ImWybpQTeuK8FJHim0kNvUzYWqjJHH65IyijnUeoHuq1e52n2B1prcKLPJo7OkOilvOsWF7m66w49yOsY8yplMRsEhWs920d3dzYWzx6gpsI/ORjAKaO1updRZwKFToTx0nz1GldMI5c+SS9PVE2xfambp9hNcvXqWcrtp5NyaSrdR1XqB7qvDMw0spOZW0XTqAl3dV+nuOsuxmm1Ef/ItiLs6n8LazukHSkwG60obaL0wfM1aOVScMe68hh9XjbUejJOcQfGh0Ez/q1e7uXCqgdJ14Yejo5bLfByHurj8zhrM5jW8c/kqV08Vhx//TSajePQ6dJ09Rs22iOswSXlanA10n61iW8EhTg3n+9A2bIaD4oZTI2XcEHnu0SRljHnkt7Uql3Wlp8Y9Pj1FHgEsdrZVHRt95Lf1EMWO5Bkca6wx9bjrwsRrE9P1bqV03bZwPe4ObVMwWZ2Aqdr9RCaMdaU0tF6gu/sq3V2naCp3MrYrmaJ8wvkszy2mabhNtlbhTE1lXcSj1KcObcM2rmpG9i2WdYfo6m5i7NPKSeQ2ddPV4CQpxrY1pg+LpQwnbfeRZdMdKpuqyH4syiP2EWXV3d3F2daGCXVp8v5tsj4fMKWSO3wNrnbTdaqJ0vF11JKJI7UPt9sb+z6Ru9uLOdbVxbFiG5ZpLx8wRZ8MEx7Rb63aOM1lDiKOcTXUlqu22cbVbSuO0ibOdoWfTmoqZcwpT9Xmxnj49R1uCwUZSWP2GVNnLoyvM7FIwlm8nVRPPbVRBnhBdz078ytpG5iY39H/TcFqBZ+vb9KjJGfaMfwdtLsjjhG8wpmOPlLsjtCSGf0t7NxaRltvDANNk43tBXaC7fW0zSQ+mJRBeWsXFxpySTXNoK1HEa2tjV0WYurxRpJ9GzXHzobrbRenmqpG+vHoYzei9Mux9SVdh7bhLB+tX6caiomsXiZjXTivw0/0lU84nzHjtUnasVHQSvep0pFlPGJJdzJPw3htQj0zGawrb+BUeDx/9lg5Duv4L7eH9TUP6esfNkYLlfiU3/EPG3tMWmenPXYQERGJzWNck3aAjvNXGASsyWlYAWNjLpmJMNhxkL3NntFHvfweGvfW4w6ANXMz2UkAFixmgCCBiKdn/J2V5Kxezer8enqQWA0ODjJv3rxJA7XDAdp58+YxODiLz59PhyWDbdk+juzMYcOmnTQOpLF9/x4cFgieKeFnWQe4EvBxcucbLP9ZCWeCXmq3vMGOkz4CVw6QtXw5W2p7R5JLzCwiz3KSnWvfYHlWIY0+OxWH97MuPPK1rKugZreBt76QDatXs+WAm5SiKkrDjzf5+3309/fjG3NzY2C3p9Dr6oh4VNFEusOO6UoHnlgnESTn8k5NLlZ3JVuyVpOVfxCvrZSqohjWSEt2UtNUQeZgC3u3bCBnSyUuczY1h3aHH+U0YS9toCYX2qsLydmQQ0l9D8kFDdQVRAxkzQbOXANXySbeWJ7FznZwVFSRZwD+Fna8sYWjNwPcPLqFN5ZviJghYcaenU3g6E42rN5EtTuIxVHK4dJMAm2V5G9YzYbCevptu6kqzYh6PsHgTGZbmLDtPsR+pwX3gUI2rM5iy4ErpOTVUPGQde2mqgdjGRTU1JGb0kP9rhxWZ22h0mXBub8iFBiLWi73cJX8jDf2nicQ6GDvG8tZnlNLb/g61OVacR/cRU5ODrvqezCKGjhcHHmdJ5YnAFYHG412Sta+werCRgbse2hqKsDSsoufvfEG+bU9pG2voMg+SY0xpVJ8OHQuBwtz2JBTwlGc7HamYI4o06nzmEpBwyGK0rw07trChpxCDroT2VjTRHmGZRrHGifZSc3hUtJvNlKyZQMb8vfSMphJRV0FDss0rrfZwLk7E8++Lbyx/Gfk7O0gsaCOw8WpUeveVO1+wvaO/TTsz8bcUUl+ThZbSloYzKzg8H5H+OYshvIJ53ON08zR/J/xxoadtJNNxfuH2eyvZ8vPhq/xbiryIm82x/YtflcbnX4b2dkR2yRnk20L0NniYoBY2laUPiymMozW7ito2J8NHZXk5+SwpaQZn62Uhrrc6Gu+mkJltT3Fw8FdOWzIKaS6w8zGmgZKh+vxQ/u3yfp8E/bSOkrtPhp35bB6dQ4lLhPOqlKckQEceyZpfg+uHmLeZ6Qe2ItpOJQLjYUU1nqm+ah6DH2yyUZxXQ25KVdG21DASVG2dfI2FOUYdQVW3AcLycnKYVejF9vuBmqco1FYsz2XzaaTlOVvYENhPT3JedRU5IYDIzPrY0ezELq+u9O8NO7KISunkINXrBTU1TF8mhbHfhoqMvCf3MuWnA1sKWmmz1ZKQ40z5oC0xbGbokwfjQdb6Iv2dLXfi8fjHfMdnVqQh93v5vxw/2pJxmqG5I2HOXWhKyJQYxnZxzBSoK+HnjFNKkhPbz8kpxCKswVjnhGb5CjAmdLD0cbO6S91kOSgvKmGNb5aduxsoTc4w7YeKdlJzeHhtpZDTn4lbTjY31Qz+v041Xgjycn+Q7tJ7T9KSc4GVufsoiWQSUVNEalMNnabmJVY+5LEzDyy++vJX/sGb2ypxmtsZ/8ex8h3VVHNftYE2ti7ZTWrN+ziqH8N+6si05jBeC2mdCfxVIzXxtczCxkVDexfY8Z1IJ8NWVsoa0tke5Gd0TnvU/U1k/X1U4zRiOE7foqxx2R1drpjBxERkVg92uUOxrEkJmIGAkE/AUzYbKHnwHpdHUyY4NDfQUcP2NNTSU830ezqoL1jkMw1aWx//wPsrg5cHZ10dHTQOzBhb5nC/fv3aW5uZtu2bWzdupVjx45x//59YDRAO2fOHJqbm0c+f/x6ad47/Hiil8YDJ8l+P5uMNBMud5BggNDNUCAwOmgMjt6hBYLjbpb8HdRXtoUfPffQtrcW+7ka8rKTOdPcjyUlGYvfG1ov0Q+c2ceWThNBfygVb8suclrGZTE5g0zDS4c7sg4aZKRb8Bx1x37jZTVIMvvobO+gtz8I/W3s3dAO488hClteAXZfC/klzeGbjH5q3/bTvzEZLEAwmwKnmfZdJTSGB+retn2UWdNpdeZia6zGEyoxOhsraQs/m99Z30hnbg12m4VGr5+gPxCamR4I4B8zSA9ws72afW2e0Y9clWzaYMHfPxDKf38bR10FNNntpNDJ7DxUGMRTvZWsIwEGBsL5OdPIybyN5NnTMJ1xRy+7KerBWF4aC7M4yQAD4Yvpqm/Bk1eK3WaiuT8YvVyCw39MChAIBAkGAUs2BblW3NX5VIcqNV7vPnZa0vigqABH4y7OhPcZX56hMIGHo9Vn6PUD7qMcdxdhS2yj1uUlCHhOttBRVMdSwwLuiX2iKXM7Gw0vjTll4VlbXrxllRitJ9g+cqCp8+iybycvrZ/GnDJawhfSW/02ZuMDKrZnU9/Zgj+WY41jyyvA7q1lw7628AydfppLqkk/V0Wuw4KrzR/z9fYeraTRHUrF21lLZaOd1rw87PVldI477lTtfiyD3AIHZlcJO2tdofbtbaasxE9uWgALEHBMXT4DAAE/HfUHcfUHgU6OnOwhr8jH8Xo3A8HwNfYUUWFLxYQ3fG7j+pZgBy0dPhqyHRiNjXiBZEc2Nr+LnR0x9j5R+7BYynB8PTUoKMjG7CqhZKRsvOwtM2h9v4Bt9pPsG/ccvClzO3kpbg5sqOZMOLv9tW9jSTvHbqedg+5O0qbq3wai9flmklOsBLwuzru9DACdtfmsrQ8yellNpDts4KnmSjDWfUIs9mLqDuUSbCxkZ+N0A7SE2tkUfXJPZh65Rg+NOftG29C+Moz0DyZtQxOPMa4tt1RSMujFHowI83rbObCvjdCfM71UNq7hXLGddFMLruAM+9gwU+Z28tK81Ee0hf59Jfi92VhMJiCF3AIH/pYtlDSH/6DqbaGyLBV7Uy6O5DYmdMkTDmKnqDibwMlCjvYC1qmLJslRQU2eFXflzpF6h7mfng431n4X54/UM4CBY3sR+5tSIKeQtn4wm01Rv5MDg4NgNk3vpVMmG3lFmQRdJSNlEyuz1UF5QxVr+mvJ39kS+xJek7T1Yba8AjIDJ8kvaQ7PgPTSuDOAca6O7XmpnKntnXq8MdDGzg1uzAP94XbRT8vRDrbXpZNugV7/JGO3MQxyY+1LvC1UN4Zndfa2UduSR2uunTSTCw9WUqzQ1+6is3cAGKB55wZagv6IaziD8ZoplnSjeyrGa+PrWVI227MtuCvfpnakL9pLdeoHNG0c3imGvibq+H7qMdpU3/GxjD2i1dnpjR1ERERi95iCtCaSbNnsKbBjJsCVDjcDmElMNAMBBgejDY18+PwBwIzFAjBAW0k+gdLdFGVnkp69mfTszexmkJ72eqorm3FP+07p6RYtUAs8IQFawN9HX+Q19fnwY8Y8wz9SB3rcY2dKBN24e8CRnoapuZ/+9qO4cvdTc/YUHreHK50u2s+76J00RbDYM0ntc3MgchSbnInd8NI+yY1QVJ4Wmt3ZlDadw+5xc+WKG1dbO53huy+TvZzWhs0sHbm3DuBrLyGrxE1aWgp+T8fY2T0DbloaCe9rw0hMwd5wgezIWUbmRMyBPpJNhAb9AR++MdOE/QT8YI2hwP19418TEwSrndxcO+lGCtaUZAxjKea+zmm/PdkoOEbr7vSI2WMBOva+QWFbKK/W9I3kZdgwUlKwJhukLTXj905+lKnqwcQdEknL3kimPQ0jJTl0DLOZjtims40wpdkw8NLSMbZe9LvdeM0O0g04E34cYGJ5An4fvvGzxAKBiHfkBCEApklOPcVmYOlz4x5zx+Wls8fH8GTNWPLYGzWdATo6emG7jTRTC/0xHGssC2lpSzHbSmntKo743Iw50YzXSIZwS5zyegd8eDxjy6/P3YOvKJ20FCYEaafV7k2p2AzoaRk7E83vaaMxfM9rxFA+oTwM4o+8mQsGCQT9YwMFAcbOmpzQtwRxt7joa8rGmdpIba9B9sY0fOdrJ32cebyofdhUZRh+InxMPR0pm7HBjmCPC48vl7RUK7jHppliM7BaDfaf7aIi4nOz2YzZk4IFy5T9W3R+XEdPkle3nw/O5uJ2e3B3tONyRQZU03DYLPQ0DgcaY9kHzEYehw+lYfQeYMNMArSE29kUfXLAZmCeUI/66LzSR97wOqcmBzXnasi2RvSON4+Sn1NNT5oNw+zl6JjvoSC9ZxrDdTvUZgI+75ggjD9KwHG6feyw6H1OP53Nw19OqdgMM2lpTXTlRpaDmUSzDyPFhCmldJLvPhdBIDWvmNxEFyW1oes4Va4stmLqqrLh5E5K2iL6+34X1btcEVu6cXv6sLQeDq8320MgEATTxGCsOTERAr5prSmb5CggN6WHxl2uMXVoqu87LDaKGrJJs3bw9tZpBGiZpK2P5oi0tBR8ntrwHy3Cgm46rkB2Whom+mNrj+YUHAV52NKSWZqcQrJhYDX3YLJATA1mGn1JwOcjcoGKQb8fsITKL+jm6NEeGna3cjbbjcftpsPlGrtcxUzGa1Ok+zSP12BiPTMtTSWZiX3RFXcPgxvHDqRm1NdMMUZ7+Hd87GOP8WZyzyAiIhKLRxukXbqdE1fHzvnwueupPuoFTAwOhoKwiYkWmDCX1orVYiZ0Ixv+KNjLmX2FnNlnwbBnYHeswZntID17D4esQXLyW2bxjdFPh/GBWuDJCNA+CuaJUTWzmdGbhv4zlGxwY8tcgz3DTua2KvKKvRwtzKc26nNwJuwOG35345ib3KTMTNK8bsqmVRm9tBRm0WF3kJlhJyO9gJq8InoP7iC/uZfglXp2bWkZO2D29xMc/iTKuY0R6KGlsISWcWPzQGBw3PINs8PIbaCpNI0+Vzuuzna8fV4CmRXUZUw/rb6TZWzpGDtI9/cHgSTW1bzP/gw/He0duNs78Hr7SSttIu9hCU5VDyJZ7JQfayAbN+2uDto72unvt1LQUDr9E3mIx/Fw3KTHCIyP/E5z/1k5lgkIMNhRydZaz7jfBQj4fEznepvGX+KHNY9pt/vhBB//bJmofYvnJC5vLo7sVOrJJtvoo33vw2c4joreh8E0y3CGTECgr52SwonHDwz6GIi1f4vC37mPnKwWMjIzybTb2binid1FJ9m5dV9oXXrDgT2ll5aIGcdT7gNgNdHTch5LbhEVuZ0UTnca5MgJPrxPnvSx6ciyCLo5uGMLRyJ/H/SNCdx9t8s2wz52WgK4D+ZT2TmuxgYC+HxBgkz23Qck57K7wMBTW4IrliVgjVxq6vKwdu4lf18MSwz43bi9AbKTkzHhwevtg8w00kwwml0TaanJ0H+Fvmk8Lp+3Pfos2sm/70LMZisBdwsda3LZXbEOT8mZGMe9k7f12E3dHk22ApoairD2ttPe0cnxdi/9Jic1+6dcCOARCOJp3Mpal52MjAwy7Q6KGooocu0lP1xuMxuvTZHuUzxee1g9i3bWo5/NsK+JZYz20O/4WMYek5jR2EFERGRqj3ZN2sEezp88ycmTJzl5/AgH3t7CpvzG8Cy2IL2e0LSxVEfmxJdQJGeSmQYEernSE4RkG45161hnTwb8eN1naKkuYeumatwBSLRlk6nV2mdkOFA7Z86cv4kA7aRhFSODyCUhsWSQkQreKz2hGThJodkbHlcLjftKyP9lPkf709mYa48edDLZcaQH8XReiTimBXtGKn1u1+gANRjAHwBLSuTBDYykiCGrJRmbLQW/+wwttfvYlb+BXe0B7LnZoRdVBAfw9vbSG/mv3w/46enpw2rLID0yk0l2cguc2JMgeNODl2QMYxCv1zvyb9BiYDySNpOEPdsOrkryS6ppbGnD1dkDlljXUhwrOOAde969vaFHy0x2sjNCj/Pu2ldLc9sZOj2B8B93JjdVPYhkSltHZkoPjbsK2VfbTNsZF26fiSkOEf08ejx4MbBnju3tDLudlICXK4/4xdLenj4CKTZsYxZ6TMGWPrpObCx57PN48afYsY+5504iMzMVvB56grEdayw/PTd9JKbZsPaN1lFvHyQbKZgJxn69zSmkZ4wNCBgZdqz+HnqivBNoWu0+2IvHC2mZY18OYrI5KcjNIJnYymdmovQtAPTS1t5DiiOX7I0ODG8bbbFO5YnahzHtMgQmL5s0Bzarj57eiTe7Xo8XvzUNg4hr7vVhSjawmgPE0r9BtD7fRFKqnVR66WxrpLqskJxNB/GkbCQ3vF5gcoYdo6cjYmWQqfcBCLgbqawuYWe9F1vpIUqjv13noWLpk70eL4EJ9cggwxbZj/rpH/+94A09shw6xvi2bMJwFLDNEWPAbIZ97LDobSGZjG0FrEs1hepMPxjpKfgiysEbsGIY5tCFnfS7D5Iys8lMTMRecY6rV69y9epVLh/eiNVsp+L/6ubU6FuoIHkd+xtKSeuppnDvxMCmKaOUpmPl4fWvhz9Mx2aY6esPBYX7O9z0WexkR15zUzrrMlPwXRnfLidnWVfERsPL0SOuCYHiSb/vwgI+F/XV1ZSUnCTgqKCmIPpa2xNM1tZHDERvayY7meng7ekhGEN7NBzZpPlPUrKjjNrGFs643HjNlul9Z86gL4nOgmGzYelzc6a5lrJdW8nZ24HFkYcj/K6LaH1qIBAEiyVi5QwTyUZku5si3ad4vBatngVv9kbti+yZaaPHiLGvmckY7eHf8TGMPSY71eneM4iIiMTo0QZpfR3Ul5VRVlZG2b5ams94xsyX9ba30TEIiZm72Z+bOjoYs9jYVlGE3QyDHcdp7wdTipPSd97hnard4cFViCnFIMkMBAYZjG1CmEQxHKj9XgVo/f0MBizYsrPJsBnh+hPE5/OBsYY8h53UpMi3N6ezvaYAh83AsK2juG4PmUEXje39gIn0ojqaDu+nwJFKcrKBzZlLphHA2xO6QTOcNbS21jD8zhVTmgO76croi0cATHbWpPvxdES+xs6L2+NnafYeih2pGKkZ5FaVkp0yuoXFvpu6pgaqttlJTU7GsG8k12Zl0NvDw29HgniONtNh2UhVzTYcqeFze6eGUmcaAT8w0E7jSR/24jrKnXZSDQPbumLeqauhIi9tGgNxH/0DkJKZyzp7KsmTjkL99PX5sdic5GakYhg2HNtqKHXM8h1G0IvXB2kbc0PXNDWD3KoKnClT7PfQejDuEH1e+jFw5K7DZhik2p2U7t9O2phCi7Fc/O00tkReh1TszipqitLwtjTGNBNsWix2iptaaSoO3TAEXc209aVRVFOO025gpNpxzEE2swAAIABJREFUlleRmxz5Jsap8xh0HeFoTzJFNVWh65tqZ13pO+y2+zh5pD30sqpYjjVGEE9jY6ge1xWMXs/9h6irKibDyjSud4Dk7AqqwvnPyK2iJi+FnqNHGT9Zb/rt3svJRhcBRwV1xeE64dhGTU0FeTYzfmIrnxmJ2reEeNvb8KRkU+pMwXOyPeZgUdQ+DJheGY7kgpbG9rFlk7GN/VW5WN2NNEdZfyHYcYSjPQZFh2rYNtxXFNRQV1dBgd1CTP1b1D4/hY37G2iqK2WdzSDZsOHIW0MqfXj7g4AFe6ZBn7sjoqym2mdMzultLKGyI5HcmiqcyUxPDH1ysOMILV4jVI/soXqUW1VBdmLkEiexH8MwUsnIreBQTQGZlhhfBjrTPnZ495HrG24Lhh1neQ01ux2kBIOAl5P1LnBUUFe6Dnu4jy2vO0RNaS7GFJGOgfZKNm3aNObflsrzDAaucCR/C7uOhNuKJYPyhv04cHGwsQdLmg2bLfQvNdxhB3uu4EvZSEVdKU67jVT7OgrqqthocdPcEp5h13uU+g4z2ftrKHbYSLU5wtt0UN/oiXH2eioF2zPBVU/Ld3gu2u+uZtfBXoyiOiocE6Y5TDB5Wx/lOdpIhznc1mwGhs1BQV0F2XRw5GgvsbTH/p4+AlY7udmj9bqmKDPiBVFMMnaLNP2+JKqkbEobmmiocGI3kklOzSB3Yzpmnxdv+A+9E/vUID3uHgLpeZRuyyA1PH7ZHTkLZKp0J/W3P16LWs8G2mk86cdeXEfpunBfFC7Tkb4spr5mYl8/9Rhtqu/4GMYeEKXOTj12EBERmanH+uKwCfpbqKzOoGn/GjIrTnC2oAevD6xGGimJoccgK6vPhG5q3c0cdWezx55N3Qc2rni8+M1W0mxpWAlws735ITePEovvTXB2WLCD2up2qopKqXN4qFxbSJsfvI3V1KeVU1DTgKMln19WhwbgAc8R6nsyKW0oIsUc4Kanncod1bgGAIK4q3dSba6goOp9difCoM+L++hOKptDt/EWwyA5OYA1PHY1HOlYe1vGrIVsSs/AhifiTbqhtDsP7uWItYLcmhPkBW7ibqnlqKdm5DEuv6uSkoMVFOcd4v09iTDYR0/nQXZVnpk6qNPfQkkhlO7eRtX7e0jEx013O3t3HRyZte7eV8jO/lKKig7xfkoiDN7E076XwurpvFV6gJMHqsnYX8T+hjW078yizB1tuyCd1Ts5WFXB9roT7GGQm+4WmttTKLXHfLAY9FJfUom1ooiqpt2YA3142htp8aSx8SF7PbwejNPfTOVeg4rdFTTlJULfFdobj+JOLYrYKEq5RO2MgrirC9kZKGV30SE2ppgJ9PXQWV/IgeZYb/CnwZREimGQ7AutzxcMuqkuLCFQUczuhs1Y8dHjqqe+3UrF8BqXMeWxl8bCXQQqiimoeZ8KcwCf183Jkr3UDj8THtOxxulvoSQ/QPGeAiqairASoM/bSf2uA4SaYIzXO9BH+8EWzNtreD/NAj4vHfU7qWyMFhGZfrsfcO2lcO9uSov20JRnhUAfPa5KdlQOz4qLoXxmIHrfMlx25znpLma/3c3JKH9smEy0PgyYZhmO8rsqQ2WzfbhsbuJxVVNY3RI9cBzspXFnIYHdReTVvE+o6+vBVb2T6rZwg5yyf4vW53s4WrKX5Ioi9jTlYTUH8N1007Z3F/UewJKBw+bH3RiZK+/D95mgnzNlJaQ3NVBRV4x3S30sRT584lP3ycFeanfsxF+xm6KGE6E21H6Q6vYCamxTpT96jBJ/KUW7D7HRGm7LB3dR2TZAbAuYzKyPHc1C+PruCbeFRPD1dNCys5Lhoh9w7SU/XGcO5VpJxEePu4WSylqmfGLY76V3XJU0Wf0ESaS/p3ckYJaUvZ3NS81ANvubssds33c8nw373AQHzrA3H0pLi9jdkIeVQW56XFQXVkcsSTDAmbIdJJZWUFDVxHZzgL6e0DZtMTa74Vm0J/dOnEU7PUG8zW9TlvY+NVXv0LN1B80PWaB20rYeqb+Nkh1QvKeAqqY9mPHR525nb/7B8Atcmbo9nqmkJG0/pbsbOGENXe+jR10YuyP+khFt7DYuK9PuS6IZaGFvSTL7d++m4QMr5kDomlburKQzCCZ79D51oK2SMtt+Sncf5sRuHz2uIxxpT2F/RmzpPtTf+Hgtej3z467OpyRYQfGeBvKsAfrcbVQfdFFRMRwFja2vmdjXTzVGm/o7fuqxB9Hr7FTpioiIzNAcwzC+neyXycnJ3L17d9qJmmzlfPD+ZlJuHmHTL2unXEQ9yZ5LUUEumTaDlEQY7PPi6Wihvr4FT2TgxJLKuqIitjvsGCmJmAOD+Pp66Wip52Cze0Iwy7TuEBfeWUNix16WF7bpL5uP2YIFC2ZUf2afCUfNBWos1bwxa/UgmW3HPiC7fQNbI142ZSs9RYPRyNrCtu94Ayaz71HUg+8ZkwnTmLeTm8ioOkddSj1Z+S0zn+UZ72MNMwpobXXizv8l1VEDa99fs9+3RO/DHm0ZPhlt0JRRxbn9sDerTH/clafAJG39Kafx2mxTPRMREYm0YMEC+vun/k58/vnn+eqrr0Z+fiQzaYOefaz9d/ti3n7A3cI+d8vUG/p7OVO9izPVMebjzC5Wnok5GyKxS8pkjeHF7Y5sdAZ2ewq94978LvJEMNkpb60h3VPPwaMd9PjNLM0sYLfDhKd+4h+5vjfHeio8gr4lah/2KFlItjnItiXi64jnTCMT6Q47pisHp56pKfK34LG39e8DjddmneqZiIjIrIjvcgci31cDLeSvHP+HBS+NOf8djXHJkMgUgm7q9x1hT3EBNe9XkGgOMNjXQ2f9Lg7M9uN5j/NYT4VH0LdE7cMeIZOd3Q0V2L3Hqax/BMt7xCyIe99aVsbt+CKP2eNu698LGq/NOtUzERGRWfFIljsQgSdpuQMREREREREREZFHb6bLHTzzKDMlIiIiIiIiIiIiIg+nIK2IiIiIiIiIiIhIHClIKyIiIiIiIiIiIhJHCtKKiIiIiIiIiIiIxJGCtCIiIiIiIiIiIiJxpCCtiIiIiIiIiIiISBwpSCsiIiIiIiIiIiISRwrSioiIiIiIiIiIiMSRgrQiIiIiIiIiIiIicaQgrYiIiIiIiIiIiEgcKUgrIiIiIiIiIiIiEkcPDdJ+8803jysfIiIiIiIiIiIiIt9bc+bMmXE89aFB2r/+9a8kJCTMKGERERERERERERGRp8UzzzzDgwcPZrbvw3557949TCbTjBIWEREREREREREReVr84Ac/4N69ezPa96FB2q+//po5c+bwwx/+kGee0fK1IiIiIiIiIiIiIsPmzJnDs88+S2JiIl999RWBQGBG6Uy5lsGdO3cwmUxYLBYSEhJ49tlnZ3Qgefo8ePCABQsWxDsbIiIiIiIiIiIij8Q333zDgwcPGBgYmPFSBxBDkBYgGAwyMDAw44OIiIiIiIiIiIiISHRaw0BEREREREREREQkjhSkFREREREREREREYkjBWlFRERERERERERE4khBWhEREREREREREZE4UpBWREREREREREREJI4UpBURERERERERERGJIwVpRUREREREREREROJIQVoRERERERERERGROFKQVkRERERERERERCSOFKQVERERERERERERiSMFaUVERERERERERETiSEFaERERERERERERkThSkFZEREREREREREQkjhSkFREREREREREREYkjBWlFRERERERERERE4khBWhEREREREREREZE4UpBWREREREREREREJI4UpBURERERERERERGJIwVpRUREREREREREROJIQVoRERERERERERGROFKQVkRERERERERERCSOFKQVERERERERERERiSMFaUVERERERERERETiSEFaERERERERERERkThSkFZEREREREREREQkjhJmJxkTm5p6qFkd8VFgkDt/+pjW3+6j5mLf7BzmqZDAa2+VsWnoOFXHrjM07rdLfvk2BS9dovbdi9x9pNl4nbfK1nLvvQOc8D7KA8XLMjaV/Zrl8yI+evA1d7yXOdt2muvfuXAXsHJHMSu871J7zvddExMRERERERERkb9hsxSkBQgQ+Pi3/GPZRwQAc+KPeX3LLn5z+HeY/2k9VX8Mzt6hRGbJv55t4LjHD0CCZTHLszax+dfQWHuaW/HNmoiIiIiIiIiIPCVmMUgLDN7hTzdvEgrH3uT6Hz8n5dUPydnyU377x4soTCtPlgcM3f+Su3fvhX68e5dzJy7ycvFyXnvhNLe+iG/u/jrvGf6c+yLB15/n2x+MNlVz5wA/bPmcZ7/+Jo65ExERERERERGR2TK7QdoJ/sQf/zTI//jiiyQCPiy8sqWc8vzVvPriIsyBz7n2URO/LWviD37A9Hfs+y//mR+f+y2f/7SQDa/CB7/+e35z0Rzbfh+U8aef7mLDq4sw37lG674STizaRXnhal590czgtQ/47c4yTtwMhYtNS39BedUusl7/MYsY5PNrH/Dbkn38/ub3KZw8H2PlerJWLmPx/ATu372N99Jp2rpucT+8xdwlK1j/5kqWLVqAJWGIO7c8nG87zae+4cUUErC+/ibO1TaWLEpg6I6Xix/emHCkBOtrZK1fg81YwNyhe/huXeN82zmu3w2ls2xTGZvnXsQ1ZGPVK1bud4Ue9Z9vrMK5fiXLFlt47usv+dfr5znR9gm+8Ws5PKHGnDf38Xk9Y84bhst4Fa8sXkjC/dtcd53ny4g0lvzybQpfusTBdy8ysvhBwjI279nKgnPvcPjSvQnHvZf/3xD8uwUTPg9kJMEcSPzdv87uiYqIiIiIiIiISFw84heHLeLFF80EBu8wCFj+oZzfla8mcKKMf/r5Cn7+60N8/vpvqClfhWlkHzM/3fALAk07+PmK9ez7OBjzfq9v+AV9v/1HVqxYT8nHieTU/R/U/cMf2fePK0j/+x18wAaqqnKwAvAKu+pqyAqcoOQfV7Di5ztoGsyipmYrSx9tocyiBJZk/ZqtKxP4tO0Ite/U8rvzt1jgeIu3VoaDe3NfY9Nbb7LkbhfH3n2H/1j7Hl1Dr7LpVyvD5QDzX9nMdufL3L90nHdramlou8GStatY8lzEoea/xubtTpbcOc+x2nd4p+EEl4ZeZfN2J8siQv3zlq1g2e2zHHnnAA0uH8x/nU1bVzH3sxO8+x/38R+PnOXuEie/crzwuAopZgnzl7DSuZIFty9zeXgW7fzX2Lx9Ey/f7+L4u7XUvnuCy0OvsrlwE6/MDW+zYAVb33qTJb7zHHu3htrfneX2K2tZsXi0AG9dusYd63KWR5x2wrLlLEvwcunaxAAtEDVAO/q757/j2YqIiIiIiIiIyJPi0c2kNaXwk61VFL4+yLkdHxMEgv9SxvqfJzLY5wstfdB3gqZzhWT99Ce8yEVuAhDgTx/so/zEH0fTimk/+PzcIRr+4AN8/L7pHLtyNvBxwzH+6AsCF2k6cY2t+a/wYxP4WMSLi+Dz35/j4vXQPk07fs6xoP8JWJbhOZ57dRv/Yf8kv74d/u/cV1i1Yi6e947RNbyA6qenOW5ZQvGKFbzQdY4v7n/K8Xe8JNy/F55Ze49LF2/geMtgydyL+O4vwLZqGXz6Hse7vKEXld3t4vjZJbz9a2PkkC+sXINx+0NqT3/KveF0jrex5O3NrHglgRufhmaVPrh9kRMXbzASdpy/iIUJ97jm8eK7NwT3PuX4u9dh6EmYRvscS51v8+/fDP3/c8/Bgy+vcfp3XQzHaF9YuYZX71/iPx2/FP7sLl3HT2Atfos1KxZw/eJdlqxcxdJ7XfynE5+MbHPxxEcYb+ewcPhQX1zism8Fy5e/wLnTXwBzeWX5MrjRxvXoMdqHilz+QEREREREREREvt9mMdJjxpxVR8/NutGPBv/EuX072Pcv/vAHQVj0U7Zu+Ql/9+MXWfTii/z4xz/G/LkZc0RKg313xqUdy36BCfsFAgECgeCYnzGH9wl+TFPTNX73mw+5+IuP+eTjP3DxX87xwR/8xN8DHtw8R0PbZ4wNZSawZM2vyVkU/nHREhbPW8iyt8qwjdlsHs8N3WUh8AUwlLCQZStXsmzxIhYuWMjCxVYsz93iuQSAxSxZBLe6bo051tCtz7jzYDhIO5fFixcxz3BSXLZ+TH4S5j2Hb+F84G7oo3tfjyyzAMAXl/joxnKchW/zstfLTe9nXPd8ivfudyqgWfOvHzVy4vLXoR/mLWTpirVkFRYw98hhLn4xl8VLFuC/dZ0xy9MO3eLGrSGWL1lCAvexLp6P/9aNsdvc8+L1PRgN0uLDc/k2jpUrWHL6FLfmvsJyY4gbx6+PLa8Yzfn6rzPYS0REREREREREnkSzGKQNEPj4EP+07yMCAIFBPr/ZR2TIc+mWJv5z+at8fu4D/uXi7/n9538isKqKw6sfnvJM93u4IH9s2MTfn/sJq1evYtVP/oFdv9vFrnMl/NOu39P3XZKeDfe/xOfzMX6+6byvh3gw8lMCPLhN13vNXBoXWx4auh8K/llXsqMwC8uty3huXOOSx8eXCSvYtnnso/QTK8JzY39MeMDX10/w7tlb47YbYujew6aC3uWTY+9wY8kylhkGLy9bzVbHWm6dbuC9S/GO1D5g6O6X+HzD+ffhu3WHhB3FrMowuHji9kP3Hmt8CU4s0bueT7iVtYrXjQS+XGDDuH+N925MPqPY9Me7ky55YPok3mUnIiIiIiIiIiKzZXafmR78nGvXr0+yXICVn/7ip3BuJ/+061/C25hY9YtFY2bRzt5+U7Gw9O9+TODaH/h90x/4fRNYftHA/1mTT5b19zT5pk4h7u54uYONxdYh7t4aDZTOfWEZi4du4b0H1leXs/jeJRreOz0y0zPhlVXMHYnB3ubWHVj1qkHCpzdGgsJzDYPFzw3Pj73P7dt3mffyEix3P2U0TLsAY9lCvnxYkDZhPi9YE/Ddus4nt67zycXToZdorViB9dI5nrxivof/HiQkzAXuc/vWXSyvvsILeEdnyiYsYdmSBHyXbjPEfW7fvofl5WUs4cZo2cxfyjLrc/BZZNIeLnmzWL/8NXwLDO5eO4v3ITmZ3/T/ci8fHqRa+HbesyOfm7sG+OHxz2fzpEVEREREREREJI4e48KWg3z++SCJP93E1lWf89HnZn68upDfZCXC+NUNZmW/KVg3UP67cl48V0ZZw8d8bv4xGza9jvnOR/xp8Duk+zjdv47r0hoK1m/lzaHTXLrlJ2HxCtY7V7Lw2nvUnvJy786XDC1YyorXlnDxlp+5i22sWbuMeSPhxLtcvnidVZudbF3VxlnPHVhkY+0aY8yhvrj4EZ8td7J5613azl/jztBCjNVOnK/4Of1uI5NNik0w1vLrrQbe08c5e+1LWLiMFUvn8/WdW8xgKdZZ9hwJcxeyYEG4GSRYWPzyKtYuG8J7IhQ+/aLrPNeWb+JXm318eP4z7iQs4tU1TpYnXOf4Jd/INp8td7Jps4+285/xZcJiVqxfyaIhxi1lcJ/rl27g3LweBz4uto1ZIGGCZ7/+hufrHxbGFRERERERERGRvwWPMUgb5OK+Hfy2porCwx9SziB/+vgYTR+8SPlPH8V+U/C9T8nOFGp+8xt+918WYQ4M8qdPzlG2o4yL8X9zWIyGuHX6CO/dXU/W2rdYsXAe+O/g9RznyLnQS8CGrp/gmGsT69cXUGIB/+3rXOz6lMVvjj5Gf//6CY6ceBPnms0Urk1g6M4NXG1nGdq6dvRQ9z7hWMMQWevXsKkwCwtDfHn7Bufea5s0QAswdONDjp128uaqtyh2zoOvv+T29dMc+XBma7HOtpfWFlIycpoP8N+5xY3TR/jw03Du7n3K8SPw5vo1bPpnJ3Px4/N6ON5wjuvDJ3D3E44deQ6ncxVb/9lJwv3bXHe1cZG3WDHueEM3LnP9vo3XvnThefKmEYuIiIiIiIiISBzMMQzj23hnQuSpkWDwy+K3WHTxHRovxX8usYiIiIiIiIiIPH7PP/88X3311cjPj3EmrcjTbC4LrItYvCILW8J1TngUoBURERERERERkRAFaUUeh/k2Nv3zmyy+5+XS8bbRpRJEREREREREROSpp+UORERERERERERERB6j8csdPBPHvIiIiIiIiIiIiIg89RSkFREREREREREREYkjBWlFRERERERERERE4khBWhEREREREREREZE4UpBWREREREREREREJI4UpBURERERERERERGJIwVpRUREREREREREROJIQVoRERERERERERGROEqYjUR2LfvBbCTzRDl04y/xzoKIiIiIiIiIiIg8BWYnSPvy/NlI5omiIK2IiIiIiIiIiIg8DlruQERERERERERERCSOZmUm7dIP/7/ZSEZERERERERERETkqaOZtCIiIiIiIiIiIiJxpCCtiIiIiIiIiIiISBwpSCsiIiIiIiIiIiISRwrSioiIiIiIiIiIiMSRgrQiIiIiIiIiIiIicaQgrYiIiIiIiIiIiEgcKUgrIiIiIiIiIiIiEkcK0oqIiIiIiIiIiIjEkYK0IiIiIiIiIiIiInGkIK2IiIiIiIiIiIhIHClIKyIiIiIiIiIiIhJHCtKKiIiIiIiIiIiIxJGCtCIiIiIiIiIiIiJxlDC7qS1g2Yo1rFqxjMULLCQM+bl76xqXLrro8t6b1UPNrgRee+s/8KuXx376wH8br+c8beeuc3coPjkTERERERERERGRv23PLly48N/PSkoJL7CqoJAc+0ssNAW5e/vfuPethf/qpf+WtOX/Pcb9a3x66y98MysHm23P8F//3f/Av0uCL296uHHr3/i3gT/zXNJLvLTUhi3pNv/3/+NDcVoRERERERERERH5rubOnUsgEBj5edZm0r7g+BVrX5rHg9udHPvdaW6EJ87OX/ZLtm/9CUuzfsXKz97lom+2jvgoPOB21wmOXw+HY60r2fHP63nplVUsn3+drid5MrCIiIiIiIiIiIh8L81OkDZhGRnLFwF36GodDdAC3LtxihOXXqYwYzErVi7h4qlbsGwzZb+2Me+z/53/9b1PQzNU566goNzJUv8fOHLgFF6AuUtYuT6LFa8sYVEC+O96ufbRWc598gX3YSQdrn3IuaHlZL1i5c7p/41PXvufcC4dwtN8YDTg+kIWxf/zahZ92UnDO6e5Fct5+a5x3beelxYvZPEi4B7MXbKC9VkreWXJIubxNV/6vHjOfsi5G3eBBazcUcL6l27T2XaTxatWsDThU44cOIE3YQGvONazZrnBYksCX/vvcvtGFx9+eIkv7o+ey5CnjbNDr7PmtcXMH7qH99IJ2jyLWONcxWuLF8K9f+Xyh8c5df1uKI9zl7DS+SYrly1m4bznQks0XA4v0TArF1dEREREREREREQepdl5cdiCxSy2AF/e5PoXE39964YXP7Bw8RLmx5pmwhLeLCxg/fJFfH3jEh91XeLW0BJ+krOdrSsWjNl03rIsspZ8zY1PP+XTO19x7bKXB8xjmc0YiUJbX36ZRcAdz+XYArQAWJg/F2CIB0PAghVsLXCyfAncuvwRZy/d4P6CV1m9dRurrJH7WVmRZWPenetc9nyGnwSMN7ezbfWrzP/yOh+d7cJzJ4Gly51sd77C3MgjvuJg9QIf1y57uZewkJdXb+Wff72KBb5rXL5xm6GFL/GTzU5enw8wn9c3v8V622KGvF18+OFZLn85n5dXb2bb2AyJiIiIiIiIiIjIE2p2ZtLOmx8KNN6/y9fRfu//mvuAJbxdLKsGzH/NwYpFz3H7owYaXeE1Erpusbn4V7y6aiUvXDrNSDz43mWO1Z7CO7xo7NzL3Pj6ZV41bBgJN7gxtIBXbYuB21y+HCWKHE3CAoyVWSxfCPi9fHobSPiMc8eamX/fy/Vb9wG4lWCw/SeLWbZ0/pilHG6da6Dx0vBc1gTuXzpBsxduX/eGXkJ2+S6L/hcnS41lLOZ6aOYwgK+L5saL+IBPh96mMGMh96+9R+OpW8ACfDtKWP/SYpYugk/uLWTxonnAba6dd9H1xRBcusanhoWhO1qbQURERERERERE5PtgdoK0X///7N19cNVlnuf9d8cTkkgSEjqn4JiHMqECJiuRxDW4UWHGB6gCHe4RpmHangZbenS2e6Z1VyzvLq3pXnW2S5xu7bV3cVtHnW1tmTK9iy3MTWzsJdpZiGXAYCfCKRLvJHjgPpEck+DJwzHefyRAwrMCHh/eryrLnN/5PVznWObK9fldv+/VP1p+ID2HjBO9n5UxGuLG+8948a1gSYhUIDT/b/nx/GPeDOQSDHA0pI220zn+xAOtNLXHKS8vpawQwj3llIWAjiaaT1kTN5Xyb/2Yh8ZvGo6yvXbzaACciBHtCREqX8DyeUFycnMJhrJGmxQY/1XGiHSMLzaQoL87Sn+wgpolNQRzcskN5hEECKRO/I/Q13OkTEFf/2gQ3NfdN7aln/jA4e8AIMKu5gjV80PM/9t7qYhEiHR0Em5tpCk2gCRJkiRJkqTPv3MT0sYiRPoglFtCWR50dgeYXrOcxWUJdm3cQKSsmCygJ9L5ieukdmx9kk2tx0a7caKnTHsThBvD9JVXMHN2ITn7ZxNimLYdzae9fs+eJtr7hxkehoHuTsItu2iPjV4svWw53/9WBbnxCHta22hvamJX8XUsLs89zVmnM++21SwsCtDT0cqe9mZamzKpXHYVRac58tQSdNat49HwbCrKZlJcGKK4aj7lc2uo+cNTPL6p84xDcUmSJEmSJEnJcW5C2kSYxuYoVVcFqVmxiPAzm2hvaiRWs4olqwrpSc+F4QiNDWPVYBPx0fAwN0QOu+gGAoWFozNLx0Q7owxXZZGbm060s3V0pm5gOpU1M8noaSd6msKyifZGwn0VVM2s4bpQiNThdppaTlcCYJhI4wZqjwuFRxVWlJJLnOb161ik/bGJAAAgAElEQVQfTgABSgsXnv77yZlJRVEGRDbz5BP1o0FxzjwqT3/kqQVyKC4rJhiI0bRpPfVAoPDPuPOOuQTLZxPa1PkJ6u9KkiRJkiRJSoZzE9ICnXW1bC5cycKiq1h9dwWRSA8EhiErl1zidGx8kYbDpQYiYdrjc6kI1rD69lzCsXQKCwsnNKa/6VWaakqYW7GcO9KbaIkkyJ1ZRUUog57tT9K46zQNSrTT2NJD1dwKqnIhvqeJ1rMs09rX0w8EKb52ETW5+wlMr6S6LP20xzHQQ08cQnlVLF4wQLg/h9LqakJn1xxIpFN63RLmBxNUz2ykuROCZeXkAn2d7UTP9vySJEmSJEmSzruUc3amRCf1Tz3OrzY30xaDnFARofQBopEe4gRIzRy370ArG57bzJ5ogvSiMspC0LShjvbh8edr56Unn2Rzc4RAYRXz519FaXqMlq3P8ORL7Wf0GH9nYws9AMRpbxybjXsW9r/6AhuaOyA0l8WLFlCV28qWxlMWuR01sIsN67eyJ5ZJ6fwlLJpXzMDWV2k94Sprn6hF1D3zHFtbYqSX1rBwcQ1lwX72/OEFnqw9+88rSZIkSZIk6fz7WnFx8cfn9xI5VK78Pstm9vOHJx9nU/tnWCU1p4bb1yymqK+ZZx5ZT9gCrZIkSZIkSZKSbMqUKXzwwQdHXp+zcgcnF2PHsw+y4/xfaJxCqpfWUFZYShEQbW4woJUkSZIkSZL0ufQZhLRJML2M6tkVhOijo+lFautcPkuSJEmSJEnS59NnUO5AkiRJkiRJknTYseUOzt3CYZIkSZIkSZKkT8yQVpIkSZIkSZKSyJBWkiRJkiRJkpLIkFaSJEmSJEmSksiQVpIkSZIkSZKSyJBWkiRJkiRJkpLIkFaSJEmSJEmSksiQVpIkSZIkSZKSyJBWkiRJkiRJkpLIkFaSJEmSJEmSksiQVpIkSZIkSZKSKDBlypRkt0GSJEmSJEmSvrICH3zwQbLbcE5NmTKFL9tnkiR9tdm3SZK+TOzXJH2VfFF/531R2/1FcuzEWcsdSJIkSZIkSVISGdJKkiRJkiRJUhIZ0kqSJEmSJElSEhnSSpIkSZIkSVISGdJKkiRJkiRJUhIZ0kqSJEmSJElSEhnSSpIkSZIkSVISGdJKkiRJkiRJUhIZ0kqSJEmSJElSEhnSSpIkSZIkSVISGdJKkiRJkiRJUhIZ0kqSJEmSJElSEhnSSpIkSZIkSdJJ5TFn6R3ccWMZWefpCoHzdN4viACzV/6YFTOHafnVgzzXmhjbnkf1bXewpCSDvj0vsu7ZHVBzO2sWF534NHte4O+f62fRnauZmxtnzwuP8uyu/nE75DHv9u+zsAgimx/n8fru8/3BJElfSZlUrrybZTNTiWxey+P1sYlv59Rw+5rFFA13sPHRJ2iIjR5TfdvdLClJheE2NjzyFI3ju7CT9pXjTF/EnX97FcHIZn72eD3je7lA2S3c961yUve8wN8/u4vE4X1P1Px4E888WEv4LL8FSdKXyeF+aPy2YeI9EdpbGtny6g72DxzeXsrS+1ZRlXGi80T5w395lE37R1+lF1az4NpqygvzyMqAvmiE9qZX2VwfZkLvGcihtPo65lWXEsrJIpDoIxYJ01i/hYbw4T1PdN1h+qKdhBvq2NjYyQCcoL88+XEtWzewaUc3CYpZeu9qqk6VCIydLzE2Zu3Zvo5HXuo8+n5mMdXXzqN6ZiF5mQESAzEi7U00bG6gNXa4Xz/a33dsfpwnJoxZz+BvAUk6YhJLn36HtfMnbh3s7aKlbh0PPPA8O/vO9Fwl3PHy77invIvnbr6e+/cu4/m3HuTK3t9ye/UPeGXo07XlsB0PX8/SdW0nfjPvVp5vvJ8roy+y6pp7qC9YxoNr76F8cB69W7/J82f8Gc7cVzykPZF0SpeuYklJBsORrTz33A5iQM7Yu8PRPbRGBiYckWiPkUh0UrexhfJvlTNz4bUUt75E+1jflT57IfOKUqFnOxsaDGglSedLP63N7QzPnEmorIKc+voJA82c8tkUAcOdO2g+/EZmObMLU0d/Ti2ksiKHxoZjwt3zIR6hJRxl/DAvEW+j5/xfWZL0BdXX0UJnPwQCmeQWhii/ahml5SWsX1dL64QbjH10NLdPDFsTPbSPDeMCxX/GHSvnEkyNE21rpzMRIFhYQsXCVRSHfsWj61tHQ9XAdObdtpqFRRkw3Ee0u4NEepC8kioWl5RRumEdzzZ2n/i66TkUF5dQteQ28gKP88Qpx4HjjwtSPLOEucvuIJfHeXZHH3uamwhkjQ7d00NlzAym0hdpoT062osmIhEGOMngPq+alauXMDMLiPcQifQRyA1RUrGQktIKtj67jrrO8b1xKkXXLmXenieo33+a/yCSdBpd237Ltq5BSAtSfuV8Kpc9yDPZg1x/Ry2fdTrWteO37Og6ZltL75mfoO1FHrgvi8rBV/htH0Aet9Y2cn9llBdXXcM99adNjE/LkHaCAHk1t7C8Khf6Wqh9po7OY24S9re9yvrxdyXHGWjdyKttpSwpqWJBdcNoRxwo5NqF5WTQR/PG488nSdK5NNDaRPvwTGYWlVGeU8/RvDWT8tkhYJjOphYOj2VzKiopTIV4NArBIEWzy8lpaOC8x7SxZjavr//M/ziTJH1RDdNZv/7oLM5ADrOXrmZFRRVLl7TwyHNjwSoAUXZsWE/jwInOk87seVUEU4dp2/A4TzWO9XiZs7nl+ysor5hHxcZWGvth+rUrWFiUwXBkO8898xLhfoAAOWVLWLW8ipmLllDdMv4JlInXTS9dzp2rKiiqqaGw4SVOPIo8/rjMypXcuWwmM+dXM31HHbs21bJrbM/CRXczM5hLT9NG1h9zUzWHY+VQs3QRM7Ogp/kFnqzdxejE2XSKF6zklvlFzF++iNZHX5o4Tk0t4tplC9izro79jl8lfWqDtDy/hnteHgsvy9bw8sa/oXz+jczPqqX2PMxEPWVbnl7DD14+myC1m+3Pr2X7OWvT8axJO05m6RJWLS4hI97B5mfWM6FiwRmJ0bixgSipFF27kNnpkFO9iOpcGG57lc2tJ/wrQZKkc2cgTFM4DhQxu3zccC2znNmhVBhup+nIdKMcymcXkUqc8ObNtPYBRVVU5CWh3ZIkfRKJGLs2bKYlDhmlNVRknumBAVLTUw+f5Ojm/l2sf/QBHnjgWZr6gUApV1UFgSgNLx4OaEePibVuYGNjGx0RyAmefN7TQPseIgCZueR8gulR/a3No4FuTpBTnP70ptdQXZQKfU3UHgloAQZor1tPfQTIraCmdOJF+vr6SA3VsOzaQmd1SZ8D+fn5rFq1iuuvv37C9qysLG6++WZuvvlmsrIm1kS54YYbWLVqFfn5+Z9lU0+tq43o4NjPg0DWN3m+rY22nY9xw6TDO5Wx5pU22tpeYU3ZmZw0i7lratnZ1sbO2jXM/dTFYidRcuN9PP3KdlrbWtn5ytOsuTKPtAmXGtfezLk8XN/I/ZUAQZY98w5tr9zHnE97+TGGtGMChTXcsryKXHporn2O+k97y3D/q2xs6oGMchYuWcTieUWkDkdo2Nh4/mclSZLEAK1N7cRhdFbs2NbM8tmMZrRNHLlnmFNBVREQD9McDtMc7gNCVJSb0kqSvgAGwoQjQGqQwhMWOz+RfvbsaCNOKiVL7uTOlUtZUD2b4rx0EgMDDAwMjEa3OSFCWUBPG63HPfafILzpKZ544inq2k8+bgwUlozWYB/oof+TDC/Ts0YXpUkkSJzFTNb0ohBBIN7ecoInOmPs2RMFMggVj+/3h+ncvIGmnlRCNUtZUGhMKyVTWVkZGzdu5C/+4i/4x3/8Rx5++GFgNKD99a9/zV133cVdd93Fr3/96yNB7dq1a3nkkUf4i7/4CzZu3EhZ2RmlnedFWnYB+fn55JfN5ZsP3sGVaYPsffFp6s6+MgAwibJbn+CJv6kkbe9zrLl9Lds/5ezcSXPv54mff4f5M2Bv3W+pa0njpvtvofxkBwx18fLT/8TWLoBeWl78bzz89Ct0nWz/M+RvXABSmTl/4djPASbcUT1G7tw7eGju+C3HFk9PEN68mT1lK5hZcRW5QE/TRl61no8k6TOSCDcRjpdTUTSb8pwGGmKZlM8uJJU4LU3hI4+D5lVUEALi7c2EEwlobideVUGoqorp9XWc164rtJC7Hlo4YdNxC51IknRKCeIDw0A66enjh7YlLLn/IZaM33Xc4paxxmd5cngRi6+roGRmFfNnVjGfYfo6mthYu4ld3QnIyCQdYCBG/IzbE6RyyVIKExBIz6OwtIhchok0NdJ+hmcIZBZStbhmrH9uOePjTuTwdzIQ7z/hCHegf/STpWccs9LaQJiNG5ooXlXFVUsXsOvxurNohaSzceedd/LKK6+wZs0a8vPzee2113jsscdYsGABU6ZM4ZprrgHgtddeY8GCBbS0tLB06VKuueYa9u3bx9q1a/nOd77DmjVrktD6NOY/+DteO/J6kK6t/8R9j9VzLiodBG/6OffffyXZXXWsWXU/r5yyjloaC37+Dm0/H79tGw9Uf5Onu7NYcOtNzABa/tsqbl7byhCQ/83n2fjglRNn0x6xj/qn1zHjxu8wv2CQlpcfY501ac+lPtqao4QqSqhYspSWzudOWO7guIXDEnH29BxbuHYXG1+toXhxEanxFjZvbj9F7CtJ0jmWCNMcjlNRMVryoKF55ujiYPEwTUem0eZRVRUC4rQ3j/VT7c2E4xVUBMupml53ZAXs8+K4hcMS9LV/poWpJElfeOlkpKcCfQwMjB9xHb9w2OHFtcZesX/HSzy14yXScwopnjmbiuoKKormsmJ1BolH19Ma7x/dPz2HYyLMU8iiqKKKoiOv43RsfY7n6k7XoR4fKg/3NLNh4y7OpmDe4e8kPSPzhFOR0jNHP9lA/PgYeiC8gdrtxayeexXLF4WpP4t2SDo/Pv7442Q34TQG2fFPa3h6J0Aawbnf5I5b/oZf/6aAv7v5B7w8eLrjTyF7AfevTSONXuoeXkPtvtMfcvzCYa3sHQQoYM6MbGAv217Zy+GodV/dK+x98Eoqz6KZn5Qh7ZjoH57j2U09lAW+z4rycpYsraTz2R3HlSg41cJh43V3RuiniNxoO52fuLatJElnI0G4KUxfRQWh2eUUJspGFwdrbSJ8eIQ2vYryIEAG5Svu56EV448PUl5VyKZNZzirNZEYHfidYCAbSE8HYPjY5zVdOEySdLbSiykNAcNR2iLj3zjVwmE5FJaFyExEaQ93MxDrpLWxk9bGBiLfX8PCUCkVhdDaHiHSB6HcEsqmQ+eEnDVA8bzlzCuG9vr11B+Z7trGhgeeonEgk9kr72TFzAwyiHP64WAfbU1hYsPDDJMg1hmmeVd4XA3ZT2egI0KUEoKF5RQGWplYmSGHmcVBIE60/US9cYL2TbVsL1nN3LlLudb7qFJSPProo7zwwguUlZVRUFBAbW0t+/bt48UXX2TZsmXU14/eQunt7aWuro6+vj5qa2vZuHEjXV1dFBYWsmLFitNc5fyJ7qzj5cOLdb1cR2/Ba6ydv4Bbb8rn5RfP5sxpDHZFoSDI/B/cw9yt95+m1MGZLByWNnHW7Imn0J5X1qQFYJhoe4QE/eyq3UBzH2TMXMzS6uPXx5Qk6Ysg0d5EuA9Si6pZUlNIKn2Em8IczWjLR+vURVrYvn370X+aI8SB3PJKCs/0YrF2In1AbgXXVucdvQOcXsyC+YWkMkykPeJTJZKkcyeQR+XShZRnQF9rA2e+RnOQmqXf4lurvsW14+utpucSHK1vQHwASIRpbI6O7r9sEcXjFibLLF3EkmvLmVkcoC96ot6tn10b64kMQ7B6MdWnXdQsyq6NtdS+9BIvvbSJ+h1nH9ACsL+Bxo5hyJ3NkiVlHB3dplM4bznzioCeZhrCJ7lYop1NtX8gShZZn3oxHklno7W1lUWLFlFbW8uaNWuOlC3o6+tjxYoVPPbYYzz22GOsWLGCvr7RlPLwfrW1tSxatIjW1tZkfoRxsklLSwPSRv892EvvIJBWQMHhuuL5lWMTSU6jt477Fv8lD2zrJW3GLax98AY+/aoaXezc2wsUcOWN5Rxewyx/wQ0nr0l72NnMBj4BZ9Iea6CVDbXNFK6qoGTRcmranqBh3I3FzJJrWb584l8Aic5GNjRY0kCS9DmSaKcp3EdVVZBQEOjbRdORKTSFVJWPzp4Jb17PS+MHZ4FiUotXU5U7k8pi6DwyO2h0AZHlFeOvEaFpYz3hgTBbNrdQuqycmUu+z701ESLxVHJDIXJTYTjyBzY1HvNsSk4FC5eHJvSdiXg7f3ip8fzWwpUkfUGlUjjvFm6pGn1KIxgqIjcDhqNNbNjYekxZgCCVS5ZTPH5Too+WLZvYFQuztT5C2cIQV91xLzPbOokOBMgtLCSUBcMdDTSMPUjSWVfL1sKVzC+6itV3VxCN9BDPyCUUzCKVPvZs2MiOk02T7W5kc2sNqypKuHZhKU214SSMF2M01G6idPUSZlZ9iztLo0R64qRmhQiNdtD8obaOU6x9RqKzjtqtM7ltfpDUz67hksbZt28fTz/99HHbD8+aPZFXXnnlfDfrDKRRfutaHrth9OfgjEoqy9NgcAcv17XB0CD1OwZZcGUl9/z6eeZs66XgykpmnNEM1kEGB9t4fs0DzPvNWhbc9CBr61u49aR1D8a35aiulx9m7Sv7qHv6t+xdcAszvvMMv5lRR8vgDK6snMEgp5pQ20tXtBcIsuD+J0ire5r71p5dvV1D2hMYCG9gQ1Mhq6qKWLB0Hm1P1B/p9FODM6k4NtXPbGejIa0k6XMlQXtTCz1Vc8kF+sJNRwdhhZWU5wJ9reOC28OHtdPY0kPV3FzKq4rZ1H605EFuSQW5E3YOEtlST3gAYjue4/H+eSycV0VpKERJEOI9HbS0NLLl1R3sP7aTzAhRXhGauG04QMumxuP3lSQJyCqaOTaraXi0j2lqYMuru9h/3CzaLIoqKsbVhgXoId60iV0x2F//JOv6rmXhVeUUFs4kmDpMvKebPX/4A5tf3XG0FE+ik7qn1tFZcx01VcWEQkXkJPqItTXRVL+F+vCxxfHGGyC8+VXaypZQMnshNVuTVNe1u5FnH49Sc+08qsoLCRXlkOiL0dHcQv2WV2ntPl2nm6Dz1RdomHkH80On2VWSjlFQeRMFh4u6DvbSteO3PP/wA6xrA9jH82vWUPbze1hWeSUL5rew9ekH2HbDz/mbMy0Eu6+W++6bS/kTy5h//8+5teUvebr1xCUNJrRlzN6udax9ZR9D2x/g9r8b5MEfLKNy/k0UdG3jufseo/KJ+7nypBcf4pWH7+O54D3cdOV8FizYy/OP1bP9LNYP+1pxcfHnvdLwJzJlyhQ++OCDZDdDkqRzxr5NkvRlYr8m6avki/o774va7i+SY79ja9JKkiRJkiRJUhIZ0kqSJEmSJElSEhnSSpIkSZIkSVISGdJKkiRJkiRJUhIZ0kqSJEmSJElSEhnSSpIkSZIkSVISGdJKkiRJkiRJUhIZ0kqSJEmSJElSEhnSSpIkSZIkSVISGdJKkiRJkiRJUhIZ0kqSJEmSJElSEhnSSpIkSZIkSVISGdJKkiRJkiRJUhIZ0kqSJEmSJElSEn1tzpw5Hye7EZIkSZIkSZL0VfLBBx8c+Tkw/sWXwZQpU/iyfSZJ0lebfZsk6cvEfk2SpNH+cDzLHUiSJEmSJElSEhnSSpIkSZIkSVISGdJKkiRJkiRJUhIZ0kqSJEmSJElSEhnSSpIkSZIkSVISGdJKkiRJkiRJUhIZ0kqSJEmSJElSEhnSSpIkSZIkSVISGdJKkiRJkiRJUhIZ0kqSJEmSJElSEhnSSpIkSZIkSVISGdJKkiRJkiRJUhIFkt2Az4WsWcyrCdL1+uu0HTq6edK0CmrmTCO+extvvNvHSPJaKEnSGcu4+N8xb8Yh3vx9M93HdV6TKbl6PsW92/h988FT922TLubf/WkRB1+vZ/ehU+0oSdJ5ljWLedfMIPPIho8YHozTG+0g/M67HBxKYtsOyylj3hXTiO2op/n4DvjMBfKouLqSnANvUN8aO3ftkyR9rhnSnkRKziyq54RIvLudNw1oJUlfIPH39hGbNYuCqSl0HztInDyNi7I/ZP/bpwloJUn63OmnfdsbvBsHCJCWnUt+SSlXXhPk7W1v0JHsG4ofRjlwAHoPfZIedjIlV1/NRe+9zuuHZwwlDhE9cIDB6IfnpZmSpM8nyx2cQMrkIq644mJSIm/SuDtGItkNkiTpkxjaT9fBFIIFweM6+qyCArL7D9DhxBxJ0hfNRyMMDsaJx+PE433EDnTwx//TwNv9OZRdWkRGsts31M3u5lYi8bM9UZxIazO7uz8P04MlSZ8VZ9Iea9I0Kq4oI/P9Zhqau5nQLQayyJ9VzoyLcshIGWGw9306dr9N28EhmJTP3D8tZ3DnFnYeOHrndPSR017e+P0fOeiUJUnSZ2KIA11Ryi/NJxg4wIEjdxuzuGhaJv0H3qQPgAzyZpVxSejrTL4wlZEPe4i+u5u33z14whuUKaEruKH8Q97Y8kcOHjllGX9Sk03b77fTMQQwiakXlzPr4iDZaSkk4r1E322lpcObnpKk8yFOx+73KKkpIjS540j5uoy8WZRdUsDXJwcgEad3/17ebt3HkUmuGXnMurScgqmZpDHMh7EuWptbOXA4YB039stMGeHD3ijvtr7Nu7HR3iyv4joqA+3sHrmI0mmTGQy/zutdwQllgvIqrqMy5R12xAu4tCiHC1MS9B98j3DLbiKHRiCQzxULLiMIkD2fRZd8SHvD/6Y1lsWseTXkvPt7to92rqRMDjGrvJSLpmYQGElw6P0uwq1hDsRHP1BK6ApumPUhb4cvoKh0GtkXppDoPUD4rWY6+hyIStIXgSHteKlTKbt8DsF4Kw07I0y8AZpB0eVXUjqyl7e3NdOTSCE7VM5lV1ST2vA6u/sO0BEt59L8IIEDB8YGopMJFWQz+N7bBrSSpM9U4sA+opdWkB8McCAyFo/mFBDK6KVj7HnQrFlXcHnBIO++1UBjbJjUnBlUXn45l8Yn3nA8cylkzarm8lA/4bcb2Nk7QiC3iEsrruByXmd7x1lPLZIk6Xi93cSGC8jJTIFDIwTyKphbmc3Blh00RPsZuTBIyaXlXDlnhNeaIgyRwcVzLqdgcDc76rvo/SiDiy6tpqLiEFu3dzA0Nvablfoeb7/RzPsfBsgtvpSKuZczUr+d0e4shdRgEdPCb7OtJcZgIgGB4DENSyE1eAml773NG1sOcChlMqHyy6m4IpXh15vpTuzjjf8nRknN1VwUbaAh3MfIibrfSSHmXFlB5vut7Hg9SpwMps2qYM7cDN58fSfdh++CXngRxV9v4a3X36aPyRRVVHNpZSk99bvHbs5Kkj7PLHdw2AUZFM25nOLMC2Dko+M6x5SppZRmRnnrzTYO9MUZih+iu20HLdEMCoqmAgkO7IvC14sIHo6+JxdQMPkQkQ67REnSZ2wkSteBEb5eEDxyRzYnNI203q4jj2H27X6dLVvfYHf3IYYSQxzq3ktHLIWcqdmf7pqBaZQWBejauZN3uw8RH4rTd2A3b4b7ybm4iMnn5INJknSMkWGGRyA1kAJM4qIZIRLhN2ned5BDQ0PEY/v441sdDAeLmD4JIIPsC+HD7vc4GE+QGOqjo+n3bNnewRBjY7+cfsJv/pFILM7QUB8Hdr/Jm28fYDDl6BD6o1gbb7V1c2goQeJk9zaH99PaemB0Bm/iEJG336brghAzLpo01vbD+42cOKAFsopLmT78Ljt2dnDwUJz4oYO8u7OZLqZRWjCuyMNH77O3ZR99iRFI9NERfo8PM6aSO+lsvlxJ0mfFmbRHpHIh77Gj4SAFV1zK5SW9NLQdXTAsLXsyaWnZVF53w4SjUlJSueBgBgEgEe3gwMgVFEwLENmXIKtgGhm9HckvYC9J+goa4WBXlJErCpgWiLAvkUP+tDRibe9NeFIkNTtEQTCHnMkXknHhZLKzLyDR/ykvmZlDduqFBK+4gYLx21NSuWAkTgZglyhJOudSUkkLwHBiBMhhavYFZOdczQ2lE3Yi9YJBJl8IDMVo3xvjykv/lD/Jj3Lw4EGiB97jQGy0tEBa9mQC8YNEJzwAMsTBfe9OvO7w4GlL+XzUe5De8eHrSIyDvXBRTiZ0HDzpcUcFyM7OYDAWnTgbdiRGd2yEgqnZpLw71tDEIIPjG5QYJMEFBC44g8tIkpLOkPaID/l/dzYTiY3wfvNUrplzOWWx1/njwbFeLuUCPvqwix3bw/R+dMyhI4nRznnkIB37B5lbcBGT9vVSEMo4bjAsSdJnZeRgB/sH51IwbRKReD7TUw/yznuHq60HyKu4msuDgxx4L0I0coB4/yDZ5TXMOJuLftRDeNubdA0e1xpr0kqSzouUnDyyOUTHkTT0I6Ktr/PW/mMHbjAyBDBC37vb2XIgh2BwKnlTpzFr7ixmRXbS0HwAOIep5nGnSiGFoxNoJUk6zHIHh32UID482lUOHXibHV0jFFRWEBp7NGQw1ksiLZtMhhgaOvxPgtTMbNLGfYuxjgjxnHwuCuUzLfUgHe+5IqckKVlidByIk1NwEaGC6aS83zVuEbEcCqalEW3Zzs7Wd9kX6eZg3wgpqacYmI4MQ0oaqeP6vcCFGRw5pD9G70gmX88cGddXDjGSlklmqgNSSdJ5kDKZotKLSIt1jJXzOUSsH7JzJpMY1xcNkUb2hReM9UUpZGRNJhCPcaCjjT/u3E79zgOkhi5megAGe3tJZEwlmDH+QpOYmn8x0yZ/siH0BdnTmDr+kMDXCeZAf+zwYyun6x0T9PbGScsJkjXhc+eQl5PCoViv/askfUkY0p5QgoOtO3h3MMillRczGRg5uJe9vZmUXl5B/tTJZGRMZrYOEx8AACAASURBVOrFc7jiisuYkTvua+zroutQNqWXXkRqtGPcYFiSpM9eX8cB4jmzuDSUQnTfgXGzWeP0xiG3oIipkzPImJxD6N9UUHyKwrEjPQeJpQSZdWmIrIwMsvJKqJj19aN/TCQO0NYxyNRLr6AslEPG2D6V1VdQcXG2f3RIks7OBSmkpWWQkZFBxuQspk67mIq5NZRnxni7uWPsCcY4XeEIH4Uu4/KSaWRlZJCRE6Ls8iu5/NLQaH30wDTKrrya6n8TIitjEpMmT6UgP4eUwX56R8aP/f4N+TkZZGRkMW3W5VxePo20kxWOPZmUr3PJnItH+9qsPEoqL2XacIS9RybzDDM4CJOnFTAtZzKTTtBZ9rWH2Z96MZVzio6c5+I5FRRwgHdclFOSvjQsd3AyI33sfrOVnKvLqJwVo2F3jHff2MbwrHJmVF7NZWkw3B/jvbe30TohiT1EpKuX0vILiXREvaspSUquQx10HZrBJWkRuqLje6VDvLujmYxLZ3H51eWkjPRzsCNMeyyb4pOda6iD5uYs5pRXcE3BCB++/x67w++RXZE5tsMIsd3beGOwnFmzrmDehakw2M/B93ayffdB+0RJ0lnKpPjKPx3rpz5i+MNDxKK7aXizg9i4BxgT3c1sf3MWZaVlXFl6IakM0hvdyxtvt43WdU1EaH4zg4rycmr+NI0LPhqk/+B7NL+xm9gIwCHefWMbI+XllF4xjwtTRxjsjbL3zbf5pJnoR++HaTmYx6U1s8hMGaH/YBc7t++m+8gQMkGk5W2ClZcwZ24BXW9s4Y/HlqodirBzG8wqL6Xy6ksJMMihaBc7t4fHnUeS9EX3teLi4o+T3YhzacqUKXzwwQdJbcOkorn8aUkv2/93K7GktkSS9GXweejbJEk6V74q/VpexQ1cHmjmlaYD3qiUJB3n2P7QmbTnUiCDrOwgpSU5HOp424BWkiRJkiRJ0mkZ0p5DU2fN5YqCCzgUaebNtkPJbo4kSZIkSZKkLwBD2nPo4B//N5v/mOxWSJIkSZKSrbv5FTYnuxGSpC8MF1qWJEmSJEmSpCQypJUkSZIkSZKkJDKklSRJkiRJkqQkMqSVJEmSJEmSpCQypJUkSZIkSZKkJDKklSRJkiRJkqQkMqSVJEmSJEmSpCQypJUkSZIkSZKkJDKklSRJkiRJkqQkMqSVJEmSJEmSpCQypJUkSZIkSZKkJDKklSRJkiRJkqQkCkyZMiXZbTjnvoyfSZL01WbfJkn6MrFfkyRposAHH3yQ7DZIkiRJkiRJ0lfGsTcsLXcgSZIkSZIkSUlkSCtJkiRJkiRJSWRIK0mSJEmSJElJZEgrSZIkSZIkSUlkSCtJkiRJkiRJSWRIK0mSJEmSJElJZEgrSZIkSZIkSUlkSCtJkiRJkiRJSWRIK0mSJEmSJElJZEgrSZIkSZIkSUlkSCtJkiRJkiRJSWRIK0mSJEmSJElJZEgrSZIkSZIkSUlkSCtJkiRJkiRJSWRIK0mSJEmSJElJZEgrSZIkSZIkSUlkSCtJkiRJkiRJSWRIK0mSJEmSJElJZEgrSZIkSZIkSUlkSCtJkiRJkiRJSWRIK0mSJEmSJElJZEgrSZIkSZIkSUlkSCtJkiRJkiRJSWRIK0mSJEmSJElJZEgrSZIkSZIkSUlkSCtJkiRJkiRJSWRIK0mSJEmSJElJZEgrSZIkSZIkSUlkSCtJkiRJkiRJSWRIK0mSJEmSJElJZEgrSZIkSZIkSUlkSCtJkiRJkiRJSWRIK0mSJEmSJElJZEgrSZIkSZIkSUlkSCtJkiRJkiRJSWRIK0mSJEmSJElJZEgrSZIkSZIkSUlkSCtJkiRJkiRJSWRIK0mSJEmSJElJZEgrSZIkSZIkSUlkSCtJkiRJkiRJSWRIK0mSJEmSJElJZEgrSZIkSZIkSUlkSCtJkiRJkiRJSWRIK0mSJEmSJElJZEgrSZIkSZIkSUlkSCtJkiRJkiRJSWRIK0mSJEmSJElJZEgrSZIkSZIkSUlkSCtJkiRJkiRJSWRIK0mSJEmSJElJZEgrSZIkSZIkSUlkSCtJkiRJkiRJSWRIK0mSJEmSJElJZEgrSZIkSZIkSUlkSCtJkiRJkiRJSWRIK0mSJEmSJElJZEgrSZIkSZIkSUlkSCtJkiRJkiRJSWRIK0mSJEmSJElJZEgrSZIkSZIkSUlkSCtJkiRJkiRJSWRIK0mSJEmSJElJZEgrSZIkSZIkSUlkSCtJkiRJkiRJSWRIK0mSJEmSJElJZEgrSZIkSZIkSUlkSCtJkiRJkiRJSWRIK0mSJEmSJElJFJgyZUqy2yBJkiRJkiRJX1mBDz74INltkCRJkiRJkqSvjGMnzlruQJIkSZIkSZKSyJBWkiRJkiRJkpLIkFaSJEmSJEmSksiQVpIkSZIkSZKSKJDsBkiSJEmSJH2RpKSkkJaWRiAQICXF+W/SV9nIyAjDw8MMDQ0xMjLyqc9jSCtJkiRJknSGUlJSmDx5MoODgyQSiWQ3R9LnwNe+9jUmT57MoUOHPnVQ6+0eSZIkSZKkM5CSksKFF17IwMAAH3/8cbKbI+lz4uOPP2ZgYIDJkyd/6tn1hrSSJEmSJElnYNKkSQwNDSW7GZI+pwYHB5k0adKnOtaQVpIkSZIk6QykpqY6g1bSSX388cekpqZ+qmMNaSVJkiRJks6Ai4RJOh3LHUiSJEmSJEnSF5AhrSRJkiRJkiQlkSGtJEmSJEmSJCXRaULaSSx9uo22tvH/tLL9ladZc0P+Obj8JOY+UE9r7a2ci7N9KtMXceePvs+CvBO8l17NbT+6j+Wl578ZhYvu5ke3VZN5/i91UpNXfJs/+c9lHFmDLnUqoTXf4Ybf/d9cfdvUiTunTiX0N9/g6n9Zw8LfreG6f/oGs/7t5KPv55Yx51ffoWTGZ9V6SZIkSfrySy+sZultd3Lvjx7ioR/dx923L2decTJHkp9AZjE1S2/jznt/xI9+9CPuvfM2ltYUn/U4ODB7JQ899BC31+Sck2aeL3nV3+Wn67fwRvNumt/Ywj//6M+55JhF4CflX8cPf/mvvN68m+bm1/lfP/0u1cflFVlc9u2fsn7LGzTvbuaNf/1nfrSomNOvJ5/FJYt+yC/Wb+GN5maam19ny/qf8t3rjjl20nX89I1m1n974oUnFa/gl6/v5vVfrqD40y1eL+kUzmAm7SCD2x5g8fXXc/3113P9zbfz8I4gt/z859xRdv4bqM9I7mzKV6QTebKVISBw2b+l6unbuHTGAPH+Y3eeTOg/3ULFVYN0Pfocr9/6LG/9IUDBf1rOrMOhbE8r4d/DjNWzz6CjkCRJkiSdVl4NK29bQlVJOv3tLbS0xwiEKli4cjWLCgOj++TUcPtDD/HQytkEzvS8n+aYTypzNsvvWM3iqhJyEt1EIt2QU0LV4tXcsbQsqROWPhOXfJdf/OKvyW99nO99Ywl/de8L9F3zY578ySKORKGTqvnhkz/jz7Nf4x9WL+Eb33uctrK/5Re/+DbF405VvOKnPHn3ZXQ/+x/4xpK/4u9/B9f/5El+fE3WKRqQRfUP/wf/8rNF5LW9wD/c9T2+d9fjbOou4a//67/w5LcvOfXYPX8RP3nyh8zZ9wjf+94LtA+d7Rci6Vhn9vu3N8retjZG/x9so61lkDlXPsON80tY19p2Ptunz8jkm69g6v5mWvaOvs7+k3J4eT1baxPMePoWvj5+59yZFMwYpOOhDbz71uimQ09tZO8Vf83FN17E7sfeG91W10L/0isoKNxFW+dn+nEkSZIk6UunsLqGotRh2jY8zlONo7Np0suWc+e3KqiqLmZTZzjJLTyZdMoWL6Eid5jo9ud48qUw/QCZpfzZ6luYW7WYaxtbeelLPG687OabKdv3At/40f/kHYB33uEuynj1Z3/ONVmb+J99kH/z97k5bzt//1f/wKZugHf4D3fl87/+5a/52+te4D9sGYJJ1az87ly6X/gr7vrntxgC3nnne1Dyr/zk+yv476/9kvYTXH9S9X/kxyvz2f733+C7Lxzd47Utv2Hjd/8H/3L3T1jZ+H/xy3dOcHBWNT/8xU+4vu8Fvrf6l7xlQCudF+fuJlnWXG69/x5uXVBOQdogXXu38dvHHmDtK/uO7pN/A2vu/wHL5s8gSC8tv32MpwfHneLGdby2NpvHrv8mTx85LI9vPv8a9wzex/W31tJ9zhr86QTyZrNg8XVUFOeQnuinu7OFLRvqaI0lxvbIoWzBEq6rKCQvN4NETwfhxjo21LczcPgkmcXMW7KYmuI8sgIDdOzaTMPwsVfKpLhmMQtqSgllBhiIRWhv3MSGhs7R8+TUcPudVUTq2gjWVFGS2c6vHnyOVvKoXLSE+RWFBDMgHm2ncWMtdeHjpsOOM4XgFV9nsLWDQ2NbDj72zxwE4KLjd+/ZwRvf2HH89mN/UXe2ETt4DdOumkLbCx+c4vqSJEmSpNMJZBw/hB9oXc8jD2wgkBiA6Qu482/nEwSYuYIfP3QdW//Lo9Tth5yyBSy+rorivHQCAzE6W7ayYdMOuvNOfMyrwZX8eMVMOjau5YmGGADFf3Yvq+cm2L7uEV7qhMzieSxZXENxKIuM4T4irfVs2NBA58AxjUwvo7osA3q2s2HTWEAL0B+mbmMjwWtDpOblQGcMyKR43mIWVI+OhROxTpq3bmDTjm4Oj7rTi+exdEkNpcF0Bjoa2bDr2G8lneKaJaPj6dwAA9F2mrdspG7X0XN81tqevZe/+vU+TpSBjsqi+ro5DDbey+/GBx/v/IaNbStZcc0cJm1pZKjseuYG9/G737w1bgjex+9+08jgz65hbt4vaT8uOJnENSuuJ7/1v/PvXzg2wh3inWf/kd+s+B+suPkynv2HtyYO7Sddwrd/8QtWZP2Oe7/9D7zW9+k+v6TT++QLh00q4YZ77uGm7B08X3d4Fm0ZdzzzBD8o38u622/m+sWreHhbNst+/msemDc23X7SHNY88XNuKdjBw6sWc/3iv+PpwaX84KYgaWNn6aurZWtvJTfeVHL0evk3cWPlIFtr65Ie0JI5m+Wrl1AY3cJzjz7CI+tqaUyUs3z1EkrH+srpC1axvDrAno1P8sgD/5l1GyMEr72FJWXpYyeZzoJVK5mX2cbGZx9l7aPP0RCvYmFFJqlHLhSgcMEqbqkJsGvDkzz6yKM8s6WTnGtXsnJ8jZ3UEBVVGTStf5wHfrKecAIKF6xiycx+tj77KA888CjPNQWoXr6E2emcXOpFTC2C3rcOfMovJo2sm69nRtH7dLz83rjt73NwL2RfdpEr1EmSJEnSWepsDtNHKiVL7uTOlX/GvMpS8tIhMTDAQAKItbJ16x56AKLNbN64ldYYMH0Bq741n9L0CM0Nr9IYCVA4dxnfWlB48mNOJ7OSpSsXUp7ZQ+vmjWze1UNOxWJuWVJ6/GywYCHBVIhHwnQek5IOhDfx1BNPUbtj9KLT561i5cIKggPtNDXuojNQyNxld7B89lhBhJxqbrllIeVBiDTvIjwwk8XXFk845/R5q1m5uIysnlYatzbRSSFXrVjFktJTDYzPr759b/HWhPQ0n5tXXkP2zi009o2+LimA7n1tTMxB99HWNkgwP580YFJ+Pvl0cexDzUNtrewjn0vyT1S0oIQ5JdlEGxvZd4J3GdrJa29FCV5SRvaEN/L585/9grtLdvIPq+9l0wkPlnSunMFM2jTSFvyct1rXjr5KS4PBvfz2vtt5ceyXwqQb7uDW8i7WLb6H58e2tT34d6TN+B0P3nETj9U/T+/8W7llRgvrFt9PbRtAG233r6Gk8nf8zeFLDW2ldmuUJ25cQMm6dbQB+QtupLK3jtvrzuPtmtQQ8+96iPknfDNO89hP02uuoziykUc37Rq789dP4/oNFN69nOqyAOFdCfbXPc4j9dA/MNrz9Le+SmOkinnFQWjtJFA6n+q8CK8+uoldMYAYsU215JasYeHhS6aXMa86neZnn6Ph8OMeuzaxPquQO6urmd5Qx36A4T5aN9ay48gjIQFycjNJRFto7YwxALTXP8tPGhIkTnW7cOpk0ugnduCjT/jFTaboH/89l14WgKEY+//ret7dO/79j/hwfz9cNpk0IP4Jzy5JkiRJOioR3sCTL8RZsrCakplzWThzLguH+2hr3EDtplZiA53saAxTPX8muT0tNDTsGp052t/Ehl91QqSV9hiQ3kfo/mWUFBaSM9BwwmNOGxbkhkaD13ADG+t3MUATLU2FZMUjx++bnko6kOgbOPVM1kAp8+eFSO1rZv2T62kdABoi3H7nYsrn15C3qw4qqinJgMjWJ3mirhtIp2z5nXyrIvXIOa6qCUHHRp55tpEYQEMnt9y9jNk1pWwM7+LYib6fvSyq/+Mv+GFZG//lr34zGpxOyiZrEgxGB4/be2hwEPKzRie4ZWfBYDfH7dU3yCBppGUfd/joubOgL9p73AOwRw7vHYSSLLJgbIJcGiUrf8GPC4KkRd+hd8gaB9L5dgYh7SCD2x7mLx/YNvpLIC2bGTfcwT0P/oYn0m7m1ufbKJgzg+yubWybcCenm631LXDHHMonPU90zgzSjtuni/odXXyn/PDrIbY9v5Xor29kadk61raWcNPScqJ1D7PtvP4+iLL9V7+iIXrM5owqlt5RPfYinVAoSEbxEu68b/G4nQIEMlLpzs2E0V//BApnM6+0kFBukJzcIKFQKgOR0a86MxQkENtD24Q7kzHaO3oYDo69DBYSysildOV9VIzfLZBBaiJGLoyGtAzQNyH5TBBuaCR2ywruvrOa9rZOwuFmWlr3c6piB2RmcgEfMfKJv+NDvPfwU7yfmU7mZZWUrl7J3Mzn+D8v/H9H9hgZ+ggmZTqTVpIkSZLOWoLuXZt4atcm0vOKKSuvorpmNiVXLedbiXU8Xrf/xIf1dxPtL6SqZik1oTyCwdBoeYPUs6iAGNlFS7Saq8pXcO+98+ns7CDcsoOm9v7jg9iBYQaA9Ix0AnDyoDYnRDADhve0ED6cpMb20B5bTFFeiFAgQCKUB/TQ1np4VuoA4ZYIwxVZR84RyoLUrMXc9ePFE8+flUsmJDmknUTxip/y05VZ/O7e7/HLd8YG4kO99A1BWjDt+CPS0mBwiEFgsLcP0tI4bq+sNNIYZPD4jHf03H2QFcxmEsdXKgTIyk6D3r4Js3izg3385q6/p/uvf8aP//O3aVv9z7xjViudN2e8cFhLa+uR/5Fbd+6gK/t3/PrWbzLn+QfpPZsWpE381TK083l+27WMBTeW8Rg3cuOMLurWbD/p3Z5zYjjBQLSb7mPrKaTHSPz/7N17XFTXvf//lwyXERBBRCGoCEQMeILBn8FEjRaotCTmRJuYy9Hmfqpp06RtbG0u/bZpz0lOetLTk9TTmnxNTFptksbE5ETlG6xajZpIUjGkomIAQQggIggMDsMM/v7gfp0NDgzo+/l4+FD3rNlr7b3WrL3mM2uv3XGtWM9Gzh99h7Ufdl3N3I69rg4wE3vrw9wxrZaj2UcpyD5BRUUVYTetYkG/CuQJjaUceH1jy20PHXKyW/u8oFgLtrP2+Uwip8UwLSaShFtWceM3Mnl93XYKentjXR0OTHj0+SjHntnLz2IvB0veV1QRTNLd1zLunW2cbTlvHt4msNXR1P9di4iIiIiISBsz4yMjCfGsouBEGdYzBWTtLSAru4KHf/wNwiKjCKSMnlYq8E+4hx/cFgMVuRzNPUrmoVNcfcs8pvS3CF4d/m0/xfa1azkxaxbx0yYzOXIW34ibw9y4N1m76YvOE4UqTlHROIeYydOY7HmUgg5RWs9pqSyfG0bVoff53x4m4fbGWTCjMf9DXs8o6BwQbqzq8fwMpfAb/4P1T8Ry9JkH+Wmn9QNKyC+G8eFRjOFYh2BpOFFRPlQczm+eOFdSQgk3EBsF2zsscOsdFUs4JbyZ31P0JJ/D+TXcMzORcD7v/mAx71humBlCxUdHO8V38l//IT/ffgzb0eeZ+ZfV/MfqY9z+TObgxmdELmMDnOBoo6KkovnXG28oPpxHzaTruC6qY5rxLFwQB3mHybFB3uE8GrqliWZBQkiXX4CO8s47eUxK/RduvjWV6Lx3+PPRgZXStayUllYzOmwyY6qrqW77A0EhQS0XiEjiY/0p2PYKb23fS+YXRykos+M/pv1KVldagTUwkqjAjvseT+SUoPbrXUUBFQQSNt7eIZ9qrOYQQsx9/OoImANDGe95hoIvDpDxziZe+u/tnApMZG5kH5ewsxYa8Gf0RJOhM+Ex82tc+5uvM96vywu25pti2huVCd9Qf6iydL8VQ0RERERERPrBTEzqClbceyfJk9u/33kGBWIGGu3nu0zo8Wz7OzI+ktHkk7H+dd7ZvpcDJ6o7B1y7vQew22kExoxv/b4bSNj4Dmu6BkZy9dVReObv4p1Nr/Df/7GJQ7UwZlo8k7t+/bQeJfPEeQiaxU2pkbTtxRzJjTfNJSYmBKqrobqUivPgFRZH2/KxgTFEBgJnSim126koPQMEERUb2nZepsWFtR9O6z6CArGXnuLUqVOcKoXxkZGEjfF024PDAMbc8AvW/8cNnPnd9/jem8e6BDtryfzoKD6JS/n6+A6br/oWN0XV8PlHh7EBtqMfcbgmnK9/aybt86zG8PVvJeKT/xEHe3yYj42P3vwrFdfcwxNLw7u85s1V9zzBt0KO8uabHR8a1kBNxZnm/xf8kcef+Yjxdz7L0ynjEZHBYWwmbUAI0VFRbcsdTIpbzKr7EqjZs44cG9h2rGNDzhs8+uKvqfn1Bj6pCCDu1kf5yXUVbF75QfN6JnvWsSnv3eY0v9rAJzUBXHffT7g5oIGGLlNx8z94h6xHH+Vnt/mQ9cIH5HcvkVuU7d1D7qxbuGN5Ne/vzKHCHkTkwlu4JbaW7WtfIbO6gqpqmDUrkWkVLa/PTWVWh4Cs/cRODpQ+TPKKf+b8+wcoOD+ayLk3kuh/nsbWpQusR9mVmcIDNy3nRvt2Mk/V4hmWyE23zCUo53X++38LermwBDLrjlUkc4B33s/klNVMWPzVhHGGzIo+LkWNX3G2CKbGBsPfTveerkVTUTmNk5cw85d2ct7IoaYcfGbGM/3BcM7vfqttFi0EExgNNVu/0kxaERERERGRi1JN9oEcFkyJY94Dq4k6dYpaggibHMYYask+cLQ5SFtXS10jEJnCPXeMYdf7e6muqgMmk3jTAjhlJnJWImEdd93DewpOneBUYxxRc+7ggdEnqA6MJDKkw3vM00i5bSEhVVdzMPME1pBYpo2BxqICSruvd8DRbe+TM/lO4uY9yE/jSimthaCwMMZ4QdWhbWScAjjBnsxSYhfGc+sqT7LzrYTEXM0Ur/Pk7DnQHFvIziR/wS1ELbyXlUEnOGOeTGTHqLC9dR9zuOeB0RwqqGVMzCziwyD//WwyXV0tBnnP/FfW/9ddjDn47zyTCbEzZ7a80sCZ/GOU1ELJlrW8e8//8MT/PEHDb96lxOca7nniHsKP/o6f7mxdFuEjXn75MH9Z/V/8tvgXvJzZQPhND/PEDQ1s++Gb3WfJtrBl/obHX7+G9U+/xVszX+b1nceo9Q7nqpvu4Ts3hXP0+Qd5/VgvbwZKtvycnye+xW+ffpbMY//KFj1ETMTlTEFBQb/o42XilvyAtPkLWX733dx9993cvfwO0hICKMt4lh/9YislDoAzfJaeRX3CzfzrQw/z8PI0ZvvlsfkXP+Lfdrf8jOM4w4GML3DMXsKqH/yAh+5YSGjuOn79RQxpYV/wx78cbp/OX1sMs/+Vm6d+wgs//RNH6wfxDPhP47rZQVRkZpLXNR/PcGbNj8b2xV6OnAVsZRzJqSTgqhtIWvQ1khL/ibCmQv62+W0+OW0H6inMryQwLomUlBTmzorEr2Qfx5umEVb/OfuOVzenOVKIffK1pKQuIilxOv6lu/h/p0KJH1vCgawSbDRRc+IfFNqnMCspmZSUhcyO9ONs9vu88f9OUN8EmCcz+7pwqj/7hLy2+0isnMorx//K61m4aBEpN8wi2u8sn215m4zivhZJaKBx4lVEzbJTtrWYxk6vjSHkW/H4nsyiKKslimw9w+lPyvGadQ1Tb72eabdfw8SpHpx7dxtZrxS1B5AnX03M7f6U//4Tqi5qTQwRERERERGxnT7KsQpvgidMZGLYJELHemI7U8Bn295i65Ga5skxTacprQwifMpkpoYHcf74J/z9i1I8w6YSHRfP9Ml+nNm7jzMRMUy05nEgsxBrD+85caaEgsogoiLCmRQ2lqbiv7GjJIR/muRByWcHOP5VHscqzIRMjSEu/iomBzZRfXQvb7+zj7Ke7oe3nuaLw6ew+gUQHBJGyARfOFvIF397h7cyTtD6dbwuL4dC+1jCJkcTc2UYfnWnOJT+Fu99frb5+KwlHD1lJ2xyJJOjwhhryeaD/VZirwqh7sQB/n7K2raPKVHTmHZVFCGc4chf3+LtT05f9Exas9lMY2Oj84SdePON//N77o31wS9iAf+8bBnL2v7cxPjDr/NhgQNsRRz4qJDQG5bxne98lxU3/ROOz1/m8R//Xz7vEK+o/vyvfG6J5abvfJ8HHvhnbphYxoe//hG/2l5O748Dt1Hy0TZ2l43j6m8uZcWKe/nnb84kquEfbPnlj/np5g4ze01RfOOBbxKQ+Tqb2zKup+CjYwR967t8/2t2dv/vIc7099njIpcJLy8vGnpcILozs9ncKd2oyMjIC4NZsIEZw60bPuJnDU9xw6qt1Dp/g1ysoKu5dsP11Dz2MsfzXLNLvwfuZ+6Vn7Ln8S+0Zo2IiIiIiIiMeGPHjqW+fjBnkonISOfr68u5c+ecphs7dmyndANck3bwjI+6hjm3/hurrqvhgw0ZCtAOlaovyHnTStiDsQzg+WHdBU1jWhLkrVeAVkREREREREREpC/DbCbtNTy14w2WhxTzybqnUBcx5gAAIABJREFUeGTdQQVpRURERERERGRY0ExaEXFmoDNph1mQVkRERERERERkeFKQVkScuWSWOxARERERERERERG5nChIKyIiIiIiIiJiQFNTk7uLICLD3ED7CQVpRUREREREREQMsNvteHgolCIiPfPw8KCxsXFg73VxWURERERERERELklWqxVvb293F0NEhilvb29sNtuA3qsgrYiIiIiIiIiIARcuXKCurg6z2cyoUaPcXRwRGSZGjRqF2WzGYrEMeLkDTxeXSURERERERETkknXhwgUsFgve3t54eXlp+QORy1xTUxN2u526ujouXLgw4P0oSCsiIiIiIiIi0g9NTU1YrVasVqu7iyIilwj93CMiIiIiIiIiIiLiRn3OpH10mu9QlcOQF07Uu7sIIiIiIiIiIiIiIi7Vd5A2xn+oymGIgrQiIiIiIiIiIiJyqdFyByIiIiIiIiIiIiJu1OdM2qhtp4eqHCIiIiIiIiIiIiKXJc2kFREREREREREREXEjBWlFRERERERERERE3EhBWhERERERERERERE3UpBWRERERERERERExI0UpBURERERERERERFxIwVpRURERERERERERNxIQVoRERERERERERERN1KQVkRERERERERERMSNFKQVERERERERERERcSNPI4l8fX3x9/fHZDIxatSowS7TJam6utrdRZDL3IULF2hqasJut+NwOAa0D5PJhKenJx4eHuoLBoEr6sjDwwMvLy+31lHrcTQ2NtLU1OSWMoiIiIiIiIiMJE6DtIGBgYwePVoBGZERbtSoUZhMJjw8PLDb7TQ2Nvbr/V5eXnh6eqovGEQXW0eenp54e3sPUumMaz0Ok8mEzWbDbre7u0giIiIiIiIiw1qfyx2MHj0aX19fBWVELiGjRo1qmw1rlMlkwsvLS33BEBlIHXl4eAyLAG1X3t7e/ToOERERERERkctRn9+c/fz8hqocIjKERo0ahZeXl+H0np6GVkYRF+pvHfUn7VAbzmUTERERERERGQ76DNKaTKahKoeIDLH+ztKUoXep1NFwLpuIiIiIiIjIcKAgrchlqj9LF2iZA/e4VOpoOJdNREREREREZDjQ9CYRERERERERERERN1KQVkRERERERERERMSNFKQVERERERERERERcSMFaUVERERERERERETcyNPdBRARkaHz71f5cEuYl0v29X5pI08ea3DJvkREREREREQuZwrSiohcRpLHm1y2r2sDXbcvERERERERuXRERkaSnJzcr/ds27aNsrKyQSoRmM1mYmNjiYyMJCgoCICCggJycnIGNV+jFKQVEbmM3Jt1npQQ13T9n1Y7XLIfERERERERubSkpKQQGRnZr/dERUUNWrA0ISGBm266idGjR3fLMyUlhfz8fDZt2oTVah2U/I0Y4iCtN2nP7+LJ6zpsaqilsiiL9HUvsu6g+6PWI0cUix+7i5nmDpvsdZQV5vBR+g5yz7mtYG5mIu7On7I0usMmu5Xq8jwO7drBx0WWwc3+ikWsvCuGki3r2Zqv28A7MsXcxupl06k+sI6XdlcC4HNFAouSE4kOH48/vdWTieC4BSRdH0fEeH887XWcKczho917ya1sCRKa4rnzpzcTXf05b6zfSsdTH7X4Me6aaeXQhv8h/auhO97h6rjlAsctje4uhoiIiIiIiFwGqqqq2LlzJ9XV1U7TFhQUDEoZbr31VmbNmtX2/9LSUkpLSwkKCiIsLAyz2UxUVBSrV69m/fr1bptV64aZtA00ZK1j5X8exAZ4+0cwY8n9rHrmN3h//z5ezLFdxL6vZNWml7jho5UsX/dl21bvlGdIfwKeSXuCnRez+2GoZNcGtuQ0B7Q8/cKJT17E0hWevLEunaLLdpKbHXteBuvT87EDnuaxhM9axKK77sT82ivsLh/ErM8Vknscys8pQOtU8LXc9e1Uwj3rKMs7TgljCY+YQfJdE/H/03p2fOUATFyR9G2+PTccT7uVM+XlNPgEEz59LssiIti18U98XN6hoQfOJC05m3XpRVy2zV9ERERERERkmDh06BBZWVnMnTsXs9ncZ9quM28PHTpkKLjbl4SEhLYAbWlpKZs3b+4WhJ07dy4pKSmMHj2aFStWsHbtWrfMqHXPcge1ZykqKqI5XlrElzmlhE17jbQlCazLOcglFkcdRHbs1nOcO9cy6/DcOXa/7cnEHywicXoGRTmXcZjKbqH63LnmQN25c1Smb8bviodJvHYKu7cWDV6+llx2b80dvP1fQq6YlUi4p53C7evZmNXchn1ilrBq2QziZ0Ww46t8CE4kLTEcz7o8tm98m6zK5sBtcMIy7r0xmgWLE8l95WMqO+w3cFYayZ+3BnlFRERERERExJ1alxror7CwMDZt2jTgfM1mc1u+paWlrF27tsd0Bw4cID8/n+9///sEBQUxd+5cdu3aNeB8B8pjyHPsURFHCmvxDwvFH/BPe56db/+C5aueZ1P6Tna+tIxQAP8Elj3xEm+n72TnznTe3vA8q24Ibd6F/y38bt9rrIjwIWLFa+zb9zarE/xIWP02u55egI/PAp7etY99v7uFcVzJqk07ef+JOXh3KIV3wmre3reJR+KG/gy4TEM5ldWejB3r37LBRHB8GitWPspja55kzWPf497FCUxsed6PT9xtPPbYbcS0Pf/Hh/gVa3jy0cVEtW0by/UPrOF7i64Y0kNxrXOUV1oxBwbiAzD2Wu5d8wBp1y5ixfce48k1refAjynXLuHe7z3GmjVreHTlvSy59orm9xDcfB7SpnTe9RWL+N6TK0ma2Lrfln+3GBuVxG0PPMpja9bw2KMrWZEWfxme/+48fbr/RtSQ+x5rn3+eten5AEycFU+op53CvR+0BGgBHFRmpbO3xI5naDzxHc411jrq7OOZlbaAid32LiIiIiIiIiJDrfUhXf3Vdf3Y/oqNjW3bx+bNm/tMW1ZWxs6dOwE6LY0wlIbJg8PGERrmja3yLHXQHDgNu4Ebp6zjxZXPc+LsWc56X8ny3zzD7bZ0Xnzi3zlS6c+0Gx9i9S9+g/fq+3gx630e++YJVr30O+Yc/D4r132JzWbDdmQ53zzyC95f7c3ztzzBTpsNG7B9+5csuz2FBO+DHLQBeJOQNodxJ3byXo47z8VFMo3Fzx8aWqZlm6LSuDMtgvJdW3gtpxyrfzSLltzMbamVrEsvoiEvlxLPJGIiTOTmO8AUTcxET/CMYPpEyP8K8Ith+vg68kf0gp5+jPX3xF5Xh711k2cocfHl7Niynrcr67A7TFyRdCfL4s6xN30jW8qtmCMSSUu7i7tYz2ufVpKTXc6CufFMyShqW07iipkx+Jcd4lA5MLZzrj5Ri1mxNJzCXVt4Lb8Su180N6QtYsVSO+s252C5bM5/dyU5edTNnEnEjatYOT2H7Jzj5B7Pp7KhoWWpAh8mBo8HysjrtpbwOYoKqyE8kIkTfeBMy+bqbHYUxbA0MZG0a7N57dNKXG3ChAksWrSId955p9fbH8xmM7feeis7duzg9OnTLi/DxZjuN4rki3hw2LHaJnZXapayiIiIiIiIDG9RUVFA8yxaI+vM5uTkkJKSQlBQEKGhoUO+Nq37g7TeoSTcspoVM+r46PGs5nVqARqy2PjM2xysa0l2wwpuD83ixeUvsrNlW9m6n+N/5dusSktgXdZBbHXNAVhsNupsLYsm2Gw0/9PWHLRt2Vy086/k3L+CtDneHPzIBt4JpMwZx5cb32MQb4YfXD4TiVuUxHTPEjJym9dEdeRvZf1aHxosLWukWnL4OPcG7o0Kx58izjXkcbwkjbktEUFTRAzhdZ+TeW46UdOD4atKfKKjmWjNZ9dIjRGa/Lgi/mYWRNRx/E+F7WuV2us4vmMr2a3H5RPH3Flmct54hU9btp3L2cEWv3BWzZrFxE93U57zOSXJC4iPMFGU7wDTFGbF+FOyN5vuz2obS/yCGVgPrGNrVsur57LZunUi4fcmEuOXQ5blMjj/vXDkp7NxSwNpSbOIiJ5FcvQsktPqKDyUzgc7cjmHGR8zQAM9xUKtdQ2AJ+ZOM3KtlO/6gENR9zFrQRoJuW/0UC8Xp6amhtGjR7N8+fIen/xoNptZvnw5o0aNoqamxsW5X7zXEkYzxuvibqI4VuvgyaNWjlsuuKhUIiIiIiIiIq7VOoO3tLTUUPqOQdmLncU7EG4I0vrgs+Bpdu17un1TbSF7X3icFz+qa99Wd5azHRanDZ0RQXDwFJ54O53VHfbm7e2DT07zMgln+1OMsp1sz7qfR9JuwP+jndjmpDHHP4dXd7rnCW4D40nEjT/gyRvbt9jrSjj09hayOk48NEeQEB9B+MRgAgPHEjxxPJ7V5pbKt5B7pITUxBlM5Ct8podjL/qAAyX+xM+KYizVhMeEY83LpGRoD+4ieOI5fRk/fbLDJmsZR7ZvJr3T09SsWDo+3ys4nInmQPzveoxOK154mvG0VzMWKLfkcCgvmbT4aNLzcyEinmjPQnbndJ3pCRBMeLAnoQse5LG5nctn9qwjdCxguRTPv1EOKnN2sDFnBz7BU5geE8+sxBlEJC7lNvtrvLK7mgYrgA9mM9DlFJv9fQA71gZ7l91+RUb650R9eybJafHscPFa31arlY0bN7JixYpugdqOAdqNGze6ZaFxZ3adcXBL2MUFaa8aY2JDwmi+8Uk9tXbn6UVERERERETcZaDLLQw1NwRpG2jIepXvv9DygDBbHWVFZdQ5eZc30FC6k188tpHCLq/Z6s72L0ALwFk+Ss/ikdUpzPE/CGlz8D74PDv7vyO3KjvwJ7bmNAA+xKXdRSJHOJTfHs0aG38n96YFU3kkh+P52eRUV2KPXsxdMe37sOQfpzw1nqjgK/Cf4knhjhIs5cepXDSDqLGVRETYKdzSYQbqsGfHXriL19Lzm5c2sFupPmcxUH5PsJeR+cZmDnUJCNrtVprDbQ0cz84j7eZ4on3yID4az8J0jjf0sDs8ATuFGa/xQX6XSJbdjrUlj0vv/BvhQ/CUCII9z1GYX05DZRHZHxeRnVPJAw8nExoxhbGUU155BqLHEz3Fj48rO1bKWKZEBALVlJd3P/mOoh3sOBLNshnJJNW5vpvrKVALDPsALcCTxxp48liPDdapMZ6QHGzip9N8CPDy4KdX+gx4XyIiIiIiIiKDKT8/n8jISAIDAw2lj4yMbPu30dm3ruSeB4fVlvHll182/zEQoAUoOlJI3bhpTKGIoqLWP2fxDotgnLfN+Q56UPdROgdtCaSlpZCSYONg+kFDZRk+7DRUV1JeXk55eRG70zM5M3EBi+JbF0b1ISI+Ao6k88bW3XyanUN+UTmY/TtH58/lcvzMeKYnzmKKfwm5hQ6w5HO8eiLTb4gngkJyCkdYiNB6jjOVlVRWVlJpKEALVBZSSSATx9s5d+5c2x+rOZhgM237cOQd4rg9gvi4GcRHw/FDefQcpiqnpBKCw8dS12F/5+x+BAd7tq+Neymef4K5/oEneXLNChL8mrcEBo/FE7BUWwEzUcnLWHbXEhZc0faENExjAzEDdnsDVqD8UDZleBKx4Gbig1vTmQhOSGNuuCf2smyyy3vKv4HcHTs4XmfG339wfotqDdSOGjWK5cuXj4gA7cWqtcP75Q5+f7IRgNmBJifvEBEREREREXGPnJzmh04FBQUxd+5cJ6khJSUFgIKCArd8r3dPkHYAbAc38pcvp3D/s79g2ZwrmTIljhuW/4Jnn1nNigT/llRnKT0LoXOWkJJwJaHerZvPctZnBim3zCFhyriOOyX9YB0J969iTl3zv0e08r3syLYSnbSIOB+ABqor6zBHxBM/JZixYycSlbCERXHmLm88R27OGcJnzWR8SQ7N8cBz5OfXET1zBp6FuYy4GOFANBxn76E6IhYtY1HcFQSPHcvEmCSW3bmMmxMn0haOchRxKNdKdPIioq25HMrv7eScI3vvEewzbmZZUgwTx44l+Io4Fi27i2WLZjG+Q7pL7/xXkp9/BjwjSF1xJ0uWrODOBaFgzSM71wKcIyfzOHWMJ/HbD/PAitu4c8UDPHzXLAKp43jm8ebAd2Um6QfKsPtHc/ODD7Py3nu5d+UPePDGaPztJezdmkmvjwaz5JC+O4/B7FY7Bmov1QDtdL9R3bYdq2tukOGjR8wlRERERERERC4zZWVlFBQUAJCcnExoaGivaZOTk9tm0u7cuXNIytfVyPmGbfuSTY+vZt2RYG7/xUv8+c+/44klY8h68XGeSW9do+As6S+8yEFu4Innf8P9Cc1RWlvWq7z4lyKm3f8Mzz+ZQnuV2Mh67yBnx4zh7MH3yBrYhNxhxEHRrnSOMJ2kRVH4AEUZm8koCWTBXat4eNUKFkWX82n2GbouI1mZn88Z7JQcL2ybFVp+PJ9q7JTk9DZT9FLj4KsdG3ljbzXhSXfx4MMPc29aDPacLWzMKOo0G/erQzlUm81U5x6ir+d5NeRvZeOWbOxRi1ix6mFWfXsRU+oO8fabu+k4AfRSPP/lu9/k7UOFVPtHMGP6RCg/QsYbW8huXeYhZwsbt2SSdwYCw6cTHR4IZ/LI3LKRD3Jbj9jBV7tf47UtmRw/Y8d/YjgT/a2cOZ7JlvV/4uPyvqPXlux0dhUObtC0NVB7KQZo//0qH1JCus9Evsq/+SeLr843DXWRRERERERERAzbvHkzVquV0aNH8/3vf79bsDYyMpIHHnigbRYtYHh5BFcbFRkZ2evjua+44oqhLIt7xD3Cpt8l8NHK+1j35eBlU11dPXg7Fxmg+vp6Q+l8fX0HuSTSG3fV0b9f5cMtYV78vqChbXkDgFsmmljTsibtn07ZeO5LY79uGT0OERERERERGfmWL19OXFwc27Ztw2w2dwqCGlVQUMD69esvuiyhoaGsWLGiXw8Q27x5M1lZWRedd1/Gjh3LuXPn2v7vhgeHDRP+oVw5ZRpffyiNcTnreG8QA7QiIsNFa/C1q5rGJu7LOs9xy4VOab4b6cN3I326pf/qfBO/Pznibz8QERERERGRQbBt2zYKCgo4dOiQofVgB1NZWRlr165l7ty5zJs3D7O58zKgBQUF7Ny5k8DAQG677TaAtr8HO1Db0WUbpPW/4RF+9+QcbEfSef7n71Pm7gKJiAyB5PE9P+wrwMuDq/w9+KrBwVVj+l4J59MqO08ebaC267opIiIiIiIiIjTfUX7gwAF3F6ON1Wpl165d7Nq1i9DQUEaPHg1AaWlpt6ULOwZqrVYrR48eHZIyXrZB2rr0J0hLd3cpRESG1r1Z53tcZ7bWDrsqHdTam9O8ljCa6f4mPq2y82l1+9q/OyvsHLf0ukqOiIiIiIiISCfD7fktZWW9T9VsnTnbGqidN2+egrQiIuJ6xy0XOG5p7DNNx0Dtp9WOTmvSioiIiIiIiPRHTk4OYWFh/VoTFmDnzp2DVKK+ZWVlUV1dTUpKypCWQQ8OGyJ6cJgMR3pw2PDnzjoa4wnXBprYdcbhPLETenCYiIiIiIiISLuuDw7re+FBERG5bNXacUmAVkRERERERET6piCtiIiIiIiIiIiIiBv1GaR1ODSDSuRSdeGCHv4kIiIiIiIiIjIcKEgrcplqampydxFERERERERERAQnQdq6ujrNthO5BF24cAG73e7uYoiIiIiIiIiICE6CtFarVU/kFrkENTY29mumvH6scY/+nPfhXEfDuWwiIiIiIiIiw4GnswTnzp2jvr6eMWPG4OXlhclkGopyiYiLNTU10dTUhN1u7/dSB01NTfrsu0F/6mk415GW1hARERERERHpm9MgLTTPujt79uxgl0VEhqnGxkY8PDwYNWqUu4ty2ejvkhSNjY3DNkjb2Njo7iKIiIiIiIiIDGt9LncgIgK0zcCVodPfJSmampqw2WyDWKKBsdlsmkkrIiIiIiIi4oShmbQiIq1BQ09PTzw8PPDw0G88rnYxS1IAbe/z8vJy68znCxcu0NTURGNjowK0IiIiIiIiIgYoSCsihg3X2ZrSrqmpiYaGBncXQ0RERERERET6QVPhRERERERERERERNxIQVoRERERERERERERN1KQVkRERERERERERMSNFKQVERERERERERERcSMFaUVERERERERERETcSEFaERERERERERERETdSkFZERERERERERETEjRSkFREREREREREREXEjBWlFRERERERERERE3MjTSCKTycSYMWPw8fHBZDINdplEREREREREREREhj2Hw4HVaqWurg6HwzHg/RgK0jocDqqrqwecyaVo5cqVTtO89NJLQ1ASERERERERERERuRhXXnklZ86coampqdP2lJQUYmNju6UvKSlhy5Ytbf/38/MDoKamZkD59xmk9fT0xG63D2jHl4Pfv/b7Xl/77r3fHcKSiIiIiIiIiIiIyEBZLBZqa2u7zYZtamrC07PnEGpPAVmTyTSgGbV9rkk7ZsyYfu9QREREREREREREZKS5cOFCj9tHjRrV7U9v/P39B5R3n0Fab2/vAe1URERERERERERE5HJjNpsH9L4+g7R6SJiIiIiIiIiIiIiIMQONpxp6cNiwZAokNu0WUqN9oeITXv1zFrXuKovfPH7y/BqSJzbPPLb9/TkyStxVGBERERERERERERlJRmaQ1hTI1YtvYUFAAXuyr2BemJvLE3Ut1zT+L9/71nryWjZ9997uT30TERERERERERER6arP5Q6Gp9HEpN3CPL8Ctr61l8La/j8tzeXqbNj8/BnYssAiIiIiIiIiIiJyORuBQdrzFGft4b3Neym0ubssLQo+ZJ9lPnelTXR3SURERERERERERGSEGYFBWqgvOUnZcAnQApDH+l+/g/+/fI8kP3eXRUREREREREREREaSERmkHX68mDhhIt7uLoaIiIiIiIiIiIiMOCPzwWHDReSDvPzsbUzx98a7Koc//3oNuy3uLpSIiIiIiIiIiIiMJJpJezEK1vOdO7/JNxffzD0vFzH/B9/jWi93F0pERERERERERERGEgVpXcLCqUOfU+YXyhStSSsiIiIiIiIiIiL9MDKDtKbR+PqOxtd3DL6+JsAbvzEt29yyMKwXM++5iyuPf8iuanfkLyIiIiIiIiIiIiPViFyTNihhMXfPG99xC3fcPwuAmux32LD79NAWKPCb3LOgjndWf0jV0OYsIiIiIiIiIiIiI9yIDNJWffY2L3zm7lJ0MDma0KocMovdXRAREREREREREREZaUbmcgfDUaPN3SUQERERERERERGREWhEzqQddvL3k8nP+O27t+EN2P7+HBkl7i6UiIiIiIiIiIiIjAQK0rqC5VP++5F/5r87bPruvbFuK46IiIiIiIiIiIiMHFruQERERERERERERMSNFKQVERERERERERERcSMtd3ARvnvvd91dBBERERERERERERkk27Zt48MPP+y23eFwuDQfBWkHaNfuDzl1qhTr+QZ3F0VEREREREREREQGgd1ux263D3o+Wu5ARERERERERERExI0UpBURERERERERERFxIwVpRURERERERERERNxIQVoRERERERERERERNxqhDw4zERQzj+Q5VxI6zgcsVRTn7GfHgVPUu7to7jb5xzywLpaPl9xP+d0ZPBi9juefeBfXPm/OxYayzEFX8cLyYP7yh/2UXJfGs+OyufuDEhoHI69+MfO1JWmsDCnht69mkjlIFTYjeTFrfD7jgfQylx1zYNwCXowr4pHNJ6lu3WjyJfXGr7MyejRUZPHIplxKetuBTzg/uX8+c3yq2PhqBltqWl/wYGpcAvfNnkLMOG+wVHEkJ5u1+8s65BPOTx6az5yuPVlpFqveyqWitYyTruI7C68kIcQPLDXk5mbz8r4SShwAvixdfjMrQnoqnIUP39zKy2Udt/kyL3U+K0Nr2fjBQTKqmtpfcloe43n5hsawMiWGhCA/vBqay7x2T0nLMfWjzP2pi9bz1aVOZyQv5pfxfm2vZ21/m3/Lbep9B0PEWHv2IDF1MT+MrmbD63vJGEYXiR4/O5ewweh/esrDUFt1weeiJ75xC3hldjWP/zGbkwMo+2Cfn/4YmuuFgX4eD8JjEvjOdZ3TvLS/rK2PB2d9pvE0ztuGkTK35dj79cLQcXXJq8FCSfGXbNx5jMMd+rK+r3HG8+p3efo8dvq4vhtJY6zejezHVW2sq0upD7+0rqdDPdZyXR/VZsDt2VXHjovG2EbKbPz8OE9jpM801q86r4sB1FdveQ3b76ci4g4jMkjrHZHErYsmUrz3//Hnk7WYQuJITv0mS2xv8+fPRvowSS5PDqorKjlJNVXuLkq/+JJ0dSC5WR93CJyOIfXmJO4LKGFjdjC3h/X1fg9mzEsgpqKU4lBzp1cCY67nl8kBZO3Zx+OFVvxCY7gvZT5PNXzI6s9qmxN5euHHGTZu2s8+S4c3O2xtAzavkHieXjKFiv0HeTyvlkbfEG5KSeSplI95LKOs5YcdB//YuZ3f5rV/gfaalMCzqWZKOg3GfPnazV/n/oAinnvrMEcauhyOgfIYyitgKmuWzsA7J5NffVBFfUAYy1Ov55fs5pE9lS2DNgP76VddtB9j1zo9smsrd+7xAIK4b3kSE4zsZthooqqikpMBtZweVr9W9fDZkYtmqK266HMh/dX9HBrp530jZvN06gSO7NnL6sLzeIVcycrU+azpeC0w0mcaSWOgbRi6NrUcb1/XCyPH5Rsxm6eSJ5C7Zx+r82qx+QWzNDWRNTc3sfqt5uCxkWuc0bycpTF+7NDX9d1IGkP1bmA/Lmtj3VyOfcJIup4O3VjLZX1Um4scG7vq2F00xjZUZhf14Ub6TCNpjNSFkTT9y0tEpNkIXO7AxLgQX6qydrDji6+oqq3lTP5B9ubUExI7nSB3F09kQBo5vH8vj7+Xy4lBG/h6EOjj5dpdBl3J1wLKyMhrHV6amXdjEiv8injurb9/sdZzAAAgAElEQVST2dOvzZ3eH8N90TX8ZV9Zt1nw1XlHWPveHn77RQUna2o5kvt3NubZiIwOo22CgI833g4rp89aqajv8KehdWDqQcLsaIIKs/ivrApO1lgpKTvFy9vzsMXEMt+3Pb/GBivV9a1/HMRMD8W7MJfdHQoWnnA994dUsHZLDwFaQ+UxltfUq2OJOXuE/9pTwomaekqK8/jtziK84q4i0cfofvpZF2110rVOW/JyNNHocAyjX/WNt+cTWft5fHM2h3uqM3fp5Txfugah/+lF323VtZ8L1xm682PMUFwvjPTzHkSG+FGS9TFrv6ikpKaek3nZvJpjJTIunKkt+zHSZzpPY6xtGLo24ex6Yey4IqND8Ss7ystfVFBSb6WiooQNe4qwhIRzjW/zfpxf44zkZaw8Ro+9ub57v747T2OsPEbyclUb6172S6kPvzSvp0Mz1nJdH9V+PBc5NnbVsbtojG2kzK7pw430mcbSGKkLI2n6lZeISIsROJPWQdln/8s7XbZa6m3YPT0xuaVMI8jcP/DYo7D3TYj/VgKB/j7UHf0zH/z7f/JV26+kUUQ99BRJX7uO0HFgLcsh508/IyPjaPMSBF6LWPKXpzB/moc5NoHguq3syBjPrMUJBHOQLY88Sn7LvkxX3Uvad+9jevQkPG3FlOzfwI4/vEa5pefi9Sn+IV55djHjPn+B+5/IGJQZp14x8/jjfCsbPjGRNHsC4X5eWCqK2Jjxd/a3fGG7JnUpP4vzbv5PzZf8ans1qSkzSAgZDXn72m5P8Q2N4eGUmObbfxpqyM3pfPuPb9wC/pTaZZpO8Wc8sDmv8+0/IdGsTI4lIcQPL4eFk3n/4KWdJznZMZjrG8rylHiSIoII4jzFhbm8nHGs+YthSDwvLI9lUlvihbw5vfXfVbz7egabqqD5dq34ltu1RoP9PKeLi9iyP5u/VfR8a/uM+Cl4531MVltZrBzJ+jvPVZRwpAHC+zzbZr62MAZy9rK7Jpikri87qsks7v4uW8fgi48Z3wYr1b0Gts2EjzNRddLSeeBUU0UFU4kZBxn19Xz4wXb2WToco+8UUiMcZL5X2v4+n3CWX+dH1va9ZPY2UnNaHiN5mZkxyY/TxaWdbvFqLC4h1/T/kRAC+4uN7Kc/ddGue50a56zNtyTqva02JyBxXgLL48KY5AeWmkoy933GS7m1zfVutD13TXf2KI/1cAu6szJ7RVzPK6mw5ROYd20IE3xMVBUf4eWM3A5ldsVnp+db5UMSUngx7hSr22657n9evXJaF877H6fnx2B9GetXnbQNQ1z5ufBiRkIi35kdxiQfG8WFx9hQ3HUU4qL2bOjYjbWNPut0SK8XGOjnmzjy2W5+3uX1eosNm6eZ5rCSkT7TSBqDbcPQtcnZ9cLIcYHN0QQ4sHUss91BIw4aHc3H7vwaZyQvY+UxdOw0l6vP67vTNAbLYyQvl7Sx7nq7Vjq9phgYZ4LzvtclfeYlez0dyrGWq/qo1q0X255ddey4aIxtpMyu6sON9JnG0rQe38X1Y/3JS0Sk3QgM0vZkNFMjAnGUfjrCbhUfBGV/5r1HfKhrBPu7j/Kad3H3tV394wi3rOK1bx/F4TeHpOc3sOyhw6x9fgcOwBR/H3Mn5/PREz+jsKwB/5mPsuTJF1hQtJjdx1ovMwHYD/yE1/5zDkv+8iLXjlvMKw/4kPTKn5l17Rjy/1YLE+9i2dP3Yf3jT1j/tyzq/K9j1qO/5s4nG1j/xBtY+lNmwMvbD39vb7z9/fAe6PmpOcmv3yqiygGNWft43NPa/cu97wRm2Pfxf/6YSaPJl3kpC3n45qso2XSMk8DhjPe5cyd4RV/PKwsDSY2rJWN7Or+tcYCjqXl/QTH8bGkMVfs+ZnVuDZaACdye3Pn2n/qcvdx5vH0ye/h1X+fZrrdWBkzlR0tisH3yMY/lVlFtCmJx6jx+ebODR9471RLMDWT50utJPJvFc38soYIA5i28njWpFlZ9cIr6imxW/+4fACSkLOZh099ZlVHa9uWkbZAQFMMPU8M4mb6b505aaPTxIyHun7gpIYzDGSXdb+czhZIa4yDzvc63aVUX95C2B76T4rljXBkvfVBNo0+wk9QeBE6K4Y6IJjJ3FbXv38cLb7uDkKuv5/nrQpmAlZLCXDbuyWsZ8DdisUCQX/NAua2cfqMJ9DRhaYmn1NfUdxpghsdFE1Nzko3F7YPcwJgYEiwlbAhI4Nn7Qwk3NVJSnMfGXR2+XDgtj5G8zIT7QX1Nl5bpsFHf4E1IgAfQZKjMRuuiTS91aoiBNu+0rQJek2K4KaSWTZv/zj9qHARNmsEPb57Piqp0NlQARttzh3R+cQv5Q8JAywz4BDK1YR+Pv1pLoymQ5bd9nR8urOKhjIq2z7srPjtGz3O/8uqV87ow1v84OT8G68tIv+q0bRjkqs+Fb/RsfjgvgCO7dvPrk+fxGhfG4nlj8KayLY2r2rOhYzfSNpzV6RBfLzrrpZ/vxsyMqQE0lh5p+eHCSJ9prF/td9vopcyGrhdOjwtOZOdy8rZo7phUxoZia/NyDNdOwisvi339uMYZyav/aXqvLyPX9/6NAXovj0vGEgbzatNbezZ6TXEyzjTS97qkz7yEr6dDOdbqbiB9VPP+XNGeXXXsrhpjOy+z6/pw532mkX61mSv6MaN5Gfp+KiKXjUsiSDsmNpk5oZV89ueTw/sBWUOhsYTKvJZ/Vx2lvKc0tsNk726ZFWs5yIGtOSR+aw7j2UE54Mj+GRuz25M3HPgzOUW3Eh0bAsdah6sVVJ6qgcYSzp1twDMvD/ChvBwigkKABiZ+6z4mfv5r1m472JLXXj79wzvEr/sX4ie/wcen+lFmoPGz51mx5A9gsQz8wuWwUtL6hba+tucHuzScJqN1loGjnv17jpL6r7EkhRxr+TLcYeDq08jh/bndbvuakRBDePHn/OqLyuaBUkUJL+/K44U7Ypi/p4yMlvSNjvZBXmMPX9ymXh3L1OIsHvqidfBZyZZdx5h3dyxJAafYUgNeETEk+Zbw8psnW5ZKqGTb9r+yH2vbIK01n+YQu6P5duAueXkFBDDBUc1fTtZS72g+P5mffUxmL6fSd2okM2ry+Hk/giPtAlm6MJSSTzI43OeHNpD77v46qeNMeNstHNy1h7UdbmfzMpnw8ptAok8WL23+BwRMYOnCBNbcDI9tzqOCRjJzT7MiOZ4Vx6vZWGil0WcMqddNZQJWjvQ0w8kUzE3xAZzM2seJto0ezJgaDJ4ezPA8wqub/0FjwAQWL0zgqSW0rw3otDxG8jLhbQIbDgiI5unlCUw4vodHdrW0FZM3YDWwn/67mDo10uYNtdXiw/y8w4yL+sJc9lddSWKoGSqaj9tIe+6UztFzIzP6OcVRye62PqGaLV9Usnh2GOFUcJKh/ewYz8sDry5fkDr2N0bqwkj/Y+T8GKsv5/2qkbYxGHquLw8Srw6H3D2szWk5P/V5bMyZwrwOAQxXtWcj+zHSNozU6dBfL/ru57sKiUtkRWgVWzaVtLRVI33mAPrVPvVVZmPXC+fHBVTl8lzGGJ5ecgvv4MDmacJy8jP+bXtrmgFc43rLy3AaZ/Vl5PpudAzgrDyuGUsYy6tdb+3Z8DXFyTjTWN/rmj7zsrieDvFYa2B9lJVBac8XceyuHWP3VWYX9uFO+0yMpXFVP2YoL4x9PxWRy8aID9KOifk6tyUHUrzjXT677KfRGmQDe4f/2i014B3QvlSE1zXEP/pjrp0ZR6B/8yZPfx/KM7oumgTQ0P3f3gABTIyOxn/mf7J63n92eU8NgUHecMpGfzVaBrJOQj91HYA2WKl2+DX/Stv1Vqt6CyXdgqtmwseZsVTUdr4An225/ScEMnq47ac7L2LCAgiaNJ8/Rnd9zUp4AFADE0LG4Fff5ZZyh7XfD7JoLM7jw5oF/PD+VHKLqzlZUUlBxWkyC2t7+JJiZv7VIZTkZA1o0fuQqxNIsufy8xxnX4preOu97WSYvAkMCeX2+Uk85bObn2c1P2igsTCTB//QIXlVLb/dFcgfbosmNSiPTVVQnZPJfwVdz8M338JiHFjqT/PhcQu2GiuZPQzqfafGMN/nNK/mdDxqMxMCTDRWHOOlrJYZITUnWbs9gGnLo0kNyWVDhbHyOM/Lgc0B3pjAbqWkoorGqkYaW2+6dHT/3PS8n/66mDo11uYNtVVTIKkL47lpaiBBPs29kpePiZMuv1r143Nq7/zORrsNPD3wa/3/EH52jOYVkpDEuoXj2zdYCvjV/83kcMt/ndeFsf4HcHp++q3HfpUhbBsd9VZffoQHQHVh5x8NuwUwXFVmA/tx3jb6UadOuLbN993PdxTS8gCaf2T8lS1t/amRPtPc7361b32V2dj1wvlxQUh0Ik8t9ONwxl/5bdl5Gn0CuGZ2Ak8tNfHcluY17Pt7jestL+Np+q4vI9d342MAJ+fHRWMJ48cOvbfnflxT+hxnmvr/OXV7nzm8r6dDOdYaeB81OO35Yo7dtWPsvsrsuj7cSJ9pKI2L+jEjeYmIdDWCg7QmgmIXsWRhIMXp/8uO/PPuLtAlwpspj64jLXYHb6++j/xyGxDF9X/YynSn7+2qgeqt9/E/Lxx0fTGHjZ6vrq573IqD01m7eWhPZR9pXLQSs6OSTZveJyN0AjNCAokMmcA34hO4/+xnPPbeyc6zQAOmkBRSyYfpA5i95hPKiuv8yEw38lTT1lvN6impquY5zzBeWRjLNVntwaauGs9WU2EPJ8gPmtc/sXJ4/24e3O9BoI8JS4OJpNvSsBz/K0e6vdvM/IRwbCf3sb/TF54mbHYHVWd7WncrmsA+Fv/vXh5neVkpscCMAC+oL+HlzS1nyRSOr4+Nipqut9j1tp9+upg6xWibd95WZyycz31hxTz35j4O1zcBvixdfiOJAypV31z2OR2qz04/8qo4nslPS73bl4ZxnKeg046M9BtG+p/B0MtMrSFsG20usr5cVWZD+zHUNlxUpy5t80b6eQ/C467n6YUBHEn/K7/N67gvI31mf/tVZ/oqc3+uF30dVyCL502hMWs7G3Jb91RPSUYWMd+Zzx3RX/Jvuc3HZuwa11de/UnTx7Ebub73awzQR3lcPpYwcuz02Z6HduzXOX1PdD2FoRtrXWQfNShjY1cde7uBj7H7KrOr+nAjfWaA8zSFE1zUjxntw0VEOhuhQVoT46+5iSXXeZLzwbscKOn/jEzpTQjBUwKo/uydlgAtQE8zaJ2poTyvAv/YWPw42L7+rNc1TImtoCh7IHPIwMvP7+KWOzDC5N15sBkQQLjJwhHDX+KsnDxrxS9gDL5Ut39JGxdECLVknjVakEYKKqwEhgQSQmX7wNQ0hmtCGjlc1jwAPF1RS2NCAOEmOsyKMxMeYKOkX188PfAyNVFRVsbfysr4G0DQVTy/PJpE35Ns6/BtMzxmKiHF2QMLCoaEM8PPD7+bb2F+20YTfp4mpt69lKV5mTyQXgJBgUyoqe4806951WS8TS3/9AlmXoiF/cXtg2GvcYEEYunhydxNVDc0ERJ3PbcHFLF2S/cZBwRNJTXUSubmsi5tzMrJCitB4/w612mAHyFYKGjNqz/l6SOvI8UWVkwKI4Tatnr3mhROjKOy+9qbve6nfy6qTg22eedt1czUEDOnT55s+UIJYGJwHoDrqs8puOqz02h3gI+ZwA7buq+/bTCv+lpO9DGx2nldGOt/hs5Qto12vdeXhZIaSArxw4v6ts+et6lj8NtVZTa6H2dtw5V16po272Wkn8eDaQnzWXOdF/s/+Csbirv2dEb6zH72q31wXmaD1wunx2XCq49RupenidZ1LJv1dY1zlpexNE6P3cj1/YtQQ2OARmflceVYwtD5adZ7e+7HNaXPcWaTiz6nl/f1tM2QjLVc0Ee5tD276NhdNMY20me6pg830mcaSOOyfszazz7cCC8mRkcT5GXh1LFTDMH9pSLiBiMySDv+mlu47ToTOek7OFxlwtd3dNtr9obz2HTrwEWooLKoBv/oOYz1Osy5Rm/Gzv0Xpof6gHcAPl6dFzjonY3ydzdQuO5Rlj1UQfqbB6nzTyD+oV8x138D6x95iXP9LJnX7NVsfPYb+B/9Pfc/sqXXtWsvmk8wi+dNxvJFBdU+wSxeOIPwqqOsbRuwNa/12DzANoHJo/nfHdbxOpKVS8mdM3n46no25NbQGDCB25Oj8c79mH39uCP9RNY/yF2ewI/mWXkp6zTVPsEkLUxkqc8xHm9Z166x+Ci7G5JYnjoVy/4SCvAj8brruT8ory1Nq8aGJvA14WVqfWBZ+5pmU2d/nV9Or+atPUfZX2rB4uNHQnw4Exqqu9xGF0hqnDeHd53uOShoMhPi03yeAv1MgJnAADM2OzQ6rFQXZ7P65SOdv6D4TWXNHZEceW8PWyusNOLLTalJ3EERG/fnklXjIDBoEndcNwFL3j7+0VLmkOgZrEz2I3HPZ2wptDSvl5UciVfhQXb3cNtuSHQiv1zoxe4tWT2uHzUt/krCq77kt2XdX2uu0wQevtrGprxabH7BLE2OJaj4MzKq+l+evvI6mXWU3PgEfrTQwqvZVTT6hXF7yhQsObvJbDC+H6d10bYvJ3UKLW3G1FxvnqaW9U7b24+RNu+8rbYEN8KCCTdVU+LwICQimoQAE5i88DVZm9eoa9FXe24vc3vgzKvls9q6tp6rPqeu+uw0lpVx0ieeO+aFUpFVjde4cBbHBXQK1BrPq29G+g0j/U9/9F1fzvpV423DWVt1zeeiicwvSliRNpuHizP5y0kLXuPCSY3r+OAwV7VnY/sx0jb6U6eDf73wJdVAPz81IYmfXQe7t2ey9ayJEN/2QLilofnYjfSZhvpVp23DWJmNXC+cH1cV+/MsJM2ezfKabDJKreAzhoRrE0jkNC+d7H5Ge7vGGTmHztMYOHYj1/eG0wbGAAbK48KxhJHz06zvPtzwNcXJONPY59R1fSZcetfTVkMx1nJJH+XC9uyqY3fNGNtYn+maPtxIn2kgTb3r+rH+9uFO+SXx6Is/Zmbe77n/EQVpRS5VoyIjIy/09uIVV1zBV199NZTlMcBE7C3fIXVqT6/ZyfvgVbbmD36UdlrMVE6dKsV6/mLuL3aDuX/gsUdtvL3iUYparg2mr73K6gfO8Kdv/4SvAPwWcP2TT5EYHYDdVsO5z15g15e3suwHC7G+eysvrQ9hyV9+zLnVi9mdF03SK+8Q/Kdr2Pw3iHvmMImfL+a1t/Kb933VvaR99z6mR0/CTAVln77Djhf+k6KBrB8c/xCvPPstxn3+39z/xDYGYwlir5h5/HG+lbV7HCxeGElMgImq0gI2pP+d/S0DkmtSl/KzuO7z26g5zv959XDb7T2+oTE8nHIVCSGjoaGG3JxsXt7XZQ3IDsJnp/L81Dwe2pzX+SnJIdGsTI4lIcQPP85TUJjLhp3HOi/I7xvK8tR4kiYFEYSN4uI8NmVkk9llYOwVEsNTS+L5J7/WAWQV776e0bJWqplrEuK5IyGcqQHeeNttnC4rYsueLDI6rMXrNSmRPyRbee6P2T0+OCF8diovzg/q8RhPZ/+Vh3b1cPuebzTP3h9N5h8z2h9G5BNI6rwElk4PZoKPCZuliiM5R9jwScdz6MHUuATumz2FmHHezef5+D/YsOcUJzudZy9mzJ7PDxMcbPvgY7aU9TAwMoXyw/vnE/jJVn7+Rc8zVTrXqaUlr5Md8jJYHkN5RbMyJZaEID+8HM3tZ+2eks63+jnZj9G6cFanM5IX88v4nlYYPc1Lf9jd9kAQQ23eWVv1CWZpaiI3hZpodDg4nZfFxopo1qROwvLphzy6v8OqqX2155B4Xlgey6QeSl2w5wNWZ9UbKrNXxPW8kurgvzqs59rcT1j4t7bPu2s+OwAhMf8fP1oYSYyfg9Mnj/JWRTgrp55i9abctqdEG8nLEAP9hrP+x9j5adneR30Z6lcNtA0jbdVVn4vmfiWR71wbxiSTg+LCI2woDmfN1ZU8/sfs5gd/uKo9G9qPsbZh6JrirDyuavNO+3mP/5+9uw+PqrzzP/5eJjOTZsKQACGBhMfRYKBEYhHQcIHBki4SroKKWEBXwK3i+iO1BV0Rq5bWrkDX4roLuiL+LPhQ5aE/nrahEmCJCKYNRgmadjCQBBNiSAhMTGYy9PdHnh8gZ5IhQ/Dzui4uMjPn3Pf3Puc+58x85577cNuMWfyfIW2t7OXw9i2sdNbdFd3AObO9ZQz1DUPXpvauF0bbFczYxO9xz/B+RNstWGq+oaCokJ2tjvfLXeOM1IWxeAy2vZm2ru/tLmN8v7dblx/7mJFzeLvXFAPvM6H949Rf58x61+L1tGvea/n3HNU8uI6+N/ZX2/30HtvwObPz53Bj50yj59V29oWhZTpQ1+XEp/K739xG/qp5LEtTilbkSunfvz/FxcVcvNi5KUmM5lN79erFuXONQxi7YZL26tBtk7RyWZdKLnSFSyVpry49GDs1hXtK0lmS2cZ0AdINaZ92DW3n7kX7q/O0DeVa4p/+HMj3mdcOnVvk2yl85ktsvLeIZ+Y9T+YVnftP5Nst0EnaHpdZVkSuMLOpR+M/K1Dj5aqeYdkaTXLMedJz9Kb4mqF92jW0nbsX7a/O0zaUa4n689VD+0K+lcw44iIp2rdFCVqRa1y3nJNW5JoQ9T3W3nsdDT+srC4jfVchPkzd1fVCLvLlR9mkX9VBik+0T7uGtnP3ov3VedqGci1Rf756aF/It5KHzOdnszDQYYjIFafpDjpI0x2IiIiIiIiIiIhcGzTdgYiIiIiIiIiIiMi3mJK0IiIiIiIiIiIiIgGkJK2IiIiIiIiIiIhIAClJKyIiIiIiIiIiIhJAStKKiIiIiIiIiIiIBJCStCIiIiIiIiIiIiIBpCStiIiIiIiIiIiISAB10yStib5xE7nrvgX8S+oi/uXBWaTcOpCQQId1NRi4lIU7X2eEGfosTOOJ5+/EdMUqszAgdT8/WzbFr6Vap23iifXLiQxUPF26DQHbrSxZv5WdO3eyc+dOtj57G+YrWZ+IiIiIiIiIiFxVggIdQEeExE7h7slh5B34H97Kq8TaP57Jk/+RGe73eCuzPNDhifjGcTM3uneweNp6nIGORUREREREREREuly3TNJWOj8mzeXmROH52ifOH2D/4KHcPWwgPTPLOR/Y8L5FrISG28Ed6DjqXW3xGORy4w4NxRboOEREREREREREJCC6ZZIWbyknCls/XeP14u36aLoP8xRm/H45wR87CY5LoM+FHexJ68tNKQn04TBbF6dywlW7qOmGB5j6yHyGO2IIchdQmLGBPWvfoNgFOFbw0Lo59G0oeB1PJdX/7WTvgmQO5QMMY9ii5STdNp6o3lBVlEPO754mLe14k/3UlwGzVzL93vH0tVRT9PE60o+3DLydcvwajw/iF7H+1yn0/mQNC5alUdaRMgCcaXx44XnunfYO2TuLO1qKiIiIiIiIiIh0U90zSduMiZDoeMYPrsG5929UBjqcQCt6i22LrVzwQM2WVN6wFLRIQNqp+fBx3lg1jhm/f4mbe6ewfqGVpPVvcdPNPTmx7zxE/ohZz82n6s3HeW1fFhdCx3NT6krufaqa15a9jcu5glfuWIEJK4OX7mEmK/jtqj0NNXg9tf+b4udz68AT/O+ypzlZVE3ojanMeGoNE0+lkP557XBX660rmHW/g5P/9TDvZBYQNHAiYxc6CKIxU9tuOX6Mx9g2rGW22Ai1WLCE2rB0aqc5Wf/8Fl5avYjb9j3LPlenChMRERERERERkW6mGydp+3DrfXeS0DuIoJoKvti7k/850d1+534FeAoprZ/YtOw4rcdlllCaXwGeQs6drSbI6QSsFBfD4PAIoJrIO+cT+clKXt55uDY56TrAx2s3E79uDvED3+ZQvhs84AVq3IDFjdfTett7s59mY3bj4+oP3yLn1F044iLg80KgJ46USZCeyvadB2rrKj7BgYEpxKf4Uo6/4jG6DesWy1zNvBlrweXCc4lljDETGRmlm4WJiIiIiIiIiHxLdeMkbTmZ297h0yAL9ojrGJP4Q+6y/oHNR3XjMGOqW/9tAbAT6XAQeuMqliSuarFOBWHhFsg3mAw3jyY+dSk33ziCsNDap4JCrRSnWesWcBAZCRc+cTYbqVrjrvaxHIP8VU4THlcnhr06FrJ29Z0MCrVgOXucd371pEbRioiIiIiIiIh8C3XjJK0X9/nzuIHzZaWUmCL550kJDD6azslAh9btVVO+Yz7/ueZwJ8qwMCh1HVPj9vDekvmcKHYDw7hl7Q6Gd+ty/Mi5nkUz1wM2Bt62iGeXLuKTBavJ7NywXBERERERERER6WZ6BDqAjjCF9yHc1PJZL2DC1Op58U0Fxc4SQh1x2Jo+bR7NoPhoH8qJoM8gO+WZm+sSogAtR6w6KS6G0IEOmu62IEvT5YyU4694fGe22fwwTYGL/I+zKQ6NYmBopwsTEREREREREZFuphsmaXsyasoPmX3XROKiw+jZsyd9B49i6vgBVDu/oKCtOzyJD9wUb9nAyYGpzFo0jcjwvtgGTuGW59Yx68EUerVYusZTDVgwmRv/1Sqh9FQFoY5x9DIDWOh16xyGR1nBYsdqBjiPM20/JC1n+rSJ9IocRp8xDzAxKabJEG8j5fgrHt+Yxyxh47ZtbHtpJpG+r960JOIfnI3jeBr7yjpVkIiIiIiIiIiIdEPdcLqD8xzd9ge8iYmMmT6LZGsQNa6vKcjZw7uH89Gtw/yg+A3eexKmPvI48zbGEEwJRR9v5r1nXuFcswXdnN7xFsXPr+Jfd9WPSnWyd0Eyh/LdnFr7OB8+tZwHNs6nxl3Bucw1pL0WzayfbOaB3nfxytqjVO97mvciVzL9wXU8+kg1X3+8jj0ZTuKTG+swUo6/4vGFx+3ighssF9yd63fhydx/m3S9xZYAACAASURBVIsti9NQjlZERERERERE5NvnH4YOHfr3S704YMAATp8+3ZXxdBvXxw4hP/8rqr6pbn9hkcuJT+V3qW6eXbgWZ6BjERERERERERH5Furfvz/FxcVcvHixU+UYzaf26tWLc+cah0N2w+kORK5Bbo0BFxERERERERH5tlKSViTQnBlkksLqnTvZuXMnW5+9zQ83IxMRERERERERke6iG85JK3KNcWWyZtFM1gQ6DhERERERERERCQiNpBUREREREREREREJICVpRURERERERERERAJISVoRERERERERERGRAFKS9hpxfewQgr9jDXQYIiIiIiIiIiIi4iMlaUVEREREREREREQCSElaERERERERERERkQBSklZEREREREREREQkgJSkFREREREREREREQkgU3h4+LOXerFnz56cP3++C8PpAMt1pPzzbKYmDsWbk8Npd9dU26dPGBUVF6ip8XZNhe242uJpMHApC99+kOr3/sDF+WksnuXiow+O8/cmi1jjH2L6s//JDx/5KRNm3cP1DvjqL0dxeZoWZGFA6l5+fHshh/73RBc3og0G2uU34Tew5sHhnP9zPqZbp7J29Df8v9zzXGyx2MjJKfzmhgp2/O1Cq9fk8kZOTmHdDxOYPf67zB7/XWLPHudA6RXZmz7qwdjk6axOjuR8zkmcnvbX6G7CRkzk1Un/QHpOOVWBDqYNV1vfCHQ8ISMm8ubUXvz5k2LKr0gNnevz/t4+xs6rPbh+zG2svHMc/3Rrbb0JLicfnKnpcL0BZwohOWUqK+8YzWyHh4xPS+nQu8GQCGb+4wSWJCfwT2OHkzggmLOniyis9nfAxnX2WmmOTWTTfbcyp66PzRwVTdx3XGTnX+jQOexqu3a3F09IVCyP/vAWHpmUwD03DiK+5zccO3meyi6P1DdGj+Ure80NZtrdd/Fvk6Nwff4lf607Dq6fNJX/njmCfgVfcKTCtxKvRP/pzHneL/EYfN8rIiJyJfTs2ROXy8Xf/965z1hG86nBwcFUVze+OQ7qVK0BZyI6cRxRJYWcjbIGOhjpiPA7mf7UHGrefJjf7jxKdfg4Epau4d6lFax7dgsB/Bwn3yLH9u7g3v09gHDmz02iX6ADanCRspJS8uznOXOVff/iHyEkjQojN+vQFUr4dd7V1jeutnj8r3N9PjDbJ5yk+D7kpW1hkbM2aI+3G6cTTD1Jnp7EfHshG7P7cE//jhbUk5nTJzHTm8sr7x4kt8bG2AnjeGwG/HzTUf7anc9p1QX8x6Y/c4wehEVdx4LbJ/Acf2JJRjnX4HdpjexDeGLmSGw5R1ixvYxKe3/mJt/CL0hn8f7Sa6DtXXTNDepLUmwIOzMrwRTBD2LtwDdXsEIRERHpLrr3dAfh8UxylHM440sl87op221zGOxcw+6dR2v3YdlhstZs5sKNKThsTZe0EhpuD0yQ3UIPwqzmQAfRCT0YOSmZNx+dydrJEQGpy+O9iMfrveo+ZP41K4Mn38/m6LV4kgu/jtvsRaRddriS+kZLV1s8/tbZPu+/7WP8vGoxgdvrrau7GydoCSbxjiTm2U7xwrt/9nlUX1PmwXFMizjDxl3ZZJRUUlJWws5dh9hRdJHwgH2v7q9rpYfKiipKKir5a242L3zwFeHxcYw1BSoef7l8PENGxRFbcYwX9xfy14pKCgucvPhBIeYRNzD2qh4rYXw7X/lrrpcv874ibMR1DAHMMUMZXfkVn7k6Ulb36j8iIiLSvm48kvY7xE2Mh5wd5FREEhfocKQDLETf6KD046NUm0eT8NwaJsdZKc04TDUR9OoNRK3goXVz6NuwzjqeSqr/28neBckcyh/GzS/tIP6Tu1i//nhj8eZpzNj4NDWrJrIj043pttdZsvBrdr9j5aY7x9Gnt5Wq/D3s+dVycosb58kw3fAAUx+Zz3BHDEHuAgozNrBn7RsUd+QNdPwi1v86hd6frGHBsjTKOrKZLicinjVz44hpeGIS7wyv/7uMLf83jU1lIUybfQfJzj+SmtlkuL0piscWjMWzewcvF1zEHJvImxOq2PCRiaQx/Yi2mXGVnGJj2p/JaPJBPSTCwUOT40iIsGH2ushzfsYrH+SR5+Ook4jB8Tw0YQix4SbwenG7Snh900GOVTb+YDQkKpZHb48lIcIG1RXk5mTz6sFCCpvUZWQZI3UZ0X7bQxibmMDcEf2JsYGropQjBzN5Jfd8Q8LI0HZuuV/PHudnb2aT1yyaHkTHxvPj8YOI7f0dqPmGMwWn2JqRzb4SH5NEIVHMvT2epMHhhPMNBSdzeTXtc45VN13kcts5isf+eQxhJ8uwxPQjutrJxhwbSaMiiKaIl989wpE2PvCOjB+ExXmIrBZ959rsG0YLan9fGCvm8m0PGTGR9WPKebJJv4pIuJ2XRuSzZFMuhQCYGZkwlh+P6U+M1U3Byc/ZUOBzFgojx4WRPm/0HNXpeAydV3uQOP1Ofuposj2mz2Jz3Z+5H/yBJz+t7UPt7YvRyTN5eoSl9kHF31ixq5zk20eSEPEdcB7k/u1eHu3A8dVaD8ZO/SE/9h5kUVpJ47YPcfDcAgdHN6WxtayKY1l/5oWSQo5VQ7Qvm7WFIUP6YSs5zpGmv4P3lrIprbThYfttL8SDH869hvZpXUkdOJbLT57iS1MCCf0ho8Cf8Rg4dgxeCy7bLkPxBDMyxsaZgjN154danoIC8kwJJETUtt1f7yWM9Q0/bWdD19z2j2Xz4FtYnwxbP4LEmyPoZzVRVnCMV9Nym53DPSedHBmVQHJMLsfioyjMzqJ8fELzujq9v4z2HyPn+a7szyIiIt9u3TZJa4oez/jep0jbUYrXGhnocORSit5i22IrFzxQsyWVNywFNH7OiaBXbytVZQVYE9cxOfIAb9/zNKejHuKBpGG1izhX8ModKzBhZfDSPcxkBb9dtaehBK8H4ATZO7KYeN8cBqx/mtN1r1mT7sLh3sPGzCYTFfcexyDPw/xuYSpe8zBil25g5rOpvLZoFaUAkT9i1nPzqXrzcV7bl8WF0PHclLqSe5+q5rVlb9OQp71suxqZLTZCLRYsoTYsHd2GFXmsfPcUZV7wZB3kyaCqxjezJdks+Y/PAEi4PYVHTX/m4bSv6l6/iMcLUEnGp2eYPd7B9ZlH+WvdqiEOBwnVp1hR0CShF9KPkTUH+fmbR/CYQki8fRKPTr+Bwk2f135YsQ/hpzNicX90iJ/lllFuCiclOZFfTPeyeFu+8Z+s2x08On0Q5bvTWOiswmON4MezJ5Hi+Ix9mXXxhMfy9MxYyg4eYkluBS57P+6ZPJbltx/iZ2lFtfPfGVnGSF2GYm6/7eaYWKZFnGfT+3/mswov4TEjeWz6BOaV7WZDSZOy2tvOTfarbcQk1ia0DofwWB5L7k/e7nReyHPhsdpIGPFdpiX052haoQ/TB4Qxd+YtjD2bxQtvFlKCncRJt/BEsouHt+cb385BZlx5R3jmgz489uNJJJu2s+RNE3Pv/z7Jg3twJLfFtjZFkRzr5ci2Fj+RvUb7ht/2hRFG2m5AiGMMjyXaObY3nZV532Du3Z+UxJ5YKG1/5SYMHRdG+jy0f+z4Ix5D59WLZGzfwhETQB8eWjCJsP1/4IWW0x0Y2BdH0/7AvR+A2XEL6yeFkTziPGm7dvNihRe8F/EQ5fvx1aaLZOUUQfJQRppKOFp30QpzDCK2LI9X65KU5QW+nD8upQf97MFQWcXlvt9sv+3459xraJ8aq6tN1R7KvRbC7D2Ai36Lx9CxY+Ra0F67DMUTTLQNKita3PzB68HltRBR13bAL+8ljPQNv+13g9dcQ+dVaxhDqg/y5Ovn8ZjCmHv393lsUlnzL0YoI83pZvmY7zE0ooQdaVWMHd+kLr/sL2P9x8h5vkv7M1z+fa+IiMg1rptOd9CHcZMGcfajj5qNiJKrkKeQUucJqgFv2XGKi5tOnGwnyAw1WAlzxIDzI057gKITlF+oX8YNHjdeTzU17trHXk/jv3rV6W/htEzhpjH1qdBoRiSPp3zfWxQ3jefCYbLTjtcmVD0nyF27gcJBU4h3WAALkXfOJ/KTlWzfeZhzLjfe4gN8vHYzF26cQ/xAo+1qsljmaubNmMGMxVubx+ELbxWFJZVUAp7K8+RVNH+rWv/z2tqt0fhzW0+TY6P8i1yyTIP4weD6Qz6YCfH9OJPjbEjaAlB9hrT6EQ3eSjL2Hyc3fChJdb/8HjIqjiEFWbz4aSkl1RfxVJayde/nnImJI8mH2SjM4f0YShlH8ureeFeXkFFQRXRMGCF1y4xMiCW64BNe/rSUwmoP5SWFvLrXiTs2lglW48sYqcsII233FBzlmW3ZHCmrotLrofBkLhllNmKjgpsX1s52hib71dv2Sc5st9PPW86RvPNUei/iqTzPkcxDPONTghbMg2NJCilkU1oef63wUF5Rys5df2LxrsakoJHtTE0VJWUe8Lo443JzpqwKcFFYYcJma/0VRciQoYyscJJW0vz5a7VvGGFkXxhhaH+1qwdjR0VDbiYv55RSWFlJXoGTjTnn8fX+nEaPi/b6PGDo2PFHPEbOq7XJh8bpDdqa7sDYvqgrB8Dq4WhGLkfLPI3Pgc/H16Xb/iXHiGJC/8ZrwdjhYeTlFDQbHekPZpORUdftt91f514j+7Tjx7IXahrb7K94jJRj5FpgaBu2G48Ji6l2n7XVdkxN+qFf3ku03zf8dyy3f/4xfF71lpLe0PZytn5aii2qf4tR6RfJ+zSPkpgYIk7+rdVIeP/sLyPbx9h5viv7c+3ql3/fKyIici3rliNpe45KZERNNpuPa5L9a0UNUOPzR/8mPHs48uHj/Cglhd2ZW/AOnMNNjhz+sup48+XctXU1uFDIBXcMfQYCTjuRDgehN65iSeKqFhVUEBZugXzfY/S4OjTRmH95i0hzXuSJ+P6EnCyk0j6I5Ihy0ne1SC63/HBSXUW511Y7QqbERGx/O+ExE3jT0bKCKqLtgMGfHHtKzvClN45ERwhHcishJIqkmGAKc8rrklHBRPcOxlXS4o7RZ8soYQixEZBWYGQZI3UZYTbWdlMYyZPimTYkjHBr7Yd1s9VEXssz7WW3s7ERnJ4CJ3+smMhjC5LJLSgnr6SUL0vOcMTHu2z3i+iJrbL5FAB4q5okeo1t5+bta/7Q3Or7wGAmjIqgMCerVWLomu0bBrS/L4zowP5qk41oO5SfdDUbwXTZBOqlGD0ujPDDsePXeC6rA/ui0kVhe1MXtHt8XW7dM6SfhEdH9MFcUIInJIrEiHIO7vLlrGGMx9e+0mbb/XzuvazOHMsmCGrSZn/1MQPltH8t8Nc5yovbC63Hd9S2HW+T90f+fi9xqePiajyWa5qv6alxQ1APbLRQcYr0giEMyS7BQ9Nvmfx3TWl/+xg8z3dhfxYREfm2636XRctAEsf1xLk72//ze0oXq6Cqdvga5cedcOtEIs17KO49jNBQfBx56ub0jj2Ur76LkeE7KE6ZQtjxdeS0W0jLEUjVlO+Yz3+uOexT7d3Bsay/UXavg7HWQvJGOehX8BnpPn8u93ImK51F+337uXMrlU5e3BXGc9Pv4M1kL55qF7m5h3ihyZy5Rm49Yej2FAbqMqb9to+cNIH5/Qt44Z2DHK28CIQwc+4djPWxJmPhlLJp0x9Ii+rHyIgwhkb04wfxCSw4m8nPtuVR0n4Jddof7eb324DYB5EUUcofd7cx7+s12jeM6ch8r61dbbdt6dLj4iqLx/d9caV/HnSRYzmFMLV2yoM8x1CGlpziRb/naC9ypqIKooKxgcEvGi7V9q4893bwWLaasZnclFdc9Gs8hsoxdC3wxzmqikIXjAyxQNNUpam27SUVvsyF7ms8lxjdelUfy+2pIn3/IcLa/DDjn2tKl/bDLixHRETkWtb9krQRQ4mx2bFO/yca5qTHhDUoiIj7FzDaeYAN//O3K/4xR/yhhHNF1YRGxuB9dxW7b15BykubKM08zoVTJVT5OmjV+RZ/yd/MTckpFN9q54s1e2g18MJibd7pe8cQZinhZD5ABcXOEkLj4rBxuHEePfNoBsWVcCq7Yz8GNdts4HIFfj6tsjzSzsbxgxED+XK4mawPCluPFjRZmn8QsduJNrk4VnERuMiXJVWERYQRQWljEtDUk9ERHo4WtU64mU1m8Hpat90UwT0T7Ox7dwtb2xz9VkXe2Sps9p6E0GRUY+9wIjjPkbNGlzFSlxEeA20PZkhEMGfy8uo+fACY2v7Z/GW3s1E9MJsuUlJUxL6iIvYBhN/A6rkOxobksbPFzr3UvjhTch5Pgp1oE01GcAYTbXdTWHERw9vZB9GxQ4goyCajzZFR12LfaK7j+8IIY2331HjBGkxYkzWbf2XlorACkiJsmKlsiNVymZ+wt90uH44LIzp97Pg5nsvy/7Fj1CXPvYCnII8j3kQm9A+h3/AwvvziUKfmoL1UXXl5Z3CNimZsiJO0+sabIpib3J+/7s9ufkOxS/LzubfTdbUtZPAgYr0lvPIVfozHaDntXQs63q7mqjhW4GLekH5EZ5Q3/ArCHBPDEG9p8zlF/fxeom3d/1j2lJ1v4wtVf+0vI9vHyHm+q/uzL8xEOhyEm13kf55/2fmvRUREuovuNydt4Ue89d9vsOHNt3mz7t+m9zMpqSnj023v8dbeL5Wg7TbcFH+SQ5+bJ2LjBLlr5rJ+0Vy2rf8l2xYtIKvFKNgaTzVgwWRu/NfcCXJ2ZNHn/l8ygj38pa3RcKGjuXXRnQwYGE0vxzSSnnqYyFM7yHa6a+PZsoGTA1OZtWgakeF9sQ2cwi3PrWPWgyn06kALzWOWsHHbNra9NJMrfXs7T/VFwITZ1KPuX8slqkjPOkN04hgmcIodJ9tIalj7kJI4kOvtwURERDM/eSTRZV+SXvcp4a9Zn5EbEc9PE6MZEmImLDyKmdOT+OmkQa3uAm6O+R5r/8+dvHm3g1bTRdr7EGv3gslGhD2ECHswYdbmp6NjWbkUxtzIo6P6EGE1ExYRzY8nO7DkHudgpfFljNQF1G0zU+0HyyBTq23YfturyCupIrx/H6JNAD2IGOwgwW7CbDIT0nR/tLOdG+Pp0fBhqf5xvSFjvs/6e8cyLaYnYaYemEN6MjY+mn7V5a1+Fnq5feEpOE56dTRzk4cw0m4mxB7GbclJ/HrqdQ371NB2NiyM5BEWjn56pu0vLq7JvtGkrE7uCyPxGGm7p6iIPGs0sxOjiA4JZkiMg5kj7E0StRc58mkhxI7h0RF9Gpa5Z0TPNm+CeOl2GT8u2uvzgA/HzqW2jw/HKe2fV5vGaDF1bF/UJtl61CW1TGBq+th3lz33AlBKuvMio8fcSFJEKRnOFkkfUzARIcFEhIQQZjMBwYTZa58LazGn8WX788nj7Czpx7w74kmMCiE6PIJpd4wjJaIHroZzVPtt9+u5l8vvU+PHspkQezAR9hCud8TzxKT+lGUf54jXn/EYK8fItcCXc9Tltk9e1nFy7SN5bPJArg8PYcjgWJ64PRpXzufN51X1y3uJ9vrGlTmWL3X+8e918PL8s7+MbB8j5/mu7c8+sSWR+tJ/8JtHxhDagdVFRESuRv8wdOjQv1/qxQEDBnD69OmujKdjQkZwz/yRnHjzPXz+lWoHXR87hPz8r6j6pr3J47rG1RaPYeaJTH19JZEfrmD7m3sodV1m+KzjIeY9n8rg3vWfEp3sXZDMofym5U1jxu9fos+OFNavbz4frem211my8Gu2r6/mpoV3MTgKyo/vIH3VcnKazDVruuEBpj4yn+GOGIIpoejjzexZs4pTHZlfI34R6399J70/+S0Llu28olN0mCNiWT4jnu/a6t/plrHl/6axqWmlpmge//EEoj/eRWqLg8Ucm8ibE6p4eb+XlElDibWbKPvqSzbs/jMZTeY/C4lw8NDkOBIibNj4hi9P5rLhg8851vJDStRo1tw9nPCCwyzeltdipFYI02b/gAX9m6d73GcL2LD9EGlltQnkkKhYHr39BhIivgPVFeTmZPPqweZzdra/TPt1jZycwi/iW80YB5zhlbXppFUbbLu1DzOTxzItyoTH6+WMM4uNJQ6eSI7B9fEfSc0oN7adI+JZMzeOmDYi+nL/dpZkVQLBjE6IZ3ZCNEPsFiw1bs4UnWLr/izSWo4Kvey+AEKimJscT1JMOOG4KShwsimt+Ui3y2/nKB775wTKt+1mQ0lP5s79PtEf/YGVTrhtxp2knNxVFzOYY8aydnIVL7yZ3fymdY01XZt9w0/7wnA8BrZPROz3+OmkocTavJzJO867JdE8NCSfJZty60bJmRk5Ziw/vrk/MSYvBSePsaEgmidGlfLkm9m1d2k30i4Dx4WRPm/k2DG0fYzEU+dy59UhiVP5zc1t3U3qDK+8mt4werS9fTE6eSZPj2gj9V3xBT9//SjHfDi+2t0X9SJGs3bucMLyPmThtuY3posek8xLE8LbWosz2X9i0d4mP8Futz9HMPf2BJIG1/bnMwVfsmHvUY5UGG17fTGdP/fWa+9a2V5d5thE3rwjpiGJ5XaVcSwnm1cyihpHPforHkPlGLsWGD1Htbt9ohw8dHscCeE2zN7a/vzy/sKGtvvrvYShvuGv7Wzomtv+sWwefAvrk738+38f4Wiz7eHil68f5RjBTLs7hQnOHTyZ1fTLkQge++db8Oz+f7xc4Mf9ZWj7GDjPd2l/9kF8Kr/7zW3kr5rHsjSNoxUREf/o378/xcXFXLzY0V9a1jKaT+3Vqxfnzp1reHxtJGkD4GpLil5t8fgkchpJqanEx8UQGmoF90dsnzeX7I5kNAcuZeG6cfxlwd2tRuLWJ2l/d9/jfGt7tT2W1fdHk/5mOjtb3Hii+QeJK+v6MbfzUO9j/DytqDE5YO1JcnIS82qOsHB3kd+mh+jKuozoyu189enB2Kkp3FOSzpJLfKP2be4bcnnf7mNHpHvQcSpdJXzmS2y8t4hn5j1Ppi7WIiLiJ4FO0na/OWnl2lO8k/RlO0nvVCEWTGYrkSkphH2yxsANw759zKYeDEmou2GY0TsDX5lIiI4JJ8wbTLgJKutGoIRYg4kIMeEqqvJjYqwr65J2WaNJjjlP+v5L/eRBfUNERETaY8YRF0nRvv9SglZERK4pStLKNcBC5KIdPHing5qi/aQ9u6P1DcO+5ep/luuuKGDj1vzWNwzrUh4y9h/mu7d/l+d+PIZwqwlqvLgqK8h1ZvLCwc7cwiaQdUm7Qi7y5UfZpF+yA6pviIiISHs8ZD4/m4WBDkNERMTPNN1BB11t0wtcbfGIiIiIiIiIiIh0F4Ge7qD1baxFREREREREREREpMsoSSsiIiIiIiIiIiISQErSioiIiIiIiIiIiASQkrQiIiIiIiIiIiIiAaQkrYiIiIiIiIiIiEgAKUkrIiIiIiIiIiIiEkBK0oqIiIiIiIiIiIgEUPdM0pqGkPIvi0hNbfHvnlH0DHRs0tzApSzc+TojzNBnYRpPPH8npkDH5Dc9GbbkI57Yuon4SF/XjSbhJSdP7XyfhIZ1LUQu2s9Tez5iarzFx/IsDEjdz8+WTfE1kMuyTtvEE+uX43Pz/BVPV/cf260sWb+VnTt3snPnTrY+exvmK1mfiIiIiIiIiAgQFOgAOsRkxUQx+zftJreyyfM1biovuZKIv1Xjys+h2FnIhQsdLMKSwE0pcWStPw7m8dx0WwxQ4s8gxReOm7nRvYPF09bjDHQsIiIiIiIiIvKt0T1H0lotWL2VVJR9Q2Vlk39ub6Ajk06zMCg1jZ/tzOFflkwMdDDtcFP87gLeWPI0J1wdWb+aoo8/IvTWu4gETDffxbCzH3GyQwlfK6Hh9o6seIVcbfEY5HLjDg3FFug4RERERERERORbpXuOpLWGYK2upFo52WuC7dblTF+YQnSUHdwV1FzIYvfDD3PybEHDMqYbHmDqI/MZ7oghyF1AYcYG9qx9g+L65Oita/lZKhx4B+LvTCAs1MqF42+x/VerON0kgXr5ciwMW3aYHyXVJReLNvP2r5zctPRhHIPskLGY1c/uxOtYzkPr5tO3vtBTG3ht4S8pbtmw8CkkLV1K/I0OQqng60/eYveqVZwqa1zE+8lmclNSuSl+AyeTx1GatoYL96Y2K+ayMTtW8NC6OY2xsI6nkur/drJ3QTKH8gGGMWzRcpJuG09Ub6gqyiHnd0+TlnacxsOoLwNmr2T6vePpa6mm6ON1pB9v2ah2yvFrPD6IX8T6X6fQ+5M1LFiWRln7a7TNmcaHF57n3mnvkL2z1R4VEREREREREbkiummS1kpQjRfbqO8zZ9wg7FRy9uQxDuz/lCJ3oIOTZoreYttiKxc8ULMllTcsBc2TcJEPMPOpKVxYNYff7juBN3wiU1av45bkl8hZX7czI3/ErOfmU/Xm47y2L4sLoeO5KXUl9z5VzWvL3qYhBxs6gmjXw7xx33G8tnEkrd7ArEVHeXn1nto62y3HzYnnx/FvqyAoaR0/WTiMm1JK+MuzU9haVAEed205zl/yyh0rMQHByW/x6J1ttNs8jqTVK4l1ruS9BXsoZQQjUlcya6mTl5dtobp+OfdR/rKvmnvvXUGkI4sP13xN7L1Nt087MTtX8ModKzBhZfDSPcxkBb9dtadhda+n9n9T/HxuHXiC/132NCeLqgm9MZUZT61h4qkU0j+v3c7WW1cw634HJ//rYd7JLCBo4ETGLnQQRGOmtt1y/BiPof5Tv7ktNkItFiyhNnydzbc5J+uf38JLqxdx275n2dehEdIiIiIiIiIiIr7pnknaIBMm2wBirRmkbc4E+wDGTExkxnQvmzbncD7Q8UkjTyGl9ZN7lh1vPdrUMY5InBzJOFGbfCv7iC+OV3BT3GhMHMeLhcg75xP5yUpe3nm4dhnXAT5eu5n4dXOIH/h23chMwH2U7PS6kZiuw3y4I4exd46jL3sokNU06gAAIABJREFUNlyOuzaR6AZCq8ldv4oTbQ3LrEvY1jSmW5sx3TyH+NADbF/1Nqc9AAfIeuYuci2FrdYo3rGZc68/Tq+Mh3FegNiGV4zE7AYPtbG4AYsbr6f1NxXe7KfZmN34uPrDt8g5dReOuAj4vBDoiSNlEqSnsn3ngdq6ik9wYGAK8Sm+lOOveOq3czv9p36xzNXMm7EWXC48l1jGGDORkVG6WZiIiIiIiIiIdKnumaQ9mc5r65o8Litnz96+zL97JMPDc8js8G+dpcs5D1PsfpgRSXE4045D5CRGxtn5+sOjdSMm7UQ6HITeuIoliatarFxBWLgF8uuSgG6oafJqjasCLHZMvpZT72whX3ewL4UOHEbw2QOca5ox9BTiaiuDWLyDv3xyF5Fb9uNlUpMXOhDzpZhHE5+6lJtvHEFYaO1TQaFWitOsdQs4iIyEC584m41UrXFX+1iOQf4qpwmPqxPDXh0LWbv6TgaFWrCcPc47v3pSo2hFREREREREpMt0zyRtG7xlX1NRM5SeIdDxCSmlyxW/wdZVI5j31GaWpELNhQIK9y3l/fVNJ0OtpnzHfP5zzeFOVuavcvytkGNrUzmZ76b1EE5/xGxhUOo6psbt4b0l8zlR7AaGccvaHQzv1uX4kXM9i2auB2wMvG0Rzy5dxCcLVpPZuWG5IiIiIiIiIiKG9Ah0AB1iGcCw6O80fy68LzbOU1YRmJCkg8xTmHjfMLIXj+OFaSP4zexk3lm7k3MNC1RQ7Cwh1BGHrdl6oxkUH+1DRf4qx5gL+QXU9I6hV7OkazS9Inu2ubw3/3iTNtfzV8wR9Blkpzxzc11CFKDliFUnxcUQOtBRN/K4VpCl6XJGyvFXPL4z22x+mKbARf7H2RSHRjEwtNOFiYiIiIiIiIgY0i2TtD0dCSTP+CH/OGogfXv2JDx6OFMmD8d0MptcTUjbvUSNZkBUNTW2GHpFDqNX5DBstqaJTDfFWzZwcmAqsxZNIzK8L7aBU7jluXXMejCFXoYrMlqOBZPZQlDd3aeCzLWPTeYWt6Oqey4IK2BteFzP+/Eb/OXCFKYsfYABkX2xRo4jfskGHnxqzhWIuVaNp7oh/uYxl1B6qoJQx7i6pLGFXrfOYXiUFSx2rGaA8zjT9kPScqZPm0ivyGH0GfMAE5Nimgy3N1KOv+LxjXnMEjZu28a2l2YS6fvqTUsi/sHZOI6nsU8j8kVERERERESki3TL6Q7OH/8f3iWRyWOmMHuyFarLKPoinc0H/kZloIMT3+TvIDt/Psm/2UFyk6drivaT9uzDZDndUPwG7z0JUx95nHkbYwimhKKPN/PeM6+0Mfr0Mtotx8KwZYf5UZK9YZX7dt1V+0fRZjbc9zinARzLeWjdfPo2LJXAg7vmAFD42hTeePcEeA6TviwVUpcy6/WnCaWCr4/vYOuvNvg55npuTu94i+LnV/Gvu+pHpTrZuyCZQ/luTq19nA+fWs4DG+dT467gXOYa0l6LZtZPNvNA77t4Ze1Rqvc9zXuRK5n+4DoefaSarz9ex54MJ/HJjXUYKcdf8fjC43ZxwQ2WC24MztLbtvBk7r/NxZbFaZo1RURERERERES6zD8MHTr075d6ccCAAZw+fbor4+k2ro8dQn7+V1R9U93+wl3gaovHGAuRCzeTEv4SG1fvoSFyWxzxSzcwxb2C3zy/M5AByrdNfCq/S3Xz7MK1OAMdi4iIiIiIiIh0mf79+1NcXMzFixc7VY7RfGqvXr04d65xCF63nO5ArhV2Ih0OQkP7Etow6aoFU2gMfXpbuVD2dSCDk28rd6fG4oqIiIiIiIiI+KxbTncg14qvObZ2BdGp85m38WlCQ63grqbqrJPCzBW8/9rhQAco3zbODDJ5itU778QCuD9exT3P7sMT6LhERERERERE5JqmJK0ElDf/bXYveZvdgQ5EBMCVyZpFM1kT6DhERERERERE5FtF0x2IiIiIiIiIiIiIBJCStCIiIiIiIiIiIiIBpCStiIiIiIiIiIiISAApSStXzPWxQwj+jjXQYYiIiIiIiIiIiFzVlKQVERERERERERERCSAlaUVEREREREREREQCSElaERERERERERERkQBSklZEREREREREREQkgIICHUDn9GTYlGkkR33N/h3pHC/zBjogudoNXMrCdXEcmrGA4vvTeNCxjtXLtnB19xwLA1L38CPbL/nN83t8Xts6bRNLfjL+0gsUbWbDfY9zuuGJngxbsodZiU52PzyX7OKOxGxAV+6L8BtYM7cPv1+bQeH4qfy6dzb3by/E07BAD6JjE/jx+EHE9raAq4xjOdm8klFESZNiQqJieej2WBLCbZirK8jNzebl/YVNljFWTgNrNI8vmMA4axkbX09ja4VvzWo/noYlSUyewENR59m4/TBpZRd9q8hoXaYQku/4Pg85vgMlWSzelEth/fojJvK75P6XrqDiC37++lGOtVOOkbr82i5TNI8vmsC4llfLr7J4+N3ctvdrwOtqrx+GMHPudOZFtLWuiz++s4NXi2ofhcXcwI8nXUdChA1ctTG/erCQQm9jXUNGJDB/TPO6Xs4oorz1FjDWD9s8Li4Xs5uDW7fy4sm6h+0e7yIiIiIiIlefbpyk7Ulsyp1Mtv+N7e9mUOgOdDwiV6fqtFR+m2mvexRH0kur6LtlDu/tq8sIuktwNV8DV34Oxc5CLlzo2lgDJWTwGJ5L7sex/QdYcvIbzBHX8VDyBJ6o/iNLMs/XLmQfwhMzR2LJOcKK7WVU2vszN/kWfkE6i/eX4jFaToMejExMILbkKwqign0P2kA8da3jtunfZ4H9FC+8e5Rj1R3YQEbqMvUkeXoS8+2FbMzuwz0t8rGVXxzi4TxT7YOgPsybfQv9Mv/Iv39RH6m3NoHYTjkYXcZf7QoyY+NrNm7K4GDTA8Xr9ilB25V1GeuHXj77YBcvOhsTpeaYBH6dHExh3anBHBHPczMGUZJxmCed5/GERDDt9rEsv/0QP0srohIIi72FX0y2k7X/IE+erMIWFcv82yewvFWfN9oPL3VcVLLj/T9w0NR82X4Jt7A83sMxn3aGiIiIiIjI1afbTncQPnoKkyMKSdumBK1c66yEhtvbX+xSPF/jKj5R9+9rvG6ouVDQ+FxZy+Shm+J3F/DGkqc54WqzxGtMD4ZG2CjMOsTLn5ZSWFFJnjOb13OqGDoimiF1Sw0ZFUfs2WP8+/5C/lpRSWGBkxc/OIV5xA2MtRovp0F4LPMdFfz+YG2yy1ftx1MrOuEWFkSU8PLWDiZoDdUVTOIdScyzneKFd//MkbZGBHs9lFRW1f6rqMLlBXd1VeNzlR5j5Rhaxl/tAqwWLN4qzpxtGmsVJdW+jUbuurqM90NPdRXllfX/vMQOj8JyMpf0ytpyEsY4CD+Zxb9nlZBXUUVhUT6v7nLijo1jQkhtGeXOY7y8bT8vflpCXsV5juX+mY1ON0Md/Wk66NVwP7zMceGpbrFdgvpzT7ydY/uPkNaRg0hEREREROQq0j1H0lquI3F8T/J27+CEPpiJv4VPIWnpUuJvdBBKBV9/8ha7V63iVBmAhWHLDvOjpLqkadFm3v6Vk5uWPoxjkB0yFrP62Z14AdMNDzD1kfkMd8QQ5C6gMGMDe9a+QXFD4nMYwxYtJ+m28UT1hqqiHHJ+9zRpacdrf/LvWMFD6+bQtyGwdTyVVP+3k70LkjmUX/uo/boMcCznoXXzG+s7tYHXFv6ShtkOzFOY8fvlBH/sJDgugT4XdrAnrS83pSTQh8NsXZzakNT1Szz14hex/tcp9P5kDQuWpVHWgSIu7yLHMtN5psWzlS437qBgzAAEMzLGxpmCr5qNaPQUFJJr+h4JEZBRYKScesHcNikWcg6QXtGHJHxlJB7AGs3c8Taydh3gSIfPlUbqquJY1p95oaSQY9UQ3dGqMFKOj3VFjWbN3dcRXpDJ4m15TX6Cb3QbBhNSXUW5kXk4urKuSzLSDyv54/ZdHHQ1Sf6GDCJ5sJcj276qS44GE93bRFmeq3mytKKMEoYQ25vaxKi3nCMFraNwe72No7kN90NfjosQpiXHM/SrTBbnVF12SRERERERke6gWyZpQ4aPYLDrS/baE7ln/iDspmoqCo6RsfdTjaqVyyt6i22LrVzwQM2WVN6wFDSfA9U8jqTVK4l1ruS9BXsoZQQjUlcya6mTl5dtoRo3J54fx7+tgqCkdfxk4TBuSinhL89OYWtRBXjcteVF/ohZz82n6s3HeW1fFhdCx3NT6krufaqa15a9jQswxc/n1oEn+N9lT3OyqJrQG1OZ8dQaJp5KIf1zNzhX8ModKzBhZfDSPcxkBb9d1Tgnrbc+A2KgLkOcv+SVO1ZiAoKT3+LRO9tayE7Nh4/zxqpxzPj9S9zcO4X1C60krX+Lm27uyYl9543H096+qN8lFhuhFguWUBsWo21pqSKPle+eoswLnqyDPBlU1c78lMGMHGLH89WxunlOg4m2QWVFi7W8biqrLUTYewBtjXZsWU6tkJh4Zvcu4pXt5XisfTrQIGPxhMXGkuAqZIM9gV8viCLa5KGwwMnGvbk+jKo1Vld5QWEbc5D6zkg5vtRlDrJgCzJhtppaJcoN7VOrGUuNl4hRt7B6fBT9qKLwZC4b9ztbbcOurMs3rfthZUVls+Rr9AgHsRV5bCyo78ceXC4It9Umdhsit32HsCATrmbTDtTrQVhMLLMHX+TI3lMN+8hoP/TluIgeNY7Z4Wd4fVN+677g8/EuIiIiIiISeN0wSWsiZnAkBAURY/qYve9n4rUPYPSkRGbMgLd+/+kVGGkn1wxPIaXOur/LjtPynlimm+cQH3qA7ave5rQH4ABZz9xFrqWQxlyCuzZB6gZCq8ldv4oTzTqdhcg75xP5yUpe3nm4NvHoOsDHazcTv24O8QPf5lA+eLOfZmN241rVH75Fzqm7cMRFwOeFtRV4wAvUuAGLG6+n5bcQxuoyvn1qk8w1XCojVEJpfgV4Cjl3tpogpxOwUlwMg8MjgGrj8bSzLxpCylzNvBlrweXqeKLFW0Vh/RDGyvPktbN4xIixzIsqY+umwrpElgmLCdx4we7gubkJ9PtiP4v31iW0TBag9Wi+1uUAhDFzUhSFH6Vx9LIjJntgbpEI83jrE2hG4nEzckgfCOrByKBjvP7+Z3js/UiZlMDyGbDk3aY32upsXVfvSEZPwREW/UcWeD0t+o+xdplNJsy2foy1ZvHK+5+BvR8zJyXwxHT42fvOFiNju64uX7TdD5uG14dp8Xbysg7y18bWcCT3DPMmxzPvi3I2nqzCY+1J8vgh9KOKY80KCmP+/d8nubcJS42Lw3v387Kzfgv0MNgPjR4XgN3BoxN68tkHaexrq0E+Hu8iIiIiIiJXg26YpA0hxB6EtySb/UfzcQOc/4L03WHEzBnJqL6fcuDrQMco3VXowGEEnz3AuaYZFk8hrktlB88W8nWrbwXsRDochN64iiWJq1q8VkFYuAXy3WAeTXzqUm6+cQRhobWvBoVaKU6ztizwMgzW5XfVrf+2XLl4PK6umxw3ou5GSJ+l/YmtDfvWi9sLFkxQU0VhSRmeMg+e+vGS3tZtarsciBiVQFJNLs+08xPtiIQk1k1qnOwC15es+O8jHDUcTzD97CY8JZ/zSlbd/J4Veby8y871cx0kR+SyocRfdV3dPN62DmBj7fKcPMKDa5usVnaeF/eGsfZuB8nhTja1OP67si4jLtUPmwoZEssE6xlez2me8SzPOcK/h9/Co9N/SApeXJVn+OMXLtwVVRxpljGu4N1tu0gzWQiLiOKeCUkst6bzTNZ5jPZDo8cF9GTm1Hgi8o7wQu7V++WAiIiIiIiIr7phkrYGb00NrrNlNEsNVJRSxkhCbICStBJw1ZTvmM9/rjl8idctDEpdx9S4Pby3ZD4nit3AMG5Zu4Phfq+rq11t8RjVg+gRt/DcJDvHdv+JF51NE0BVFLpgpN0MlYW8+n7dGFRTNCFWNyUVF42VY41i3ngbR3bnNpv+oC0lXxzhX7+yNE7x4P2GL32K5yLuGi9lZ9uaU9RBWIg/6+qOOt4uz9lySmqiCbeBsZ9udGVd9S7Xn5sKZkJCNO68g2S0GkBfxdGMdB7M6EGY1YSr2kTS3VNxffEnjjVb7mLd9AmVFJaV80JQf9ZPimN01hGOGumHPhwX0QljucdexIvb/DO9hoiIiIiIyNWiGyZpv6GkpBJb756YKG2cw9LeEzvnye3Enb5FLuQXUNM7hl5mKG0YEBdNr8gKzhWfN1hKBcXOEkLj4rBxuHEOVvNoBsWVcCq7EIigzyA75Zmb6xK0AL6MoPWlrq50ZeIx22ydm+6gXT24PmECT4w3k7H9T2woaFlTFccKXMyL6U8E5xt+dm6OiSbWW9owIrXdciKiGWmzYZv+QyY0PGnCFmRiyP0zmek8wsLdhbXtrDzPXy95kyUj8VSRV1JFeG8bIZQ3JsjsNiJw8WXTc2Wn67q6mU3mNqYgMNguax8SI1xkFDQmOc29wwjDxZE2rjeBrwva789NhA8hOaqKI+8XXeb4ukh59UUiRtzCPfZTvLy18VxoDg+jX0U5hc2mKPBSP8UDXgP90OhxER7Lo4nf4cj2Axzp1By9DdET6XAQbnaR/3m+8fm7RUREREREroBumKSFoqPZnJ2dyNRRbjKcZdSERJMwOQF7QQY5mpBWOsH78Rv85cIGpix9gO3rd1CKg+H3rWDKoM28tvgVzgFgwWSGoLphh0FmC/XTedbOGeumeMsGTq5LZdaiEna/c5gLoQnEL1rBraEb6sopofRUBaGOcfQyH+Wcx0KvW+cwPMoKFjtWM1Q3yZjUeKrBYsFkbrx1lvG6fFDXliCsgLXhceu5cC/Fz/EA5jFL2PjrHxB6/L9YsHjrJeeu7YwhCUk8PR7Sdx1hx1kTESGNE7S6qquo9EJe1nFy4xP46SQXr2eX4bH1557bB+HKSW9IGLVbTkE2S1491vymUrYhPDF7KMe27WdHifEbHBmJ51hWLoX3JvDoKDebnOdx2/owc3Ic4QWZpPlwrjRSF6ZgIqwAPQizmYBgwuzBuGvA462i3GhSzUg5PtRljvkea+++DltBJotbzOtqpF0RjpE8NNnG2P2ZbD3pqp0ndvJQzCcPk94icXq11GWkP9e7Pv46osv+xotFl98tEY6x/GKSmfStWU3mjA0hOTmJ2ZxiY0YuWRVewsJjmD2+Hy7nQT6rW67dflhm5LjoyczkeKILMnmlrHmbADzVVZS3N5dtS7YkUl9ayo3O/2LBYiVpRUREREQksLplkpayT9m2DSZPnsKcySFQXUHRFxm8f+CLtm+KImKU5zDpy1IhdSmzXn+aUCr4+vgOtv5qQ0OCdtiyw/woyd6wyn277qr9o2gzG+57nNMAxW/w3pMw9ZHHmbcxhmBKKPp4M+89U5+kdHNq7eN8+NRyHtg4nxp3Becy15D2WjSzfrKZB3rfxStrj9bV4Ob0jrcofn4V/7qrfrStk70LkmtvwtVuXQY5lvPQuvk0zkyawIO75gBQ+NoU3thisBx/xVPH43ZxwQ2WC26uzOynPRgyuC82K6TMvIOUZq95Obx9CyudF6Eyjxe2mnjo9gSeHmXD7K0gN+cQv9xfWpdYNVKOh/LKlmlYDx68lFdUUuLL6MB24wHKclmxFR69/RZW3/4dqHaR+0UWP9+f79tNqAzUFZ0wkZcmhDdZyc4vFsQBcCb7TyzaW2qoKiPl+FKXp8aLqwYsNd7WCXAD7SrJOcjPSWD+mAn8+nYLVFeQ+8Vhfrk/v9XP7a+Ougz2ZwBTFCmxweR+lHeZaQbMjBwzgccSvOzceoCtRU2nZqhk57Z0PIkJzJz+Ax6ymnC7yjiWc4hnPipqvB632w8NHBfWPozub8LGOH6zoHWUZ7L+xKL9xvpYA0ccAy0X+GRH2hX58kdERERERMQX/zB06NC/X+rFAQMGcPr06a6Mp9u4PnYI+flfUfWNX35z2WlXWzxwdcYkIiICED7zJTbeW8Qz854n88rNpSIiIiIiIt1E//79KS4u5uLFzt17xWg+tVevXpw71zicrUenahURERHpdsw44iIp2rdFCVoREREREbkqdM/pDkREREQ6zEPm87NZGOgwRERERERE6mgkrYiIiIiIiIiIiEgAKUkrIiIiIiIiIiIiEkBK0oqIiIiIiIiIiIgEkJK0IiIiIiIiIiIiIgGkJK2IiIiIiIiIiIhIAClJKyIiIiIiIiIiIhJAStKKiIiIiIiIiIiIBJCStCIiIiIiIiIiIiIBFBToAHzXkzFz5pEY0dZrFWS/u4n0oq6OSbqNgUtZuC6OQzMWUHx/Gg861rF62Ra8XVC1ddomfnLncd5Y+EuKfVrTwoDUPfzI9kt+8/yeDtW75CfjL71A0WY23Pc4pxue6MmwJXuYlehk98NzyfYtWOO6cl+E38CauX34/doMCsdP5df/v737j466vvM9/rxMMoEMpAkYCYafxkaBQ0pcqlg4ILiytYUtqFVva72CtorrkfautVurra296/HHrWuvLWJBbUtdqShsodKCC8IVlUBvEEuQ1JEAiQYDBBMmJpOM9/6RAEn4NUHIzHifj3NyjvnmO5/P+zv5fM05Lz7f9/Tdwg3Lqmg+fEIP8guL+dbYwRT2DUKklq1lW5i3vpqadsNk5hVyy2WFFOeESG+qo7x8C4+vrWp3TnzjHJaRz12zxnNxRi0Ln1rJkrquXdbJ6zl8JuOmjOeWvHoWLtvAytqPuzZRvHMFMpnypb/nloJeUFPKHb8rp+rQ60dM4LdTBhx/grrt/PCpzWw9yTjxzHVaryuQz12zx3Nx57+W75dy66LyY/9eEz7XydZhJjO+Po3rj/l3NMKfn1vOk21/R7MHXsC3Jp5HcW4IIq01P/lqFVWxI3MNHVHMzDEd53p8fTUHjn4H4luHx7wvTlRzlFeXLOHRnW3fnvR+lyRJkqTkk4IhLUALlaufY0W45fCRwMBxXHt5Jnu7GHJIn3ZNK+fwb5uy2r4bzqSfP8xZL36N519pu1miNUQ6voLI7jL2hKs4eLB7a02UzCFj+PGUs9m6dh137vyI9NzzuGXKeL7X9Gfu3FTfelLWUL43YyTBshLuX1ZLQ9YAvj7lEn7CGu5Yu4/meMc5rAcjxxVTWPM+lXk9u150HPW0XR2XTvt7ZmXt4sFFm9nadApvUDxzBfowZdokZmZVsXBLP67plMc2bH+dWysCrd+k9eP6ay/h7E1/5mfbD1Uaaw0QTzIO8Z5zuq4rLZ0Qe1n4u/W82v5GiUW7FNB251zxrcMYf/3Pl3g0fCQoTR9YzANTelLV9r+G9Nwifjx9MDXrN/D9cD3Nmbl8+bKLuOey1/nnldU0ANmFl/CTyVmUrn2V7+9sJJRXyMzLxnPPUWs+3nV4vPuigeWL/4NXAx3PPbv4Eu4pamZrl34ZkiRJkpR8UrbdQUtTAw0NH7V9xcgtHEzazjK2NyS6Mul0y6B3TtbJTzue5r1E9rzb9rWXWBRaDlYeOVbbOTyMsmfRLJ65817ejRxzxE+ZHgzLDVFV+jqPv7WPqroGKsJbeKqskWEj8hnadtbQUcMp3L+Vn62t4m91DVRVhnn0P3eRPuICLsqIf5zDcgqZWVDH719tDbu66uT1tMovvoRZuTU8vuQUA9q45urJuC9N4vrQLh5c9BdKjvWPZbFmahoaW7/qGonEINrUeORYQ3N848R1zum6LiAjSDDWyAf729faSE1T13Yjd99c8a/D5qZGDjQc+opReH4ewZ3lrGloHad4TAE5O0v5WWkNFXWNVFXv5smXwkQLhzM+s3WMA+GtPL50LY++VUNFXT1by//CwnCUYQUDaL/pNe51eIL7ormp0/uSNoBrirLYuraElf7tlyRJkpTiUnAnbT1blj1PWUO7h6Izz6N4SIzw0h1EE1eYPgWO1ZIgNGMxt0/ZwBOzH+ZDIHDpU9x5015WPJfBhVdeTL++GTTuXsWq/3EP5XsOrcCzOOfah5h23VjOCjZRvfEJ1mzrPNu5nDv7HiZdOpa8vtBYXUbZb+9l5cptrY/8F9zPLU98jbMOn/8EP5h06L/DrJ41hdd3t34XuOBGrrhtJucXDCQtWknV+qdZNfcZ9nQlZC24h1uemHlkvl1PM799a4b0y5n++3vouTFMz+HF9Du4nFUrz+LCqcX0YwNL7phzONQ9LfUcUjSbBQ9Mpe+bjzHr7pXUnsIQJ/YxWzet4UedjjZEokTTepIOQE9GDgzxQeX7HXY0NldWUR74O4pzYX1lPOMc0pNLJxZC2TrW1PVjEl0VTz1ARj5fHxui9KV1lJxyiBXPXI1sLf0LD9ZUsbUJ8k91KuIZp4tz5Y3msavPI6dyE3csrWj3CH6872FPMpsaORBPH47unOu44lmHDfx52Uu8GmkX/mYOZsqQGCVL328LR3uS3zdAbUWkY1haV0sNQynsS2swGjtASeXRVURjsSO7ueNeh125LzL58pQihr2/iTvKGk94piRJkiSlghQMaSFaf6BDGJszYiR5dW+ztqo7OosqpVU/y9I7MjjYDC0vzuGZYOWp9UDtezGDm2/ltzfNIZZ+LoXffZoZ981h/uyH2QdkfOF+vnpDATt/eSvPbaokbdAELrqpgDSOJLWBopl8YdC7/O+772VndRO9PzeH6T94jAm7prLm7SiE72fel+4nQAZDvruKGdzPvz18pCdt7FAC0v+/8tUfz6TxN3cx/5VSDvYey4VzHuK6HzQx/+5/J+5cNPxT5n3pIQJAzynPcvuVxzopi5bX7uKZhy9m+u9/zuf7TmXBTRlMWvAsF36+D+++Uh9/PXH+LtKDIXoHgwR7hwjGey2d1VXw0KJd1MagufRVvp/WeJL+lD0ZOTSL5ve3tvU57Ul+CBrqOr0qFqWhKUhuVg/gWLsdO4/thNvYAAAVMklEQVTTKnNgEdf2rWbesgM0Z/Q7hQuKr57swkKKI1U8nVXMA7PyyA80U1UZZuHq8i7sqo1vrgOVVcfoQdp18YzTlbnS04KE0gKkZwSOCsrj+p1mpBNsiZE76hIeGZvH2TRStbOchWvDR72H3TlX1xy9DhvqGjqEr/kjCiisq2Bh5aF13EwkAjmh1mD3cOWhXmSnBYh0aDtwSA+yBxZy7ZCPKVm96/DvKN512JX7In/UxVyb8wFP/W730Wuhy/e7JEmSJCVeyrY7OCxwNqNHZVPzVhl7E12Lkl9zFfvC79IExGq3sWdP50f943RwA1sO7XhtfpfyuU9TNfhyigqCQB8Kpk6ENT9l2R/X8eGed9m36RnWraykpd0QsS33svDun1IerqIpspd9rz1L2a6B5A8/9JBwFJqjxJqbaIm2fh9rPvLVKkj/K2fS/82HWPbHDXwYiRLbs46Nc1/g4Oe+RtGgrr4/rWO3cLxEqIZ9u+uguYoP9zfxYTgMhNmzB3rn5Hatnjh/F82bHuH66dOZfseSLn7gWjuxRqpqWkOp5oZ6KjqHZZ3kjriI6/NqWfJGVVuQFSAYgCgxyCrgx7OvZu7kXNIPBbOBY8fHR48DkM2MiXlUvbGFzSf8F4IepAc6fh0RTz09GDm0H6RlMzJtF08tfpkfrthGVd+R3DO9sNMO1E86V/Jqrixh9v96kRsWhTv1dY3vutIDAdJDA7goYwfzFr/M/SvLqc0r5nvTCuj8GVbdOVdXHHsdti+vH18uyqLirXf425GroaT8Aygs4vohbTtwM/owZexQzqaRAx0GymbmDVfz79/+Kgumn0ft+rU8Hj50j8W7DuO9L4CsAm4f34e/rv0Lrxzrgrp4v0uSJElSMkjJnbTtBYYUcX7Ge6wtO8WwTToVUToErhys4mB0IP0GAeEC+veHg2+GO+wMbYl23nY3mqI53+XznxtBdu/WQ2m9M9izMoP4ZdG/oIDen3uYO8c93OlndWTnBGH3mWgC0nT0fwfPXD3Nke5rjpvb9kFIf135MksO91aIEY1BkAC0NFJVU0tzbTPNh/ZLxo6+pmOPA7mjipnUUs6PTvKIdm7xJJ6YeKTZBZEd3P+rEjbHXU9Pzs4K0FzzNvNK2/p71lXw+EtZfPbrBUzJLefpmtM1V3Jrjh0rpIvvupp3lnDz3HYvq63n0dXZzL26gCk5YX7Xqf9Gd84Vj+Otw/YyhxYyPuMDnirrmHgeKCvhZzmXcPu0rzCVGJGGD/jz9gjRukZKOqTQdSxa+hIrA0Gyc/O4Zvwk7slYw49K64l3HcZ7X0AfZlxRRG5FCQ+W2+ZAkiRJ0qdHioe0vSgsHkZLxZ8oT/6cQJ9qXd1NGGTwnCe4Yvgqnr9zJu/uiQLncsnc5Zzf5bmbOLB8Jr94bEOXX3lmJFs98epB/ohL+PHELLaueJlHw+0DoEaqIjAyKx0aqnhycdtD44F8MjOi1NR9HN84GXlcPzZEyYryDu0PjqVmewn/8n7wyMqKfcSOLtXzMdGWGLX7j9VTtIDszNM5Vyo69etq3n+AmpZ8ckIQX5Pk7pzrkBOt5/Z6Mr44n2jFq6w/agN9I5vXr+Hm9T3IzggQaQow6eoriGx/ma0dzvu4rX1CA1W1B3gwbQALJg5ndGkJm+NZh124L/KLL+KarGoeXXp62mtIkiRJUrJI7ZA25wKK8xoof2H3qfUVlTppiTRB71wy2jVhTAseY2drMKPjzdN3INnBGnbuhkOP/xcNKiDAu4fXZsdxcuk3OIsDm15oC2gBurKD9pA69oRr6D18OCE2HOn3mj6awcNr2LXlZJHH6XZm6kkPhSASOYN9JXvw2eLxfG9sOuuXvczTlZ1namRrZYTrBw4gl/rDj7KnD8ynMLbv8I7Uk46Tm8/IUIjQtK8w/vDBAKG0AENvmMGMcAk3rahqvc6Gev523A9ZiqeeRipqGsnpGyKTA0cCsqwQuUTYUdduuE88V3JLD6RDrLnT+onzujL6MS43wvrKIyFnet9ssolQUsdREj8XnHw9t5MzlCl5jZQsrj7B/fUxB5o+JnfEJVyTtYvHlxx5ciU9J5uz6w7QsSV8jEMtHojFsQ7jvS9yCrl9XC9Klq2j5BP16JUkSZKk5JPSIW3eqBHk1JaxojrRlejTIrZtA3t638qEGy5nxfIwDJrARZcOPPpG6T2aL8y+kpblG4gER3PhnFvpv+tZloWjQJTwyrVc/t17mLatiTWHPjhs0kDS2h4ghxr27aqjd8HFfCZ9Mx82B/nMF77G+XkZEMwiIx2a2iUmLc1NEAwSSD+yY7e1L22UPS8+zc4n5vDV2TWseG4DB3sXUzT7fr7Q+2nm3zGPD7vyBqQHCQBpZAAZh78/0gP3ZE5zPUD6mDtZ+MA/0HvbL5n1SfrSnsDQ4kncOxbWvFTC8v0BcjOPfCpSpKmRhhhUlG6jvKiY/z4xwlNbamkODeCaywYTKVtzODA66TiVW7jzya0dP1QqNJTvXTuMrUvXsrwm/g84iqeeraXlVF1XzO2jovwuXE801I8Zk4eTU7mJlV3YlRnPXAR6kpsB0IPsUADoSXZWT6It0Bxr5EC8oVo843RhrvSBf8fcq88jVLmJOxZ37BUbz3XlFozklskhLlq7iSU7I5B1NjMmDyN95wbWdApOk2WueNbzIZ8tOo/82nd49CR/R3MLLuInE9NZs6S0Xc/YTKZMmcS17GLh+nJK62Jk5wzk2rFnEwm/yl/bzjvpOqyN577ow4wpReRXbmJebcdrAmhuauSA/1orSZIkKYWlbkgbGMTowkyqN7zdtSdApRPZ8zRLHi5gxuzHuPU6OPDm06zZVEnRmE7n7d/Alm3FTP7XnzIkDw5sW86yf32MfW0/bnrlXp7v/xDTbn6C229rYu/GJ1i1PkzRlEMDRNk19y5e+8E93LhwJi3ROj7c9Bgr5+fz1W+/wI19r2Le3M2Hz31v+bPs+deH+ZeXDu22DbN61hRe3w3seYbnvw9X3HYX1y8cSE9qqN74As//qIuBaME93PLETI50Ji3m5pe+BkDV/Mt55sV438PTVE+b5miEg1EIHoxyZrqa9GDokLMIZcDUGV9iaoefxdiw7EUeCn8MDRU8uCTALZcVc++oEOmxOsrLXuena/e1BavxjNPMgYbOMWwzzcQ4UNdATVd2B560HqC2nPuXwO2XXcIjl/WCpgjl20v54drddGkDbBxz5RdP4Ofjc9q9KIufzBoOwAdbXmb26n1HDXss8YzTlbmaW2JEWiDYEjs6AI/jumrKXuWHFDNzzHgeuCwITXWUb9/AT9fuPupx++SYK871DBDIY2phT8rfqDhBm4F0Ro4Zz3eKY/xxyTqWVLdvzdDAH5euoXlcMTOm/QO3ZASIRmrZWvY6P3qj+siu2ZOuwzjui4x+jB4QIMTF/M9ZR1f5QenLzF4b3xqTJEmSpGT0X4YNG/Z/j/fDc845h/fee68760kZny0cyu7d79P4UXI8c5ls9UBy1nQ6BC59ijtv2stvv3EX3h2SJEmSJEmpb8CAAezZs4ePP/5kn70Sb576mc98hg8/PLKdrccnmlWSJEmSJEmS9IkY0kqSJEmSJElSAqVuT1opQWKvzOLBVxJdhSRJkiRJkj4t3EkrSZIkSZIkSQlkSCtJkiRJkiRJCWRIK0mSJEmSJEkJZE9anTF/K69IdAmSJEmSJElS0nMnrSRJkiRJkiQlkCGtJEmSJEmSJCWQIa0kSZIkSZIkJZAhrSRJkiRJkiQlUIp+cFiAnOHjmDzmPPL6ZkBTA7WVW1i7upSqhkTXpsMKbmLuI1cyOAhEDxJ+7m7uWBROdFWSJEmSJElSUknJkDYwZAJXTT6H6nV/4tlwLS2Z+RRPmcD0qS385vdvUZ/oAtUqvIDZMxYAkH7pffx+6gWEFoWJJLgsSZIkSZIkKZmkZLuDvHMHk1Fdyuq33qO24SPq977DurXv0JQ7jKGZia5OxxIM9YZohGiiC5EkSZIkSZKSTEqGtLFYCxCjpcNBiBGjpeU4L1LipBdx85X92bh8I82JrkWSJEmSJElKMikZ0la/tYWanCLG5vdqPRDIZviYQRDeStitmkmn4IbZjAnP5bHXbHQgSZIkSZIkdZaSPWmpfYvlq3K4avqNzKGFlrQ0mirWsnRFhY/TJ6Ugwd455IUgbE4rSZIkSZIkdZCSIW3muZO4amIfdq76D5a/Xw8Z2QwZM45p0zNYtrSUvbFEV6j2wgvuY8Hd9/Hzpd+GaJToxoe55r5XbH0gSZIkSZIkkZIhbT9GjzuPptLnWFde33qovp7aVevJ++YXGVuwheXlprTJpP+MOXyj70r++ZoXebvWaFaSJEmSJElqLwV70gZIO060HAMyAoFurUYn179gENHwmwa0kiRJkiRJ0jGkYEi7j/JwPbljJjDm3H70yexFZs45DJ88jkLeo2ynXWmTzbblr8ClN/Pl/omuRJIkSZIkSUo+KdjuIEb1uj+yvGUc4yZ+hYuzMkhraWB/9Q5WL17PtoZE16fOmt/+DQvefIrZ1xXxx8e2JLocSZIkSZIkKamkYEgLUM/O1/7EztcSXYfiE2Hja2F+MHUQIbYQSXQ5kiRJkiRJUhJJwXYHSk1RbEQhSZIkSZIkHS1Fd9IqJRTcxNxHrmRwEIju5835C9xFK0mSJEmSJHViSKszJ7yA2TMWJLoKSZIkSZIkKanZ7kCSJEmSJEmSEsiQVpIkSZIkSZISyHYHnxJ/K69IdAmSJEmSJEmSToE7aSVJkiRJkiQpgQxpJUmSJEmSJCmBDGklSZIkSZIkKYEMaSVJkiRJkiQpgVL2g8My84uZMLGIgtxMiNRSWf4Gq9dXUB9LdGUJVHATcx+5ksFBIHqQ8HN3c8eicKKrkiRJkiRJknQCKRnSBs66mKumn0ft+tU8G95LSyifMZMnc/XkVfxu1W6iiS4wUcILmD1jAQDpl97H76deQGhRmEiCy5IkSZIkSZJ0fCnY7iDAkDEjCe3cwMrNu6mt/4j66ndYs2IrLYXFnJ+Z6PqSQzDUG6KR/38Da0mSJEmSJClFpGBIm0lW3wCR/bUdA8i6fdSSQ15OoupKIulF3HxlfzYu30hzomuRJEmSJEmSdEIpGNI20RSBjFAmgfaHM3uRmRYgkJINHE6vghtmMyY8l8des9GBJEmSJEmSlOxSMKSNsrP8PdIKxzJuSK/WoDbYj+FjL6AvDdSZSwJBgr1zyAslug5JkiRJkiRJJ5OS+04btq1mRc7lXD71RoppoanhPbZsb6Clrp6dexNdXeKFF9zHgrvv4+dLvw3RKNGND3PNfa/Y+kCSJEmSJElKQikZ0sJH7HztD8x/LUAwGCAWzWDEVV+lYfsbVCW6tCTQf8YcvtF3Jf98zYu8XWs0K0mSJEmSJCWzFGx30F6MaDRK5vAJXJy1g/Ub9iW6oKTQv2AQ0fCbBrSSJEmSJElSCkjxkBb6nDuJ6RMzKVuxjp2xRFeTHLYtfwUuvZkv9090JZIkSZIkSZJOJoVD2iD5Y/6Rayf34a2l/8Fr1Sa0hzS//RsWvDmI664rSnQpkiRJkiRJkk4ihUPaKFWb/sD8+X9gc3U00cUkmQgbXwvTd9AgQokuRZIkSZIkSdIJpXBIqxOLYnQtSZIkSZIkJb+0RBeg06jgJuY+ciWDg0B0P2/OX0Ak0TVJkiRJkiRJOiFD2k+T8AJmz1iQ6CokSZIkSZIkdYHtDiRJkiRJkiQpgQxpJUmSJEmSJCmBbHcgSZIkSZIkScdw7rnnkpube9Txuro6tm3bdtrmMaQ9RZMn/cNJz5k3b143VCJJkiRJkiTpTBg1ahSjR48+6nhFRYUhbbL45TO/PO7Pbrvxtm6sRJIkSZIkSVKqsietJEmSJEmSJCWQIa0kSZIkSZIkJZAhrSRJkiRJkiQlUHL2pA1kM/yKrzClIBNq3uCpZ0up73RKMG8UkycXMTQni0BTLZXlb7B6XcVR551Rw27myQeuZnAQiB7kncXf4/bF4e6sQJIkSZIkSVKKS76dtIFsRk39CpNzdrB2Sy0txzqnz/lcMf3zZFWuZ/FvFvLsii00FVzO9AlnE+jOWnfM51vXfZEvXvlFpv2ijMF/N4JQd84vSZIkSZIkKeUlWUjbi8IrvsK40A6WL1rHzvrYMc86a1QxA/dvZMW6CvbW11NbVcaq1e+QMeJCCoLdXHKbYO/eED1INDHTS5IkSZIkSUpRSRbSfkRl6VqWLl7HzuOmnb0YMLAPdZW7O7Q2iFXuoDrQn/zcbiizs/TP8c1/zKNkRQnNCZhekiRJkiRJUupKup60DVUVNJzwjD7khKChvqnj4ViUSFOQrKwAVB17B+6ZUvC1f+KiHb/gm29EunVeSZIkSZIkSakvyXbSxiONQAAgBn1GcNWt32TmpHMO96JNS0tEv4MgwVBf8mxIK0mSJEmSJKmLkm4n7cm1EIsBBCDWwP6afbTUNhEjo/WnLd3fFTb863v51V3384tF34FolOhfHmRlVbeXIUmSJEmSJCkFpWBIW09tBIb0yYCGCta8UNF6ODCUUEaUurrubXUA0P8fv8N/y/kz37l+MdsOtHalve3G4d1ehyRJkiRJkqTUk4LtDj7i/cp6sgYOok+7o4GBw8iL7aGqpvsryjt3MNF3Nx8OaCVJkiRJkiQpXskX0gZ6kZnZi8zMPmRmBoAgoT5tx9raze7dXEpl389zxYTzyMvpw1n5o7hi8nk0lf0fwt3f7YCyFathwjeZdnb3zy1JkiRJkiQptSVdu4Oc4qncMO6s9ke4dtaFANRteYGn13wADdtZsTTI5MkXM31UFoFYLZVlq1i67gO6v9kBNG//Nb9669f809WfY9kv30xABZIkSZIkSZJSVdKFtLWbnuexTSc/L1r9Fn969q0zX1BcIpS8/g73fmkwId4kkuhyJEmSJEmSJKWM5Gt3kLKiJKDTgiRJkiRJkqQUl3Q7aVPKsJt58oGrGRwEovvZ/OtfuYtWkiRJkiRJUpcY0n4SO+bzrevmJ7oKSZIkSZIkSSnMdgeSJEmSJEmSlEDupP0EbrvxtkSXIEmSJEmSJOkM2bVr1zGP792797TOY0h7iubNm5foEiRJkiRJkiSdQaWlpZSWlp7xeWx3IEmSJEmSJEkJZEgrSZIkSZIkSQlkSCtJkiRJkiRJCWRIK0mSJEmSJEkJZEgrSZIkSZIkSQlkSCtJkiRJkiRJCWRIK0mSJEmSJEkJ9P8AO5ECKvSMoosAAAAASUVORK5CYII=;" vertex="1" parent="1">
          <mxGeometry x="547" y="565" width="1385" height="637" as="geometry" />
        </mxCell>
      </root>
    </mxGraphModel>
  </diagram>
</mxfile>
